<?xml version="1.0" standalone="no"?>
<!DOCTYPE svg PUBLIC "-//W3C//DTD SVG 1.1//EN" "http://www.w3.org/Graphics/SVG/1.1/DTD/svg11.dtd" >
<svg>
<metadata>
Created by FontForge 20090622 at Fri Sep 13 18:50:53 2019
 By deploy user
Copyright &#194;&#169; 2001. Nokia Corporation.  All rights reserved.
</metadata>
<defs>
<font id="Gugeshashvili_8_Mthavruli-Bold" horiz-adv-x="1451" >
  <font-face 
    font-family="Gugeshashvili_8_Mthavruli"
    font-weight="700"
    font-stretch="normal"
    units-per-em="2048"
    panose-1="2 11 7 6 3 4 4 3 2 4"
    ascent="1638"
    descent="-410"
    x-height="1169"
    cap-height="1491"
    bbox="-1249 -360 2646 1887"
    underline-thickness="152"
    underline-position="-65"
    unicode-range="U+000D-U+FEFC"
  />
<missing-glyph horiz-adv-x="1024" 
d="M51 0v1536h922v-1536h-922zM179 128h666v1280h-666v-1280z" />
    <glyph glyph-name="uniFB50" unicode="&#x671;" horiz-adv-x="498" arabic-form="isolated" 
d="M336 200h-174v1261h174v-1261zM117 1694q57 95 126 143.5t134 48.5t106.5 -35.5t41.5 -85.5q0 -149 -365 -149l-26 -64h-80l26 64h-110v78h147zM199 1694q117 0 182.5 19t65.5 52q0 18 -18.5 30.5t-51.5 12.5q-44 0 -93 -29t-85 -85z" />
    <glyph glyph-name="uniFB51" unicode="&#x671;" horiz-adv-x="559" arabic-form="final" 
d="M561 200h-65q-179 0 -256.5 95t-77.5 300v866h174v-862q0 -204 151 -204h74v-195zM117 1694q57 95 126 143.5t134 48.5t106.5 -35.5t41.5 -85.5q0 -149 -365 -149l-26 -64h-80l26 64h-110v78h147zM199 1694q117 0 182.5 19t65.5 52q0 18 -18.5 30.5t-51.5 12.5
q-44 0 -93 -29t-85 -85z" />
    <glyph glyph-name="uniFB56" unicode="&#x67e;" horiz-adv-x="1579" arabic-form="isolated" 
d="M1444 702q8 -45 8 -111q0 -212 -192 -352.5t-521 -140.5q-294 0 -453 113.5t-159 320.5q0 119 39 211l164 -41q-29 -77 -29 -168q0 -242 438 -242q236 0 387.5 94.5t151.5 245.5q0 44 -8 70h174zM981 -138h-147v147h147v-147zM713 -138h-148v147h148v-147zM846 -347h-148
v147h148v-147z" />
    <glyph glyph-name="uniFB57" unicode="&#x67e;" horiz-adv-x="1614" arabic-form="final" 
d="M1616 200h-4q-195 0 -273 150q-175 -252 -600 -252q-294 0 -453 113.5t-159 320.5q0 119 39 211l164 -41q-29 -77 -29 -168q0 -242 438 -242q236 0 387.5 94.5t151.5 245.5q0 43 -6 70h174q6 -48 6 -111q0 -196 152 -196h12v-195zM945 -138h-147v147h147v-147zM677 -138
h-148v147h148v-147zM810 -347h-148v147h148v-147z" />
    <glyph glyph-name="uniFB58" unicode="&#x67e;" horiz-adv-x="565" arabic-form="initial" 
d="M397 595q0 -215 -82 -305t-252 -90h-65v195h74q151 0 151 204v183h174v-187zM480 -56h-147v147h147v-147zM212 -56h-148v147h148v-147zM345 -265h-148v147h148v-147z" />
    <glyph glyph-name="uniFB59" unicode="&#x67e;" horiz-adv-x="498" arabic-form="medial" 
d="M500 200h-4q-170 0 -248 84q-78 -84 -246 -84h-4v195h12q152 0 152 204v183h174v-183q0 -204 151 -204h13v-195zM463 -56h-147v147h147v-147zM195 -56h-148v147h148v-147zM328 -265h-148v147h148v-147z" />
    <glyph glyph-name="uniFB7A" unicode="&#x686;" horiz-adv-x="1114" arabic-form="isolated" 
d="M1155 -278q-222 -70 -444 -70q-269 0 -437 145.5t-168 368.5q0 237 200.5 416.5t514.5 231.5q-158 75 -263.5 97t-254.5 22q-65 0 -151 -20l-33 190q78 25 164 25q147 0 279 -54t407 -225v-147q-688 -113 -688 -538q0 -137 119 -227t309 -90q174 0 415 61zM961 239h-147
v147h147v-147zM693 239h-148v147h148v-147zM826 30h-148v147h148v-147z" />
    <glyph glyph-name="uniFB7B" unicode="&#x686;" horiz-adv-x="1348" arabic-form="final" 
d="M1350 200h-76q-123 0 -245 81t-333 351q-411 -141 -411 -472q0 -137 119 -225t309 -88q174 0 415 61l31 -186q-222 -70 -444 -70q-269 0 -436.5 143.5t-167.5 366.5q0 244 200.5 422t513.5 230q-158 75 -263.5 97t-254.5 22q-65 0 -151 -20l-33 190q78 25 164 25
q147 0 279 -54t407 -225v-147q-81 -15 -131 -27q165 -185 254.5 -232.5t173.5 -47.5h80v-195zM857 167h-147v147h147v-147zM589 167h-148v147h148v-147zM722 -42h-148v147h148v-147z" />
    <glyph glyph-name="uniFB7C" unicode="&#x686;" horiz-adv-x="1323" arabic-form="initial" 
d="M1161 587q-84 0 -198 -34.5t-366 -165.5q-237 -123 -339 -155t-176 -32h-84v195h90q62 0 155.5 29t318.5 140q302 150 403 158q-413 211 -684 211q-65 0 -152 -20l-33 190q78 25 164 25q109 0 250.5 -45.5t440.5 -214.5q197 -111 204 -111h6v-170zM934 -15h-147v147h147
v-147zM666 -15h-148v147h148v-147zM799 -224h-148v147h148v-147z" />
    <glyph glyph-name="uniFB7D" unicode="&#x686;" horiz-adv-x="1305" arabic-form="medial" 
d="M1307 200h-76q-160 0 -461 274q-177 -87 -247 -126t-203.5 -93.5t-237.5 -54.5h-84v195h90q62 0 155.5 29t318.5 140q302 150 403 158q-413 211 -684 211q-65 0 -152 -20l-33 190q78 25 164 25q109 0 250.5 -45.5t440.5 -214.5q197 -111 204 -111h6v-170q-104 0 -243 -49
q184 -143 309 -143h80v-195zM903 -15h-147v147h147v-147zM635 -15h-148v147h148v-147zM768 -224h-148v147h148v-147z" />
    <glyph glyph-name="uniFB8A" unicode="&#x698;" horiz-adv-x="862" arabic-form="isolated" 
d="M666 794q65 -177 65 -375q0 -310 -184.5 -479.5t-501.5 -169.5q-71 0 -197 14l37 176q90 -16 162 -16q510 0 510 475q0 168 -102 375h211zM607 1189h-148v147h148v-147zM742 980h-147v147h147v-147zM474 980h-148v147h148v-147z" />
    <glyph glyph-name="uniFB8B" unicode="&#x698;" horiz-adv-x="893" arabic-form="final" 
d="M895 200h-4q-121 0 -178 49q-44 -230 -222.5 -354.5t-445.5 -124.5q-71 0 -197 14l37 176q90 -16 162 -16q510 0 510 475q0 118 -53 270h192q23 -93 31 -172q12 -122 156 -122h12v-195zM646 1169h-148v147h148v-147zM781 960h-147v147h147v-147zM513 960h-148v147h148
v-147z" />
    <glyph glyph-name="uniFB8E" unicode="&#x6a9;" horiz-adv-x="1696" arabic-form="isolated" 
d="M1694 1478l-366 -149q-169 -68 -207 -87t-57.5 -36.5t-19.5 -34.5q0 -45 84 -148l181 -216q57 -68 83.5 -131.5t26.5 -127.5q0 -166 -116.5 -257t-315.5 -91h-317q-256 0 -399.5 105.5t-143.5 300.5q0 89 23 202l163 -41q-12 -72 -12 -159q0 -103 96.5 -158t274.5 -55
h317q118 0 187 43.5t69 115.5q0 82 -90 189l-184 220q-54 65 -77.5 113.5t-23.5 100.5q0 81 65.5 141t196.5 115l562 235v-190z" />
    <glyph glyph-name="uniFB8F" unicode="&#x6a9;" horiz-adv-x="1929" arabic-form="final" 
d="M1931 200h-65q-100 0 -221 63.5t-240 180.5q-34 -119 -145 -181.5t-273 -62.5h-317q-256 0 -399.5 105.5t-143.5 300.5q0 89 23 202l163 -41q-12 -72 -12 -159q0 -103 96.5 -158t274.5 -55h317q118 0 187 43.5t69 115.5q0 79 -90 189l-184 220q-54 65 -77.5 113.5
t-23.5 100.5q0 81 65.5 141t196.5 115l562 235v-190l-366 -149q-169 -68 -207 -87t-57.5 -36.5t-19.5 -34.5q0 -44 56 -113l240 -287q183 -218 302 -297t220 -79h69v-195z" />
    <glyph glyph-name="uniFB90" unicode="&#x6a9;" horiz-adv-x="885" arabic-form="initial" 
d="M885 1478l-366 -149q-169 -68 -207 -87t-57 -36.5t-19 -34.5q0 -45 83 -148l181 -216q57 -68 83.5 -131.5t26.5 -127.5q0 -166 -116.5 -257t-315.5 -91h-180v195h182q118 0 187 43.5t69 115.5q0 79 -90 189l-184 220q-54 65 -77.5 113.5t-23.5 100.5q0 81 66 141t196 115
l562 235v-190z" />
    <glyph glyph-name="uniFB91" unicode="&#x6a9;" horiz-adv-x="1124" arabic-form="medial" 
d="M1122 200h-65q-100 0 -221 63.5t-240 180.5q-34 -119 -145 -181.5t-273 -62.5h-180v195h182q118 0 187 43.5t69 115.5q0 79 -90 189l-184 220q-54 65 -77.5 113.5t-23.5 100.5q0 81 66 141t196 115l562 235v-190l-366 -149q-169 -68 -207 -87t-57 -36.5t-19 -34.5
q0 -44 55 -113l240 -287q183 -218 302 -297t220 -79h69v-195z" />
    <glyph glyph-name="uniFB92" unicode="&#x6af;" horiz-adv-x="1696" arabic-form="isolated" 
d="M1694 1478l-366 -149q-169 -68 -207 -87t-57.5 -36.5t-19.5 -34.5q0 -45 84 -148l181 -216q57 -68 83.5 -131.5t26.5 -127.5q0 -166 -116.5 -257t-315.5 -91h-317q-256 0 -399.5 105.5t-143.5 300.5q0 89 23 202l163 -41q-12 -72 -12 -159q0 -103 96.5 -158t274.5 -55
h317q118 0 187 43.5t69 115.5q0 82 -90 189l-184 220q-54 65 -77.5 113.5t-23.5 100.5q0 81 65.5 141t196.5 115l562 235v-190zM1694 1746l-752 -315v78l752 315v-78z" />
    <glyph glyph-name="uniFB93" unicode="&#x6af;" horiz-adv-x="1929" arabic-form="final" 
d="M1931 200h-65q-100 0 -221 63.5t-240 180.5q-34 -119 -145 -181.5t-273 -62.5h-317q-256 0 -399.5 105.5t-143.5 300.5q0 89 23 202l163 -41q-12 -72 -12 -159q0 -103 96.5 -158t274.5 -55h317q118 0 187 43.5t69 115.5q0 79 -90 189l-184 220q-54 65 -77.5 113.5
t-23.5 100.5q0 81 65.5 141t196.5 115l562 235v-190l-366 -149q-169 -68 -207 -87t-57.5 -36.5t-19.5 -34.5q0 -44 56 -113l240 -287q183 -218 302 -297t220 -79h69v-195zM1694 1746l-752 -315v78l752 315v-78z" />
    <glyph glyph-name="uniFB94" unicode="&#x6af;" horiz-adv-x="885" arabic-form="initial" 
d="M885 1478l-366 -149q-169 -68 -207 -87t-57 -36.5t-19 -34.5q0 -45 83 -148l181 -216q57 -68 83.5 -131.5t26.5 -127.5q0 -166 -116.5 -257t-315.5 -91h-180v195h182q118 0 187 43.5t69 115.5q0 79 -90 189l-184 220q-54 65 -77.5 113.5t-23.5 100.5q0 81 66 141t196 115
l562 235v-190zM885 1746l-752 -315v78l752 315v-78z" />
    <glyph glyph-name="uniFB95" unicode="&#x6af;" horiz-adv-x="1124" arabic-form="medial" 
d="M1122 200h-65q-100 0 -221 63.5t-240 180.5q-34 -119 -145 -181.5t-273 -62.5h-180v195h182q118 0 187 43.5t69 115.5q0 79 -90 189l-184 220q-54 65 -77.5 113.5t-23.5 100.5q0 81 66 141t196 115l562 235v-190l-366 -149q-169 -68 -207 -87t-57 -36.5t-19 -34.5
q0 -44 55 -113l240 -287q183 -218 302 -297t220 -79h69v-195zM885 1746l-752 -315v78l752 315v-78z" />
    <glyph glyph-name="uniFB9F" unicode="&#x6ba;" horiz-adv-x="1481" arabic-form="final" 
d="M1483 200h-15q-85 0 -141 47q-8 -237 -171 -375.5t-464 -138.5q-285 0 -448.5 128.5t-163.5 356.5q0 147 43 357l164 -41q-33 -184 -33 -314t111.5 -211t326.5 -81q461 0 461 422q0 36 -8 182l170 43q25 -180 153 -180h15v-195z" />
    <glyph glyph-name="uniFBE8" unicode="&#x649;" horiz-adv-x="565" arabic-form="initial" 
d="M397 595q0 -215 -82 -305t-252 -90h-65v195h74q151 0 151 204v183h174v-187z" />
    <glyph glyph-name="uniFBE9" unicode="&#x649;" horiz-adv-x="498" arabic-form="medial" 
d="M500 200h-4q-170 0 -248 84q-78 -84 -246 -84h-4v195h12q152 0 152 204v183h174v-183q0 -204 151 -204h13v-195z" />
    <glyph glyph-name="uniFBFC" unicode="&#x6cc;" horiz-adv-x="1497" arabic-form="isolated" 
d="M1391 849l-174 -18q-34 102 -203 102q-77 0 -131 -33.5t-54 -87.5q0 -31 34.5 -65t174.5 -103q211 -105 271.5 -178t60.5 -151q0 -153 -163.5 -258t-499.5 -105q-294 0 -467.5 105.5t-173.5 304.5q0 99 47 235l159 -41q-32 -106 -32 -192q0 -110 106 -163.5t363 -53.5
q241 0 364 48.5t123 123.5q0 38 -38 77t-190 115q-201 100 -257 166t-56 135q0 118 101.5 217t257.5 99q313 0 377 -279z" />
    <glyph glyph-name="uniFBFD" unicode="&#x6cc;" horiz-adv-x="1624" arabic-form="final" 
d="M1626 210h-6q-43 0 -127 34q-71 29 -102 29q-23 0 -37.5 -12t-14.5 -28q0 -18 49 -87q70 -101 70 -139q0 -125 -215.5 -237.5t-531.5 -112.5q-294 0 -467.5 105.5t-173.5 304.5q0 99 47 235l159 -41q-32 -107 -32 -192q0 -110 106 -163.5t363 -53.5q247 0 409 56t162 124
q0 18 -45 85q-74 109 -74 156q0 77 66 136t160 59q40 0 132 -35q71 -28 97 -28h6v-195z" />
    <glyph glyph-name="uniFE80" unicode="&#x621;" horiz-adv-x="1083" arabic-form="isolated" 
d="M961 364q-311 -125 -850 -164v195q21 0 107.5 4.5t107.5 7.5q-92 44 -145.5 124.5t-53.5 178.5q0 148 103.5 251t279.5 103q343 0 403 -307l-180 -22q-29 135 -223 135q-100 0 -154.5 -47t-54.5 -125q0 -157 213 -258q240 37 447 120v-196z" />
    <glyph glyph-name="uniFE81" unicode="&#x622;" horiz-adv-x="498" arabic-form="isolated" 
d="M336 200h-174v1466h174v-1466zM555 1829q-71 -86 -166 -86q-36 0 -135 32q-96 31 -129 31q-64 0 -119 -59l-51 55q70 84 164 84q37 0 137 -32q95 -31 129 -31q72 0 119 61z" />
    <glyph glyph-name="uniFE82" unicode="&#x622;" horiz-adv-x="559" arabic-form="final" 
d="M561 200h-65q-179 0 -256.5 95t-77.5 300v1071h174v-1067q0 -204 151 -204h74v-195zM554 1829q-71 -86 -166 -86q-36 0 -135 32q-96 31 -129 31q-64 0 -119 -59l-51 55q70 84 164 84q37 0 137 -32q95 -31 129 -31q72 0 119 61z" />
    <glyph glyph-name="uniFE84" unicode="&#x623;" horiz-adv-x="559" arabic-form="final" 
d="M561 200h-65q-179 0 -256.5 95t-77.5 300v866h174v-862q0 -204 151 -204h74v-195zM385 1617l-272 -49v72l59 10q-78 33 -78 109q0 58 37 92.5t98 34.5q122 0 146 -109l-72 -6q-13 37 -72 37q-65 0 -65 -49q0 -37 38.5 -60.5t96.5 -23.5l84 14v-72z" />
    <glyph glyph-name="uniFE85" unicode="&#x624;" horiz-adv-x="963" arabic-form="isolated" 
d="M641 413q-55 -14 -104 -14q-157 0 -281.5 101.5t-124.5 285.5q0 165 101 277t233 112q142 0 256.5 -170.5t114.5 -429.5q0 -206 -118 -394.5t-318.5 -299.5t-424.5 -111q-70 0 -196 14l37 197q89 -17 161 -17q242 0 425 130t239 319zM662 608q-8 142 -68 257t-129 115
q-62 0 -111 -56.5t-49 -137.5t64 -137t157 -56q82 0 136 15zM579 1486l-272 -49v72l59 10q-78 33 -78 109q0 58 37 92.5t98 34.5q122 0 146 -109l-72 -6q-13 37 -72 37q-65 0 -65 -49q0 -37 38.5 -60.5t96.5 -23.5l84 14v-72z" />
    <glyph glyph-name="uniFE86" unicode="&#x624;" horiz-adv-x="954" arabic-form="final" 
d="M956 200h-170q-60 -213 -270 -321.5t-547 -108.5q-70 0 -196 14l37 197q89 -17 161 -17q283 0 430 56t193 180h-84q-157 0 -281.5 102t-124.5 285q0 165 101 277t233 112q136 0 249.5 -158.5t121.5 -422.5h147v-195zM635 395q0 155 -58.5 271t-138.5 116
q-62 0 -110.5 -57t-48.5 -138t63.5 -136.5t157.5 -55.5h135zM549 1286l-272 -49v72l59 10q-78 33 -78 109q0 58 37 92.5t98 34.5q122 0 146 -109l-72 -6q-13 37 -72 37q-65 0 -65 -49q0 -37 38.5 -60.5t96.5 -23.5l84 14v-72z" />
    <glyph glyph-name="uniFE87" unicode="&#x625;" horiz-adv-x="498" arabic-form="isolated" 
d="M336 200h-174v1466h174v-1466zM385 -213l-272 -49v72l59 10q-78 33 -78 109q0 58 37 92.5t98 34.5q122 0 146 -109l-72 -6q-13 37 -72 37q-65 0 -65 -49q0 -37 38.5 -60.5t96.5 -23.5l84 14v-72z" />
    <glyph glyph-name="uniFE88" unicode="&#x625;" horiz-adv-x="559" arabic-form="final" 
d="M561 200h-65q-179 0 -256.5 95t-77.5 300v1071h174v-1067q0 -204 151 -204h74v-195zM385 -213l-272 -49v72l59 10q-78 33 -78 109q0 58 37 92.5t98 34.5q122 0 146 -109l-72 -6q-13 37 -72 37q-65 0 -65 -49q0 -37 38.5 -60.5t96.5 -23.5l84 14v-72z" />
    <glyph glyph-name="uniFE89" unicode="&#x626;" horiz-adv-x="1497" arabic-form="isolated" 
d="M1391 849l-174 -18q-34 102 -203 102q-77 0 -131 -33.5t-54 -87.5q0 -31 34.5 -65t174.5 -103q211 -105 271.5 -178t60.5 -151q0 -153 -163.5 -258t-499.5 -105q-294 0 -467.5 105.5t-173.5 304.5q0 99 47 235l159 -41q-32 -106 -32 -192q0 -110 106 -163.5t363 -53.5
q241 0 364 48.5t123 123.5q0 38 -38 77t-190 115q-201 100 -257 166t-56 135q0 118 101.5 217t257.5 99q313 0 377 -279zM438 848l-272 -49v72l59 10q-78 33 -78 109q0 58 37 92.5t98 34.5q122 0 146 -109l-72 -6q-13 37 -72 37q-65 0 -65 -49q0 -37 38.5 -60.5t96.5 -23.5
l84 14v-72z" />
    <glyph glyph-name="uniFE8A" unicode="&#x626;" horiz-adv-x="1624" arabic-form="final" 
d="M1626 210h-6q-43 0 -127 34q-71 29 -102 29q-23 0 -37.5 -12t-14.5 -28q0 -18 49 -87q70 -101 70 -139q0 -125 -215.5 -237.5t-531.5 -112.5q-294 0 -467.5 105.5t-173.5 304.5q0 99 47 235l159 -41q-32 -107 -32 -192q0 -110 106 -163.5t363 -53.5q247 0 409 56t162 124
q0 18 -45 85q-74 109 -74 156q0 77 66 136t160 59q40 0 132 -35q71 -28 97 -28h6v-195zM465 543l-272 -49v72l59 10q-78 33 -78 109q0 58 37 92.5t98 34.5q122 0 146 -109l-72 -6q-13 37 -72 37q-65 0 -65 -49q0 -37 38.5 -60.5t96.5 -23.5l84 14v-72z" />
    <glyph glyph-name="uniFE8B" unicode="&#x626;" horiz-adv-x="565" arabic-form="initial" 
d="M397 595q0 -215 -82 -305t-252 -90h-65v195h74q151 0 151 204v183h174v-187zM411 1091l-272 -49v72l59 10q-78 33 -78 109q0 58 37 92.5t98 34.5q122 0 146 -109l-72 -6q-13 37 -72 37q-65 0 -65 -49q0 -37 38.5 -60.5t96.5 -23.5l84 14v-72z" />
    <glyph glyph-name="uniFE8C" unicode="&#x626;" horiz-adv-x="498" arabic-form="medial" 
d="M500 200h-4q-170 0 -248 84q-78 -84 -246 -84h-4v195h12q152 0 152 204v183h174v-183q0 -204 151 -204h13v-195zM383 1092l-272 -49v72l59 10q-78 33 -78 109q0 58 37 92.5t98 34.5q122 0 146 -109l-72 -6q-13 37 -72 37q-65 0 -65 -49q0 -37 38.5 -60.5t96.5 -23.5
l84 14v-72z" />
    <glyph glyph-name="uniFE8D" unicode="&#x627;" horiz-adv-x="498" arabic-form="isolated" 
d="M336 200h-174v1466h174v-1466z" />
    <glyph glyph-name="uniFE8E" unicode="&#x627;" horiz-adv-x="559" arabic-form="final" 
d="M561 200h-65q-179 0 -256.5 95t-77.5 300v1071h174v-1067q0 -204 151 -204h74v-195z" />
    <glyph glyph-name="uniFE8F" unicode="&#x628;" horiz-adv-x="1579" arabic-form="isolated" 
d="M1444 702q8 -45 8 -111q0 -212 -192 -352.5t-521 -140.5q-294 0 -453 113.5t-159 320.5q0 119 39 211l164 -41q-29 -77 -29 -168q0 -242 438 -242q236 0 387.5 94.5t151.5 245.5q0 44 -8 70h174zM860 -187h-178v178h178v-178z" />
    <glyph glyph-name="uniFE90" unicode="&#x628;" horiz-adv-x="1614" arabic-form="final" 
d="M1616 200h-4q-195 0 -273 150q-175 -252 -600 -252q-294 0 -453 113.5t-159 320.5q0 119 39 211l164 -41q-29 -77 -29 -168q0 -242 438 -242q236 0 387.5 94.5t151.5 245.5q0 43 -6 70h174q6 -48 6 -111q0 -196 152 -196h12v-195zM823 -187h-178v178h178v-178z" />
    <glyph glyph-name="uniFE91" unicode="&#x628;" horiz-adv-x="565" arabic-form="initial" 
d="M397 595q0 -215 -82 -305t-252 -90h-65v195h74q151 0 151 204v183h174v-187zM340 -85h-178v178h178v-178z" />
    <glyph glyph-name="uniFE92" unicode="&#x628;" horiz-adv-x="498" arabic-form="medial" 
d="M500 200h-4q-170 0 -248 84q-78 -84 -246 -84h-4v195h12q152 0 152 204v183h174v-183q0 -204 151 -204h13v-195zM340 -85h-178v178h178v-178z" />
    <glyph glyph-name="uniFE93" unicode="&#x629;" horiz-adv-x="1053" arabic-form="isolated" 
d="M526 1083q400 -200 400 -504q0 -191 -107 -291t-293 -100q-181 0 -290 104t-109 287q0 150 102.5 281.5t296.5 222.5zM752 579q0 96 -65 187.5t-161 144.5q-96 -57 -160.5 -147.5t-64.5 -184.5q0 -197 225 -197q105 0 165.5 50.5t60.5 146.5zM752 1349h-147v147h147v-147
zM484 1349h-148v147h148v-147z" />
    <glyph glyph-name="uniFE94" unicode="&#x629;" horiz-adv-x="977" arabic-form="final" 
d="M979 200h-4q-145 0 -222.5 63t-105.5 191q-28 -53 -100 -91t-150 -38q-116 0 -193 74t-77 202q0 139 110.5 253t331.5 175l-10 84h174l43 -358q22 -187 31 -224.5t31 -70.5t54 -49t75 -16h12v-195zM586 886q-267 -76 -267 -280q0 -40 31 -64.5t72 -24.5q57 0 122.5 52
t65.5 110q0 13 -24 207zM699 1339h-147v147h147v-147zM431 1339h-148v147h148v-147z" />
    <glyph glyph-name="uniFE95" unicode="&#x62a;" horiz-adv-x="1579" arabic-form="isolated" 
d="M1444 702q8 -45 8 -111q0 -212 -192 -352.5t-521 -140.5q-294 0 -453 113.5t-159 320.5q0 119 39 211l164 -41q-29 -77 -29 -168q0 -242 438 -242q236 0 387.5 94.5t151.5 245.5q0 44 -8 70h174zM1016 950h-147v147h147v-147zM748 950h-148v147h148v-147z" />
    <glyph glyph-name="uniFE96" unicode="&#x62a;" horiz-adv-x="1614" arabic-form="final" 
d="M1616 200h-4q-195 0 -273 150q-175 -252 -600 -252q-294 0 -453 113.5t-159 320.5q0 119 39 211l164 -41q-29 -77 -29 -168q0 -242 438 -242q236 0 387.5 94.5t151.5 245.5q0 43 -6 70h174q6 -48 6 -111q0 -196 152 -196h12v-195zM928 950h-147v147h147v-147zM660 950
h-148v147h148v-147z" />
    <glyph glyph-name="uniFE97" unicode="&#x62a;" horiz-adv-x="559" arabic-form="initial" 
d="M397 595q0 -215 -82 -305t-252 -90h-65v195h74q151 0 151 204v183h174v-187zM447 1050h-147v147h147v-147zM179 1050h-148v147h148v-147z" />
    <glyph glyph-name="uniFE98" unicode="&#x62a;" horiz-adv-x="498" arabic-form="medial" 
d="M500 200h-4q-170 0 -248 84q-78 -84 -246 -84h-4v195h12q152 0 152 204v183h174v-183q0 -204 151 -204h13v-195zM459 1050h-147v147h147v-147zM191 1050h-148v147h148v-147z" />
    <glyph glyph-name="uniFE99" unicode="&#x62b;" horiz-adv-x="1579" arabic-form="isolated" 
d="M1444 702q8 -45 8 -111q0 -212 -192 -352.5t-521 -140.5q-294 0 -453 113.5t-159 320.5q0 119 39 211l164 -41q-29 -77 -29 -168q0 -242 438 -242q236 0 387.5 94.5t151.5 245.5q0 44 -8 70h174zM881 1159h-148v147h148v-147zM1016 950h-147v147h147v-147zM748 950h-148
v147h148v-147z" />
    <glyph glyph-name="uniFE9A" unicode="&#x62b;" horiz-adv-x="1614" arabic-form="final" 
d="M1616 200h-4q-195 0 -273 150q-175 -252 -600 -252q-294 0 -453 113.5t-159 320.5q0 119 39 211l164 -41q-29 -77 -29 -168q0 -242 438 -242q236 0 387.5 94.5t151.5 245.5q0 43 -6 70h174q6 -48 6 -111q0 -196 152 -196h12v-195zM793 1159h-148v147h148v-147zM928 950
h-147v147h147v-147zM660 950h-148v147h148v-147z" />
    <glyph glyph-name="uniFE9B" unicode="&#x62b;" horiz-adv-x="559" arabic-form="initial" 
d="M397 595q0 -215 -82 -305t-252 -90h-65v195h74q151 0 151 204v183h174v-187zM312 1259h-148v147h148v-147zM447 1050h-147v147h147v-147zM179 1050h-148v147h148v-147z" />
    <glyph glyph-name="uniFE9C" unicode="&#x62b;" horiz-adv-x="498" arabic-form="medial" 
d="M500 200h-4q-170 0 -248 84q-78 -84 -246 -84h-4v195h12q152 0 152 204v183h174v-183q0 -204 151 -204h13v-195zM324 1259h-148v147h148v-147zM459 1050h-147v147h147v-147zM191 1050h-148v147h148v-147z" />
    <glyph glyph-name="uniFE9D" unicode="&#x62c;" horiz-adv-x="1114" arabic-form="isolated" 
d="M1155 -278q-222 -70 -444 -70q-269 0 -437 145.5t-168 368.5q0 237 200.5 416.5t514.5 231.5q-158 75 -263.5 97t-254.5 22q-65 0 -151 -20l-33 190q78 25 164 25q147 0 279 -54t407 -225v-147q-688 -113 -688 -538q0 -137 119 -227t309 -90q174 0 415 61zM735 126h-178
v178h178v-178z" />
    <glyph glyph-name="uniFE9E" unicode="&#x62c;" horiz-adv-x="1348" arabic-form="final" 
d="M1350 200h-76q-123 0 -245 81t-333 351q-411 -141 -411 -472q0 -137 119 -225t309 -88q174 0 415 61l31 -186q-222 -70 -444 -70q-269 0 -436.5 143.5t-167.5 366.5q0 244 200.5 422t513.5 230q-158 75 -263.5 97t-254.5 22q-65 0 -151 -20l-33 190q78 25 164 25
q147 0 279 -54t407 -225v-147q-81 -15 -131 -27q165 -185 254.5 -232.5t173.5 -47.5h80v-195zM735 125h-178v178h178v-178z" />
    <glyph glyph-name="uniFE9F" unicode="&#x62c;" horiz-adv-x="1323" arabic-form="initial" 
d="M1161 587q-84 0 -198 -34.5t-366 -165.5q-237 -123 -339 -155t-176 -32h-84v195h90q62 0 155.5 29t318.5 140q302 150 403 158q-413 211 -684 211q-65 0 -152 -20l-33 190q78 25 164 25q109 0 250.5 -45.5t440.5 -214.5q197 -111 204 -111h6v-170zM842 38h-178v178h178
v-178z" />
    <glyph glyph-name="uniFEA0" unicode="&#x62c;" horiz-adv-x="1305" arabic-form="medial" 
d="M1307 200h-76q-160 0 -461 274q-177 -87 -247 -126t-203.5 -93.5t-237.5 -54.5h-84v195h90q62 0 155.5 29t318.5 140q302 150 403 158q-413 211 -684 211q-65 0 -152 -20l-33 190q78 25 164 25q109 0 250.5 -45.5t440.5 -214.5q197 -111 204 -111h6v-170q-104 0 -243 -49
q184 -143 309 -143h80v-195zM780 -85h-178v178h178v-178z" />
    <glyph glyph-name="uniFEA1" unicode="&#x62d;" horiz-adv-x="1114" arabic-form="isolated" 
d="M1155 -278q-222 -70 -444 -70q-269 0 -437 145.5t-168 368.5q0 237 200.5 416.5t514.5 231.5q-158 75 -263.5 97t-254.5 22q-65 0 -151 -20l-33 190q78 25 164 25q147 0 279 -54t407 -225v-147q-688 -113 -688 -538q0 -137 119 -227t309 -90q174 0 415 61z" />
    <glyph glyph-name="uniFEA2" unicode="&#x62d;" horiz-adv-x="1348" arabic-form="final" 
d="M1350 200h-76q-123 0 -245 81t-333 351q-411 -141 -411 -472q0 -137 119 -225t309 -88q174 0 415 61l31 -186q-222 -70 -444 -70q-269 0 -436.5 143.5t-167.5 366.5q0 244 200.5 422t513.5 230q-158 75 -263.5 97t-254.5 22q-65 0 -151 -20l-33 190q78 25 164 25
q147 0 279 -54t407 -225v-147q-81 -15 -131 -27q165 -185 254.5 -232.5t173.5 -47.5h80v-195z" />
    <glyph glyph-name="uniFEA3" unicode="&#x62d;" horiz-adv-x="1323" arabic-form="initial" 
d="M1161 587q-84 0 -198 -34.5t-366 -165.5q-237 -123 -339 -155t-176 -32h-84v195h90q62 0 155.5 29t318.5 140q302 150 403 158q-413 211 -684 211q-65 0 -152 -20l-33 190q78 25 164 25q109 0 250.5 -45.5t440.5 -214.5q197 -111 204 -111h6v-170z" />
    <glyph glyph-name="uniFEA4" unicode="&#x62d;" horiz-adv-x="1305" arabic-form="medial" 
d="M1307 200h-76q-160 0 -461 274q-177 -87 -247 -126t-203.5 -93.5t-237.5 -54.5h-84v195h90q62 0 155.5 29t318.5 140q302 150 403 158q-413 211 -684 211q-65 0 -152 -20l-33 190q78 25 164 25q109 0 250.5 -45.5t440.5 -214.5q197 -111 204 -111h6v-170q-104 0 -243 -49
q184 -143 309 -143h80v-195z" />
    <glyph glyph-name="uniFEA5" unicode="&#x62e;" horiz-adv-x="1114" arabic-form="isolated" 
d="M1155 -278q-222 -70 -444 -70q-269 0 -437 145.5t-168 368.5q0 237 200.5 416.5t514.5 231.5q-158 75 -263.5 97t-254.5 22q-65 0 -151 -20l-33 190q78 25 164 25q147 0 279 -54t407 -225v-147q-688 -113 -688 -538q0 -137 119 -227t309 -90q174 0 415 61zM647 1294h-178
v178h178v-178z" />
    <glyph glyph-name="uniFEA6" unicode="&#x62e;" horiz-adv-x="1348" arabic-form="final" 
d="M1350 200h-76q-123 0 -245 81t-333 351q-411 -141 -411 -472q0 -137 119 -225t309 -88q174 0 415 61l31 -186q-222 -70 -444 -70q-269 0 -436.5 143.5t-167.5 366.5q0 244 200.5 422t513.5 230q-158 75 -263.5 97t-254.5 22q-65 0 -151 -20l-33 190q78 25 164 25
q147 0 279 -54t407 -225v-147q-81 -15 -131 -27q165 -185 254.5 -232.5t173.5 -47.5h80v-195zM723 1294h-178v178h178v-178z" />
    <glyph glyph-name="uniFEA7" unicode="&#x62e;" horiz-adv-x="1323" arabic-form="initial" 
d="M1161 587q-84 0 -198 -34.5t-366 -165.5q-237 -123 -339 -155t-176 -32h-84v195h90q62 0 155.5 29t318.5 140q302 150 403 158q-413 211 -684 211q-65 0 -152 -20l-33 190q78 25 164 25q109 0 250.5 -45.5t440.5 -214.5q197 -111 204 -111h6v-170zM827 1271h-178v178h178
v-178z" />
    <glyph glyph-name="uniFEA8" unicode="&#x62e;" horiz-adv-x="1305" arabic-form="medial" 
d="M1307 200h-76q-160 0 -461 274q-177 -87 -247 -126t-203.5 -93.5t-237.5 -54.5h-84v195h90q62 0 155.5 29t318.5 140q302 150 403 158q-413 211 -684 211q-65 0 -152 -20l-33 190q78 25 164 25q109 0 250.5 -45.5t440.5 -214.5q197 -111 204 -111h6v-170q-104 0 -243 -49
q184 -143 309 -143h80v-195zM825 1275h-178v178h178v-178z" />
    <glyph glyph-name="uniFEA9" unicode="&#x62f;" horiz-adv-x="881" arabic-form="isolated" 
d="M461 1095q293 -364 293 -502q0 -185 -158.5 -289t-456.5 -104h-61v195h57q445 0 445 198q0 128 -330 502h211z" />
    <glyph glyph-name="uniFEAA" unicode="&#x62f;" horiz-adv-x="938" arabic-form="final" 
d="M940 200h-4q-215 0 -287 147q-155 -147 -510 -147h-61v195h57q445 0 445 198q0 65 -39.5 169.5t-169.5 330.5h209q132 -280 174 -469q28 -132 68.5 -180.5t105.5 -48.5h12v-195z" />
    <glyph glyph-name="uniFEAB" unicode="&#x630;" horiz-adv-x="881" arabic-form="isolated" 
d="M461 1095q293 -364 293 -502q0 -185 -158.5 -289t-456.5 -104h-61v195h57q445 0 445 198q0 128 -330 502h211zM416 1310h-178v178h178v-178z" />
    <glyph glyph-name="uniFEAC" unicode="&#x630;" horiz-adv-x="938" arabic-form="final" 
d="M940 200h-4q-215 0 -287 147q-155 -147 -510 -147h-61v195h57q445 0 445 198q0 65 -39.5 169.5t-169.5 330.5h209q132 -280 174 -469q28 -132 68.5 -180.5t105.5 -48.5h12v-195zM551 1359h-178v178h178v-178z" />
    <glyph glyph-name="uniFEAD" unicode="&#x631;" horiz-adv-x="862" arabic-form="isolated" 
d="M666 794q65 -177 65 -375q0 -310 -184.5 -479.5t-501.5 -169.5q-71 0 -197 14l37 176q90 -16 162 -16q510 0 510 475q0 168 -102 375h211z" />
    <glyph glyph-name="uniFEAE" unicode="&#x631;" horiz-adv-x="893" arabic-form="final" 
d="M895 200h-4q-121 0 -178 49q-44 -230 -222.5 -354.5t-445.5 -124.5q-71 0 -197 14l37 176q90 -16 162 -16q510 0 510 475q0 118 -53 270h192q23 -93 31 -172q12 -122 156 -122h12v-195z" />
    <glyph glyph-name="uniFEAF" unicode="&#x632;" horiz-adv-x="858" arabic-form="isolated" 
d="M666 794q65 -177 65 -375q0 -310 -184.5 -479.5t-501.5 -169.5q-71 0 -197 14l37 176q90 -16 162 -16q510 0 510 475q0 168 -102 375h211zM620 986h-178v178h178v-178z" />
    <glyph glyph-name="uniFEB0" unicode="&#x632;" horiz-adv-x="893" arabic-form="final" 
d="M895 200h-4q-121 0 -178 49q-44 -230 -222.5 -354.5t-445.5 -124.5q-71 0 -197 14l37 176q90 -16 162 -16q510 0 510 475q0 118 -53 270h192q23 -93 31 -172q12 -122 156 -122h12v-195zM665 962h-178v178h178v-178z" />
    <glyph glyph-name="uniFEB1" unicode="&#x633;" horiz-adv-x="2445" arabic-form="isolated" 
d="M2284 622q0 -205 -86 -313.5t-246 -108.5h-17q-174 0 -254 92q-68 -92 -217 -92q-88 0 -137 49q-12 -253 -179.5 -384.5t-455.5 -131.5q-296 0 -454 116.5t-158 338.5q0 131 43 313l164 -41q-33 -156 -33 -270q0 -262 438 -262q461 0 461 422v432h174v-164
q0 -117 29.5 -170t103.5 -53q73 0 104 51.5t31 175.5v160h174v-156q0 -231 166 -231h17q157 0 157 231v283h175v-287z" />
    <glyph glyph-name="uniFEB2" unicode="&#x633;" horiz-adv-x="2445" arabic-form="final" 
d="M2447 200h-4q-164 0 -248 92q-87 -92 -243 -92h-17q-174 0 -254 92q-77 -92 -217 -92q-88 0 -137 49q-12 -253 -179.5 -384.5t-455.5 -131.5q-296 0 -454 116.5t-158 338.5q0 131 43 313l164 -41q-33 -156 -33 -270q0 -262 438 -262q461 0 461 422v432h174v-164
q0 -117 29.5 -170t103.5 -53q73 0 104 51.5t31 175.5v160h174v-156q0 -231 166 -231h17q157 0 157 231v283h175v-283q0 -231 151 -231h12v-195z" />
    <glyph glyph-name="uniFEB3" unicode="&#x633;" horiz-adv-x="1577" arabic-form="initial" 
d="M1415 622q0 -205 -86 -313.5t-246 -108.5h-16q-174 0 -254 92q-34 -42 -104 -67t-113 -25q-148 0 -217 92q-83 -92 -242 -92h-139v195h135q152 0 152 204v183h174v-164q0 -117 29.5 -170t103.5 -53q72 0 103.5 51.5t31.5 175.5v160h174v-156q0 -231 166 -231h16
q158 0 158 231v283h174v-287z" />
    <glyph glyph-name="uniFEB4" unicode="&#x633;" horiz-adv-x="1577" arabic-form="medial" 
d="M1579 200h-4q-165 0 -248 92q-88 -92 -244 -92h-16q-174 0 -254 92q-34 -42 -104 -67t-113 -25q-148 0 -217 92q-83 -92 -242 -92h-139v195h135q152 0 152 204v183h174v-164q0 -117 29.5 -170t103.5 -53q72 0 103.5 51.5t31.5 175.5v160h174v-156q0 -231 166 -231h16
q158 0 158 231v283h174v-283q0 -231 152 -231h12v-195z" />
    <glyph glyph-name="uniFEB5" unicode="&#x634;" horiz-adv-x="2445" arabic-form="isolated" 
d="M2284 622q0 -205 -86 -313.5t-246 -108.5h-17q-174 0 -254 92q-68 -92 -217 -92q-88 0 -137 49q-12 -253 -179.5 -384.5t-455.5 -131.5q-296 0 -454 116.5t-158 338.5q0 131 43 313l164 -41q-33 -156 -33 -270q0 -262 438 -262q461 0 461 422v432h174v-164
q0 -117 29.5 -170t103.5 -53q73 0 104 51.5t31 175.5v160h174v-156q0 -231 166 -231h17q157 0 157 231v283h175v-287zM1706 1292h-148v147h148v-147zM1841 1083h-147v147h147v-147zM1573 1083h-148v147h148v-147z" />
    <glyph glyph-name="uniFEB6" unicode="&#x634;" horiz-adv-x="2445" arabic-form="final" 
d="M2447 200h-4q-164 0 -248 92q-87 -92 -243 -92h-17q-174 0 -254 92q-77 -92 -217 -92q-88 0 -137 49q-12 -253 -179.5 -384.5t-455.5 -131.5q-296 0 -454 116.5t-158 338.5q0 131 43 313l164 -41q-33 -156 -33 -270q0 -262 438 -262q461 0 461 422v432h174v-164
q0 -117 29.5 -170t103.5 -53q73 0 104 51.5t31 175.5v160h174v-156q0 -231 166 -231h17q157 0 157 231v283h175v-283q0 -231 151 -231h12v-195zM1708 1292h-148v147h148v-147zM1843 1083h-147v147h147v-147zM1575 1083h-148v147h148v-147z" />
    <glyph glyph-name="uniFEB7" unicode="&#x634;" horiz-adv-x="1577" arabic-form="initial" 
d="M1415 622q0 -205 -86 -313.5t-246 -108.5h-16q-174 0 -254 92q-34 -42 -104 -67t-113 -25q-148 0 -217 92q-83 -92 -242 -92h-139v195h135q152 0 152 204v183h174v-164q0 -117 29.5 -170t103.5 -53q72 0 103.5 51.5t31.5 175.5v160h174v-156q0 -231 166 -231h16
q158 0 158 231v283h174v-287zM826 1292h-148v147h148v-147zM961 1083h-147v147h147v-147zM693 1083h-148v147h148v-147z" />
    <glyph glyph-name="uniFEB8" unicode="&#x634;" horiz-adv-x="1577" arabic-form="medial" 
d="M1579 200h-4q-165 0 -248 92q-88 -92 -244 -92h-16q-174 0 -254 92q-34 -42 -104 -67t-113 -25q-148 0 -217 92q-83 -92 -242 -92h-139v195h135q152 0 152 204v183h174v-164q0 -117 29.5 -170t103.5 -53q72 0 103.5 51.5t31.5 175.5v160h174v-156q0 -231 166 -231h16
q158 0 158 231v283h174v-283q0 -231 152 -231h12v-195zM842 1292h-148v147h148v-147zM977 1083h-147v147h147v-147zM709 1083h-148v147h148v-147z" />
    <glyph glyph-name="uniFEB9" unicode="&#x635;" horiz-adv-x="2644" arabic-form="isolated" 
d="M1409 425q246 377 415.5 522.5t301.5 145.5q168 0 280.5 -118.5t112.5 -299.5q0 -221 -195.5 -348t-527.5 -127h-328q-85 0 -141 47q-8 -237 -171 -375.5t-464 -138.5q-296 0 -454 116.5t-158 338.5q0 131 43 313l164 -41q-33 -156 -33 -270q0 -262 438 -262
q461 0 461 422q0 36 -8 182l170 43q18 -124 94 -150zM1567 395h229q252 0 400.5 73.5t148.5 202.5q0 92 -66 160.5t-153 68.5q-201 0 -559 -505z" />
    <glyph glyph-name="uniFEBA" unicode="&#x635;" horiz-adv-x="2644" arabic-form="final" 
d="M2646 200h-66q-197 0 -270 117v2q-198 -119 -514 -119h-328q-85 0 -141 47q-8 -237 -171 -375.5t-464 -138.5q-296 0 -454 116.5t-158 338.5q0 131 43 313l164 -41q-33 -156 -33 -270q0 -262 438 -262q461 0 461 422q0 36 -8 182l170 43q18 -124 94 -150
q246 377 415.5 522.5t301.5 145.5q168 0 280.5 -118.5t112.5 -299.5q0 -124 -65 -221q35 -59 118 -59h74v-195zM1567 395h229q252 0 400.5 73.5t148.5 202.5q0 92 -66 160.5t-153 68.5q-201 0 -559 -505z" />
    <glyph glyph-name="uniFEBB" unicode="&#x635;" horiz-adv-x="1673" arabic-form="initial" 
d="M424 405q267 406 435 547t296 141q168 0 280.5 -118.5t112.5 -299.5q0 -219 -194 -347t-529 -128h-331q-168 0 -246 84q-78 -84 -246 -84h-4v195h12q152 0 152 204v101h174v-101q0 -159 88 -194zM596 395h229q252 0 400.5 73.5t148.5 202.5q0 92 -66 160.5t-153 68.5
q-201 0 -559 -505z" />
    <glyph glyph-name="uniFEBC" unicode="&#x635;" horiz-adv-x="1673" arabic-form="medial" 
d="M1675 200h-65q-198 0 -271 117v2q-198 -119 -514 -119h-331q-168 0 -246 84q-78 -84 -246 -84h-4v195h12q152 0 152 204v101h174v-101q0 -159 88 -194q267 406 435 547t296 141q168 0 280.5 -118.5t112.5 -299.5q0 -124 -65 -221q35 -59 119 -59h73v-195zM596 395h229
q252 0 400.5 73.5t148.5 202.5q0 92 -66 160.5t-153 68.5q-201 0 -559 -505z" />
    <glyph glyph-name="uniFEBD" unicode="&#x636;" horiz-adv-x="2644" arabic-form="isolated" 
d="M1409 425q246 377 415.5 522.5t301.5 145.5q168 0 280.5 -118.5t112.5 -299.5q0 -221 -195.5 -348t-527.5 -127h-328q-85 0 -141 47q-8 -237 -171 -375.5t-464 -138.5q-296 0 -454 116.5t-158 338.5q0 131 43 313l164 -41q-33 -156 -33 -270q0 -262 438 -262
q461 0 461 422q0 36 -8 182l170 43q18 -124 94 -150zM1567 395h229q252 0 400.5 73.5t148.5 202.5q0 92 -66 160.5t-153 68.5q-201 0 -559 -505zM1546 1111h-178v178h178v-178z" />
    <glyph glyph-name="uniFEBE" unicode="&#x636;" horiz-adv-x="2644" arabic-form="final" 
d="M2646 200h-66q-197 0 -270 117v2q-198 -119 -514 -119h-328q-85 0 -141 47q-8 -237 -171 -375.5t-464 -138.5q-296 0 -454 116.5t-158 338.5q0 131 43 313l164 -41q-33 -156 -33 -270q0 -262 438 -262q461 0 461 422q0 36 -8 182l170 43q18 -124 94 -150
q246 377 415.5 522.5t301.5 145.5q168 0 280.5 -118.5t112.5 -299.5q0 -124 -65 -221q35 -59 118 -59h74v-195zM1567 395h229q252 0 400.5 73.5t148.5 202.5q0 92 -66 160.5t-153 68.5q-201 0 -559 -505zM1546 1111h-178v178h178v-178z" />
    <glyph glyph-name="uniFEBF" unicode="&#x636;" horiz-adv-x="1673" arabic-form="initial" 
d="M424 405q267 406 435 547t296 141q168 0 280.5 -118.5t112.5 -299.5q0 -219 -194 -347t-529 -128h-331q-168 0 -246 84q-78 -84 -246 -84h-4v195h12q152 0 152 204v101h174v-101q0 -159 88 -194zM596 395h229q252 0 400.5 73.5t148.5 202.5q0 92 -66 160.5t-153 68.5
q-201 0 -559 -505zM575 1093h-178v178h178v-178z" />
    <glyph glyph-name="uniFEC0" unicode="&#x636;" horiz-adv-x="1673" arabic-form="medial" 
d="M1675 200h-65q-198 0 -271 117v2q-198 -119 -514 -119h-331q-168 0 -246 84q-78 -84 -246 -84h-4v195h12q152 0 152 204v101h174v-101q0 -159 88 -194q267 406 435 547t296 141q168 0 280.5 -118.5t112.5 -299.5q0 -124 -65 -221q35 -59 119 -59h73v-195zM596 395h229
q252 0 400.5 73.5t148.5 202.5q0 92 -66 160.5t-153 68.5q-201 0 -559 -505zM575 1093h-178v178h178v-178z" />
    <glyph glyph-name="uniFEC1" unicode="&#x637;" horiz-adv-x="1726" arabic-form="isolated" 
d="M561 530q377 563 647 563q168 0 281 -118.5t113 -299.5q0 -221 -195.5 -348t-527.5 -127h-758v195h266v1210h174v-1075zM649 395h230q251 0 399.5 73.5t148.5 202.5q0 92 -65.5 160.5t-153.5 68.5q-201 0 -559 -505z" />
    <glyph glyph-name="uniFEC2" unicode="&#x637;" horiz-adv-x="1726" arabic-form="final" 
d="M1728 200h-66q-198 0 -270 117q-195 -117 -514 -117h-758v195h266v1210h174v-1075q377 563 647 563q168 0 281 -118.5t113 -299.5q0 -124 -66 -221q35 -59 119 -59h74v-195zM648 395h230q251 0 399.5 73.5t148.5 202.5q0 92 -65.5 160.5t-153.5 68.5q-201 0 -559 -505z
" />
    <glyph glyph-name="uniFEC3" unicode="&#x637;" horiz-adv-x="1501" arabic-form="initial" 
d="M336 530q376 563 647 563q168 0 280.5 -118.5t112.5 -299.5q0 -219 -194 -347t-529 -128h-655v195h164v1210h174v-1075zM424 395h229q252 0 400.5 73.5t148.5 202.5q0 92 -65.5 160.5t-153.5 68.5q-201 0 -559 -505z" />
    <glyph glyph-name="uniFEC4" unicode="&#x637;" horiz-adv-x="1501" arabic-form="medial" 
d="M1503 200h-65q-198 0 -271 117q-194 -117 -514 -117h-655v195h164v1210h174v-1075q376 563 647 563q168 0 280.5 -118.5t112.5 -299.5q0 -124 -65 -221q35 -59 119 -59h73v-195zM424 395h229q252 0 400.5 73.5t148.5 202.5q0 92 -65.5 160.5t-153.5 68.5
q-201 0 -559 -505z" />
    <glyph glyph-name="uniFEC6" unicode="&#x638;" horiz-adv-x="1726" arabic-form="final" 
d="M1728 200h-66q-198 0 -270 117q-195 -117 -514 -117h-758v195h266v1210h174v-1075q377 563 647 563q168 0 281 -118.5t113 -299.5q0 -124 -66 -221q35 -59 119 -59h74v-195zM648 395h230q251 0 399.5 73.5t148.5 202.5q0 92 -65.5 160.5t-153.5 68.5q-201 0 -559 -505z
M965 1216h-178v178h178v-178z" />
    <glyph glyph-name="uniFEC7" unicode="&#x638;" horiz-adv-x="1501" arabic-form="initial" 
d="M336 530q376 563 647 563q168 0 280.5 -118.5t112.5 -299.5q0 -219 -194 -347t-529 -128h-655v195h164v1210h174v-1075zM424 395h229q252 0 400.5 73.5t148.5 202.5q0 92 -65.5 160.5t-153.5 68.5q-201 0 -559 -505zM741 1216h-178v178h178v-178z" />
    <glyph glyph-name="uniFEC8" unicode="&#x638;" horiz-adv-x="1501" arabic-form="medial" 
d="M1503 200h-65q-198 0 -271 117q-194 -117 -514 -117h-655v195h164v1210h174v-1075q376 563 647 563q168 0 280.5 -118.5t112.5 -299.5q0 -124 -65 -221q35 -59 119 -59h73v-195zM424 395h229q252 0 400.5 73.5t148.5 202.5q0 92 -65.5 160.5t-153.5 68.5
q-201 0 -559 -505zM741 1216h-178v178h178v-178z" />
    <glyph glyph-name="uniFEC9" unicode="&#x639;" horiz-adv-x="1217" arabic-form="isolated" 
d="M1157 -278q-222 -70 -444 -70q-271 0 -437.5 137t-166.5 355q0 140 76 249.5t214 166.5q-182 111 -182 293q0 138 104 246.5t271 108.5q313 0 377 -279l-174 -18q-34 102 -203 102q-87 0 -144 -45t-57 -115q0 -138 176 -229l361 61l39 -161l-317 -55q-163 -29 -233 -79.5
t-102 -113.5t-32 -134q0 -127 121.5 -211t306.5 -84q174 0 415 61z" />
    <glyph glyph-name="uniFECA" unicode="&#x639;" horiz-adv-x="1139" arabic-form="final" 
d="M1161 -278q-222 -70 -444 -70q-276 0 -440 125.5t-164 337.5q0 235 237 386q-225 104 -225 301q0 166 113 286t313 120q220 0 332 -111l-125 -141q-65 57 -207 57q-110 0 -181 -63.5t-71 -147.5q0 -164 207 -215l434 178v-194q-62 -31 -111 -47q36 -51 116 -90t140 -39
h56v-195h-51q-100 0 -210.5 76t-185.5 196q-159 -60 -205 -82.5t-99.5 -63t-78 -94t-24.5 -115.5q0 -132 110 -201t318 -69q174 0 415 61z" />
    <glyph glyph-name="uniFECB" unicode="&#x639;" horiz-adv-x="1200" arabic-form="initial" 
d="M1073 405q-276 -91 -577 -148t-498 -57v195q135 0 346 28q-93 55 -150 154.5t-57 204.5q0 191 122.5 308.5t322.5 117.5q377 0 444 -328l-180 -23q-36 156 -264 156q-120 0 -195.5 -63.5t-75.5 -167.5q0 -102 66 -189.5t178 -132.5q212 44 518 139v-194z" />
    <glyph glyph-name="uniFECC" unicode="&#x639;" horiz-adv-x="1135" arabic-form="medial" 
d="M1137 200h-52q-114 0 -213 55t-161 158q-464 -213 -713 -213v195q141 0 336 63q-213 131 -213 324q0 195 115 310.5t311 115.5q219 0 332 -111l-125 -141q-65 57 -207 57q-114 0 -183 -62.5t-69 -168.5q0 -82 64 -148t165 -98q199 71 432 188v-194q-59 -31 -110 -51
q60 -84 235 -84h56v-195z" />
    <glyph glyph-name="uniFECD" unicode="&#x63a;" horiz-adv-x="1217" arabic-form="isolated" 
d="M1157 -278q-222 -70 -444 -70q-271 0 -437.5 137t-166.5 355q0 140 76 249.5t214 166.5q-182 111 -182 293q0 138 104 246.5t271 108.5q313 0 377 -279l-174 -18q-34 102 -203 102q-87 0 -144 -45t-57 -115q0 -138 176 -229l361 61l39 -161l-317 -55q-163 -29 -233 -79.5
t-102 -113.5t-32 -134q0 -127 121.5 -211t306.5 -84q174 0 415 61zM635 1507h-178v178h178v-178z" />
    <glyph glyph-name="uniFECE" unicode="&#x63a;" horiz-adv-x="1139" arabic-form="final" 
d="M1161 -278q-222 -70 -444 -70q-276 0 -440 125.5t-164 337.5q0 235 237 386q-225 104 -225 301q0 166 113 286t313 120q220 0 332 -111l-125 -141q-65 57 -207 57q-110 0 -181 -63.5t-71 -147.5q0 -164 207 -215l434 178v-194q-62 -31 -111 -47q36 -51 116 -90t140 -39
h56v-195h-51q-100 0 -210.5 76t-185.5 196q-159 -60 -205 -82.5t-99.5 -63t-78 -94t-24.5 -115.5q0 -132 110 -201t318 -69q174 0 415 61zM635 1507h-178v178h178v-178z" />
    <glyph glyph-name="uniFECF" unicode="&#x63a;" horiz-adv-x="1200" arabic-form="initial" 
d="M1073 405q-276 -91 -577 -148t-498 -57v195q135 0 346 28q-93 55 -150 154.5t-57 204.5q0 191 122.5 308.5t322.5 117.5q377 0 444 -328l-180 -23q-36 156 -264 156q-120 0 -195.5 -63.5t-75.5 -167.5q0 -102 66 -189.5t178 -132.5q212 44 518 139v-194zM624 1488h-178
v178h178v-178z" />
    <glyph glyph-name="uniFED0" unicode="&#x63a;" horiz-adv-x="1135" arabic-form="medial" 
d="M1137 200h-52q-114 0 -213 55t-161 158q-464 -213 -713 -213v195q141 0 336 63q-213 131 -213 324q0 195 115 310.5t311 115.5q219 0 332 -111l-125 -141q-65 57 -207 57q-114 0 -183 -62.5t-69 -168.5q0 -82 64 -148t165 -98q199 71 432 188v-194q-59 -31 -110 -51
q60 -84 235 -84h56v-195zM624 1488h-178v178h178v-178z" />
    <glyph glyph-name="uniFED1" unicode="&#x641;" horiz-adv-x="1960" arabic-form="isolated" 
d="M1628 626q-74 -23 -110 -23q-159 0 -266 95.5t-107 275.5q0 149 98 257t219 108q141 0 256 -158.5t115 -392.5q0 -302 -248.5 -445t-785.5 -143q-331 0 -501.5 118t-170.5 349q0 124 43 268l164 -41q-33 -118 -33 -225q0 -133 127.5 -203.5t372.5 -70.5q376 0 571 53.5
t256 177.5zM1655 821q0 119 -59 221t-134 102q-60 0 -101.5 -48t-41.5 -122q0 -79 52.5 -127.5t135.5 -48.5q67 0 148 23zM1485 1605h-178v178h178v-178z" />
    <glyph glyph-name="uniFED2" unicode="&#x641;" horiz-adv-x="1849" arabic-form="final" 
d="M1851 200h-16q-131 0 -270.5 25t-225.5 67q-349 -160 -649 -160q-294 0 -428.5 112.5t-134.5 361.5q0 123 43 268l164 -41q-33 -119 -33 -225q0 -159 95 -220t296 -61q196 0 465 84q-61 41 -102 113.5t-41 142.5q0 142 95.5 240t248.5 98q150 0 247 -98t97 -240
t-152 -246q130 -26 281 -26h20v-195zM1358 479q170 73 170 188q0 59 -48.5 101t-121.5 42q-78 0 -124 -41t-46 -102q0 -111 170 -188zM1440 1271h-178v178h178v-178z" />
    <glyph glyph-name="uniFED3" unicode="&#x641;" horiz-adv-x="954" arabic-form="initial" 
d="M623 626q-75 -23 -111 -23q-159 0 -266 95.5t-107 275.5q0 149 98.5 257t219.5 108q141 0 255.5 -158.5t114.5 -392.5q0 -277 -219.5 -432.5t-609.5 -155.5v195q268 0 412.5 54t212.5 177zM649 821q0 119 -59 221t-133 102q-61 0 -102.5 -48t-41.5 -122q0 -80 53 -128
t136 -48q66 0 147 23zM502 1605h-178v178h178v-178z" />
    <glyph glyph-name="uniFED4" unicode="&#x641;" horiz-adv-x="983" arabic-form="medial" 
d="M985 200h-12q-116 0 -253.5 29.5t-227.5 76.5q-91 -47 -228.5 -76.5t-253.5 -29.5h-12v195h16q122 0 285 30q-68 37 -110 103.5t-42 138.5q0 140 96 239t249 99q150 0 247 -98t97 -240q0 -72 -41.5 -137.5t-110.5 -104.5q134 -30 285 -30h16v-195zM492 483
q170 70 170 184q0 59 -49 101t-121 42q-80 0 -125 -40t-45 -103q0 -108 170 -184zM579 1271h-178v178h178v-178z" />
    <glyph glyph-name="uniFED5" unicode="&#x642;" horiz-adv-x="1638" arabic-form="isolated" 
d="M1321 413q-44 -14 -109 -14q-157 0 -281 101.5t-124 285.5q0 165 101 277t233 112q142 0 256 -170.5t114 -429.5q0 -340 -251.5 -576.5t-655.5 -236.5q-253 0 -393.5 125t-140.5 350q0 131 43 264l163 -41q-32 -107 -32 -221q0 -125 91.5 -204t270.5 -79q270 0 463.5 130
t251.5 327zM1348 612q-8 141 -68 254.5t-129 113.5q-62 0 -111 -56.5t-49 -137.5t64 -137t157 -56q77 0 136 19zM1342 1441h-147v147h147v-147zM1074 1441h-148v147h148v-147z" />
    <glyph glyph-name="uniFED6" unicode="&#x642;" horiz-adv-x="1686" arabic-form="final" 
d="M1688 200h-195q-78 -261 -313.5 -404.5t-565.5 -143.5q-254 0 -394 120t-140 344q0 124 43 268l164 -41q-33 -118 -33 -225q0 -129 94.5 -200t267.5 -71q501 0 695 353h-86q-389 0 -389 328q0 170 107.5 306t234.5 136q146 0 246 -148t100 -403v-24h164v-195zM1350 395
q0 133 -51 256.5t-121 123.5q-58 0 -113 -80.5t-55 -166.5q0 -69 45 -101t159 -32h136zM1333 1193h-147v148h147v-148zM1065 1193h-147v148h147v-148z" />
    <glyph glyph-name="uniFED7" unicode="&#x642;" horiz-adv-x="954" arabic-form="initial" 
d="M623 626q-75 -23 -111 -23q-159 0 -266 95.5t-107 275.5q0 149 98.5 257t219.5 108q141 0 255.5 -158.5t114.5 -392.5q0 -277 -219.5 -432.5t-609.5 -155.5v195q268 0 412.5 54t212.5 177zM649 821q0 119 -59 221t-133 102q-61 0 -102.5 -48t-41.5 -122q0 -80 53 -128
t136 -48q66 0 147 23zM621 1605h-147v147h147v-147zM353 1605h-148v147h148v-147z" />
    <glyph glyph-name="uniFED8" unicode="&#x642;" horiz-adv-x="983" arabic-form="medial" 
d="M985 200h-12q-116 0 -253.5 29.5t-227.5 76.5q-91 -47 -228.5 -76.5t-253.5 -29.5h-12v195h16q122 0 285 30q-68 37 -110 103.5t-42 138.5q0 140 96 239t249 99q150 0 247 -98t97 -240q0 -72 -41.5 -137.5t-110.5 -104.5q134 -30 285 -30h16v-195zM492 483
q170 70 170 184q0 59 -49 101t-121 42q-80 0 -125 -40t-45 -103q0 -108 170 -184zM699 1271h-147v147h147v-147zM431 1271h-148v147h148v-147z" />
    <glyph glyph-name="uniFED9" unicode="&#x643;" horiz-adv-x="1550" arabic-form="isolated" 
d="M1411 849q0 -315 -176.5 -482t-513.5 -167h-51q-256 0 -399.5 105.5t-143.5 300.5q0 89 23 202l163 -41q-12 -72 -12 -159q0 -108 103.5 -160.5t267.5 -52.5h43q256 0 389 114t133 334v823h174v-817zM860 1226q-54 -10 -91.5 -30.5t-37.5 -43.5q0 -22 70 -55
q77 -36 99 -64t22 -59q0 -87 -88 -140t-244 -63v80q117 5 186.5 36.5t69.5 80.5q0 30 -79 68q-72 34 -92 59t-20 53q0 60 56 102t149 56v-80z" />
    <glyph glyph-name="uniFEDA" unicode="&#x643;" horiz-adv-x="1501" arabic-form="final" 
d="M1503 200h-4q-248 0 -309 195q-179 -195 -578 -195q-255 0 -398.5 105.5t-143.5 300.5q0 89 22 202l164 -41q-12 -72 -12 -159q0 -103 96 -158t274 -55q279 0 415 109.5t136 338.5v823h174v-1067q0 -204 152 -204h12v-195zM795 1226q-54 -10 -91.5 -30.5t-37.5 -43.5
q0 -22 70 -55q76 -36 98 -64t22 -59q0 -87 -87.5 -140t-244.5 -63v80q117 5 186.5 36.5t69.5 80.5q0 30 -79 68q-71 34 -91 59t-20 53q0 60 56 102t149 56v-80z" />
    <glyph glyph-name="uniFEDB" unicode="&#x643;" horiz-adv-x="885" arabic-form="initial" 
d="M885 1478l-366 -149q-169 -68 -207 -87t-57 -36.5t-19 -34.5q0 -45 83 -148l181 -216q57 -68 83.5 -131.5t26.5 -127.5q0 -166 -116.5 -257t-315.5 -91h-180v195h182q118 0 187 43.5t69 115.5q0 79 -90 189l-184 220q-54 65 -77.5 113.5t-23.5 100.5q0 81 66 141t196 115
l562 235v-190z" />
    <glyph glyph-name="uniFEDC" unicode="&#x643;" horiz-adv-x="1124" arabic-form="medial" 
d="M1122 200h-65q-100 0 -221 63.5t-240 180.5q-34 -119 -145 -181.5t-273 -62.5h-180v195h182q118 0 187 43.5t69 115.5q0 79 -90 189l-184 220q-54 65 -77.5 113.5t-23.5 100.5q0 81 66 141t196 115l562 235v-190l-366 -149q-169 -68 -207 -87t-57 -36.5t-19 -34.5
q0 -44 55 -113l240 -287q183 -218 302 -297t220 -79h69v-195z" />
    <glyph glyph-name="uniFEDD" unicode="&#x644;" horiz-adv-x="1356" arabic-form="isolated" 
d="M1217 601q0 -358 -164.5 -503.5t-501.5 -145.5q-481 0 -481 406q0 89 22 202l164 -41q-12 -71 -12 -159q0 -115 74 -164t235 -49q254 0 371.5 95t117.5 353v1071h175v-1065z" />
    <glyph glyph-name="uniFEDE" unicode="&#x644;" horiz-adv-x="1378" arabic-form="final" 
d="M1380 200h-4q-102 0 -168 29q-27 -257 -187 -376.5t-470 -119.5q-481 0 -481 406q0 89 22 202l164 -41q-12 -72 -12 -159q0 -110 70.5 -161.5t238.5 -51.5q254 0 371.5 95t117.5 353v1290h175v-1067q0 -204 151 -204h12v-195z" />
    <glyph glyph-name="uniFEDF" unicode="&#x644;" horiz-adv-x="559" arabic-form="initial" 
d="M397 595q0 -195 -101.5 -295t-293.5 -100h-4v195h74q151 0 151 204v1067h174v-1071z" />
    <glyph glyph-name="uniFEE0" unicode="&#x644;" horiz-adv-x="498" arabic-form="medial" 
d="M500 200h-4q-170 0 -248 84q-78 -84 -246 -84h-4v195h12q152 0 152 204v1067h174v-1067q0 -204 151 -204h13v-195z" />
    <glyph glyph-name="uniFEE1" unicode="&#x645;" horiz-adv-x="1206" arabic-form="isolated" 
d="M119 -343v400q0 153 39.5 219t144.5 106q69 27 94 119q65 235 150.5 334.5t214.5 99.5q134 0 225.5 -107.5t91.5 -256.5q0 -180 -106.5 -275.5t-265.5 -95.5q-124 0 -215 80q-33 -38 -116 -70q-41 -16 -56 -39t-21 -58.5t-6 -84.5v-371h-174zM563 452q81 -57 154 -57
q83 0 135.5 48.5t52.5 127.5q0 73 -41 121.5t-102 48.5q-125 0 -199 -289z" />
    <glyph glyph-name="uniFEE2" unicode="&#x645;" horiz-adv-x="1311" arabic-form="final" 
d="M1313 200h-15q-90 0 -165.5 41.5t-110.5 112.5q-49 -77 -134 -115.5t-181 -38.5q-146 0 -211 55q-25 -29 -92 -50q-52 -16 -72 -34.5t-29.5 -54.5t-9.5 -88v-371h-174v385q0 160 41.5 230.5t142.5 109.5q72 28 86 86q59 245 148 356t225 111q100 0 187 -75t118 -193
q72 -272 231 -272h15v-195zM561 429q83 -34 156 -34q83 0 135.5 48.5t52.5 127.5q0 73 -41 121.5t-102 48.5q-65 0 -119 -84.5t-82 -227.5z" />
    <glyph glyph-name="uniFEE3" unicode="&#x645;" horiz-adv-x="985" arabic-form="initial" 
d="M-2 395h43q56 0 90 31.5t55 107.5q61 214 144.5 307.5t210.5 93.5q131 0 224 -105.5t93 -258.5q0 -180 -107 -275.5t-266 -95.5q-135 0 -215 82q-61 -82 -219 -82h-53v195zM342 452q77 -57 154 -57q83 0 135.5 48.5t52.5 127.5q0 73 -41.5 121.5t-101.5 48.5
q-126 0 -199 -289z" />
    <glyph glyph-name="uniFEE4" unicode="&#x645;" horiz-adv-x="1090" arabic-form="medial" 
d="M1092 200h-15q-91 0 -166 41.5t-110 112.5q-49 -77 -134 -115.5t-182 -38.5q-132 0 -215 82q-61 -82 -225 -82h-47v195h43q56 0 90 31.5t55 107.5q61 214 144.5 307.5t210.5 93.5q110 0 191 -72t114 -196q72 -272 231 -272h15v-195zM342 452q77 -57 154 -57
q83 0 135.5 48.5t52.5 127.5q0 73 -41.5 121.5t-101.5 48.5q-124 0 -199 -289z" />
    <glyph glyph-name="uniFEE5" unicode="&#x646;" horiz-adv-x="1417" arabic-form="isolated" 
d="M1262 757q28 -174 28 -317q0 -223 -157 -355.5t-426 -132.5q-267 0 -423.5 133t-156.5 355q0 143 29 317l163 -41q-18 -141 -18 -274q0 -142 104.5 -218.5t303.5 -76.5t303 76.5t104 218.5q0 133 -18 274zM803 961h-178v178h178v-178z" />
    <glyph glyph-name="uniFEE6" unicode="&#x646;" horiz-adv-x="1481" arabic-form="final" 
d="M1483 200h-15q-85 0 -141 47q-8 -237 -171 -375.5t-464 -138.5q-285 0 -448.5 128.5t-163.5 356.5q0 147 43 357l164 -41q-33 -184 -33 -314t111.5 -211t326.5 -81q461 0 461 422q0 36 -8 182l170 43q25 -180 153 -180h15v-195zM799 753h-178v178h178v-178z" />
    <glyph glyph-name="uniFEE7" unicode="&#x646;" horiz-adv-x="565" arabic-form="initial" 
d="M397 595q0 -215 -82 -305t-252 -90h-65v195h74q151 0 151 204v183h174v-187zM340 1050h-178v178h178v-178z" />
    <glyph glyph-name="uniFEE8" unicode="&#x646;" horiz-adv-x="498" arabic-form="medial" 
d="M500 200h-4q-170 0 -248 84q-78 -84 -246 -84h-4v195h12q152 0 152 204v183h174v-183q0 -204 151 -204h13v-195zM340 1050h-178v178h178v-178z" />
    <glyph glyph-name="uniFEE9" unicode="&#x647;" horiz-adv-x="1053" arabic-form="isolated" 
d="M526 1083q400 -200 400 -504q0 -191 -107 -291t-293 -100q-181 0 -290 104t-109 287q0 150 102.5 281.5t296.5 222.5zM752 579q0 96 -65 187.5t-161 144.5q-96 -57 -160.5 -147.5t-64.5 -184.5q0 -197 225 -197q105 0 165.5 50.5t60.5 146.5z" />
    <glyph glyph-name="uniFEEA" unicode="&#x647;" horiz-adv-x="977" arabic-form="final" 
d="M979 200h-4q-145 0 -222.5 63t-105.5 191q-28 -53 -100 -91t-150 -38q-116 0 -193 74t-77 202q0 139 110.5 253t331.5 175l-10 84h174l43 -358q22 -187 31 -224.5t31 -70.5t54 -49t75 -16h12v-195zM586 886q-267 -76 -267 -280q0 -40 31 -64.5t72 -24.5q57 0 122.5 52
t65.5 110q0 13 -24 207z" />
    <glyph glyph-name="uniFEEB" unicode="&#x647;" horiz-adv-x="1405" arabic-form="initial" 
d="M199 1388q133 26 307 26q334 0 553 -173t219 -441q0 -218 -160 -364t-395 -146q-102 0 -199 23q-246 -113 -514 -113h-12v195h16q151 0 277 22q-144 109 -144 262q0 132 96.5 229t248.5 97q151 0 247.5 -95.5t96.5 -236.5q0 -112 -91 -209q170 6 264.5 97t94.5 235
q0 190 -164 307t-434 117q-102 0 -252 -27zM518 489q144 77 144 184q0 58 -48.5 97.5t-121.5 39.5q-78 0 -124 -38.5t-46 -92.5q0 -131 196 -190z" />
    <glyph glyph-name="uniFEEC" unicode="&#x647;" horiz-adv-x="829" arabic-form="medial" 
d="M831 200h-333q107 -31 177 -115t70 -159q0 -126 -67 -200t-176 -74q-128 0 -260.5 171.5t-132.5 380.5q-45 -4 -72 -4h-39v195h33q34 0 92 2q47 266 171.5 419.5t213.5 153.5q92 0 175 -98.5t83 -222.5q0 -82 -72.5 -155.5t-191.5 -98.5h329v-195zM301 405
q125 24 215 96.5t90 147.5q0 50 -34 88t-64 38q-44 0 -111 -102t-96 -268zM586 -74q0 71 -87 158.5t-216 119.5v-14q0 -112 73.5 -227.5t145.5 -115.5q84 0 84 79z" />
    <glyph glyph-name="uniFEED" unicode="&#x648;" horiz-adv-x="963" arabic-form="isolated" 
d="M641 413q-55 -14 -104 -14q-157 0 -281.5 101.5t-124.5 285.5q0 165 101 277t233 112q142 0 256.5 -170.5t114.5 -429.5q0 -206 -118 -394.5t-318.5 -299.5t-424.5 -111q-70 0 -196 14l37 197q89 -17 161 -17q242 0 425 130t239 319zM662 608q-8 142 -68 257t-129 115
q-62 0 -111 -56.5t-49 -137.5t64 -137t157 -56q82 0 136 15z" />
    <glyph glyph-name="uniFEEE" unicode="&#x648;" horiz-adv-x="954" arabic-form="final" 
d="M956 200h-170q-60 -213 -270 -321.5t-547 -108.5q-70 0 -196 14l37 197q89 -17 161 -17q283 0 430 56t193 180h-84q-157 0 -281.5 102t-124.5 285q0 165 101 277t233 112q136 0 249.5 -158.5t121.5 -422.5h147v-195zM635 395q0 155 -58.5 271t-138.5 116
q-62 0 -110.5 -57t-48.5 -138t63.5 -136.5t157.5 -55.5h135z" />
    <glyph glyph-name="uniFEEF" unicode="&#x649;" horiz-adv-x="1497" arabic-form="isolated" 
d="M1391 849l-174 -18q-34 102 -203 102q-77 0 -131 -33.5t-54 -87.5q0 -31 34.5 -65t174.5 -103q211 -105 271.5 -178t60.5 -151q0 -153 -163.5 -258t-499.5 -105q-294 0 -467.5 105.5t-173.5 304.5q0 99 47 235l159 -41q-32 -106 -32 -192q0 -110 106 -163.5t363 -53.5
q241 0 364 48.5t123 123.5q0 38 -38 77t-190 115q-201 100 -257 166t-56 135q0 118 101.5 217t257.5 99q313 0 377 -279z" />
    <glyph glyph-name="uniFEF0" unicode="&#x649;" horiz-adv-x="1624" arabic-form="final" 
d="M1626 205h-6q-43 0 -127 34q-71 29 -102 29q-23 0 -37.5 -12t-14.5 -28q0 -18 49 -87q70 -101 70 -139q0 -125 -215.5 -237.5t-531.5 -112.5q-294 0 -467.5 105.5t-173.5 304.5q0 99 47 235l159 -41q-32 -107 -32 -192q0 -110 106 -163.5t363 -53.5q247 0 409 56t162 124
q0 18 -45 85q-74 109 -74 156q0 77 66 136t160 59q40 0 132 -35q71 -28 97 -28h6v-195z" />
    <glyph glyph-name="uniFEF1" unicode="&#x64a;" horiz-adv-x="1497" arabic-form="isolated" 
d="M1391 849l-174 -18q-34 102 -203 102q-77 0 -131 -33.5t-54 -87.5q0 -31 34.5 -65t174.5 -103q211 -105 271.5 -178t60.5 -151q0 -153 -163.5 -258t-499.5 -105q-294 0 -467.5 105.5t-173.5 304.5q0 99 47 235l159 -41q-32 -106 -32 -192q0 -110 106 -163.5t363 -53.5
q241 0 364 48.5t123 123.5q0 38 -38 77t-190 115q-201 100 -257 166t-56 135q0 118 101.5 217t257.5 99q313 0 377 -279zM1012 -285h-147v147h147v-147zM744 -285h-148v147h148v-147z" />
    <glyph glyph-name="uniFEF2" unicode="&#x64a;" horiz-adv-x="1645" arabic-form="final" 
d="M1647 200h-7q-49 0 -152 89q-73 62 -110 62q-21 0 -30 -9.5t-9 -24.5q0 -21 45 -68q65 -64 65 -124q0 -124 -191.5 -191.5t-551.5 -67.5q-309 0 -472.5 84.5t-163.5 278.5q0 99 47 216l159 -41q-32 -85 -32 -158q0 -94 106 -140t368 -46q280 0 413 26.5t133 64.5
q0 30 -41 69q-68 66 -68 135q0 72 51.5 120.5t139.5 48.5q90 0 188 -78q65 -51 106 -51h7v-195zM951 -348h-127v127h127v-127zM704 -348h-127v127h127v-127z" />
    <glyph glyph-name="uniFEF3" unicode="&#x64a;" horiz-adv-x="559" arabic-form="initial" 
d="M397 595q0 -215 -82 -305t-252 -90h-65v195h74q151 0 151 204v183h174v-187zM447 -85h-147v147h147v-147zM179 -85h-148v147h148v-147z" />
    <glyph glyph-name="uniFEF4" unicode="&#x64a;" horiz-adv-x="498" arabic-form="medial" 
d="M500 200h-4q-170 0 -248 84q-78 -84 -246 -84h-4v195h12q152 0 152 204v183h174v-183q0 -204 151 -204h13v-195zM459 -85h-147v147h147v-147zM191 -85h-148v147h148v-147z" />
    <glyph glyph-name="uniFEF5" unicode="&#xfef5;" horiz-adv-x="1128" arabic-form="isolated" 
d="M971 902q0 -702 -664 -702q-68 0 -170 14l39 195q76 -14 131 -14q177 0 289 55l-580 1071l152 76l557 -1035q72 102 72 281v823h174v-764zM553 1829q-71 -86 -166 -86q-36 0 -135 32q-96 31 -129 31q-64 0 -119 -59l-51 55q70 84 164 84q37 0 137 -32q95 -31 129 -31
q72 0 119 61z" />
    <glyph glyph-name="uniFEF6" unicode="&#xfef6;" horiz-adv-x="1235" arabic-form="final" 
d="M1237 200h-49q-107 0 -198 63t-130 166q-74 -111 -186.5 -170t-241.5 -59q-150 0 -307 61l41 189q55 -24 135.5 -39.5t130.5 -15.5q97 0 164 55l-580 1071l152 76l557 -1035q72 102 72 281v823h174v-888q0 -175 54 -279t159 -104h53v-195zM555 1829q-71 -86 -166 -86
q-36 0 -135 32q-96 31 -129 31q-64 0 -119 -59l-51 55q70 84 164 84q37 0 137 -32q95 -31 129 -31q72 0 119 61z" />
    <glyph glyph-name="uniFEF7" unicode="&#xfef7;" horiz-adv-x="1128" arabic-form="isolated" 
d="M971 902q0 -702 -664 -702q-68 0 -170 14l39 195q76 -14 131 -14q177 0 289 55l-580 1071l152 76l557 -1035q72 102 72 281v823h174v-764zM385 1617l-272 -49v72l59 10q-78 33 -78 109q0 58 37 92.5t98 34.5q122 0 146 -109l-72 -6q-13 37 -72 37q-65 0 -65 -49
q0 -37 38.5 -60.5t96.5 -23.5l84 14v-72z" />
    <glyph glyph-name="uniFEF8" unicode="&#xfef8;" horiz-adv-x="1235" arabic-form="final" 
d="M1237 200h-49q-107 0 -198 63t-130 166q-74 -111 -186.5 -170t-241.5 -59q-150 0 -307 61l41 189q55 -24 135.5 -39.5t130.5 -15.5q97 0 164 55l-580 1071l152 76l557 -1035q72 102 72 281v823h174v-888q0 -175 54 -279t159 -104h53v-195zM385 1617l-272 -49v72l59 10
q-78 33 -78 109q0 58 37 92.5t98 34.5q122 0 146 -109l-72 -6q-13 37 -72 37q-65 0 -65 -49q0 -37 38.5 -60.5t96.5 -23.5l84 14v-72z" />
    <glyph glyph-name="uniFEF9" unicode="&#xfef9;" horiz-adv-x="1128" arabic-form="isolated" 
d="M971 902q0 -702 -664 -702q-68 0 -170 14l39 195q76 -14 131 -14q177 0 289 55l-580 1071l152 76l557 -1035q72 102 72 281v823h174v-764zM429 -207l-272 -49v72l59 10q-78 33 -78 109q0 58 37 92.5t98 34.5q122 0 146 -109l-72 -6q-13 37 -72 37q-65 0 -65 -49
q0 -37 38.5 -60.5t96.5 -23.5l84 14v-72z" />
    <glyph glyph-name="uniFEFA" unicode="&#xfefa;" horiz-adv-x="1235" arabic-form="final" 
d="M1237 200h-49q-107 0 -198 63t-130 166q-74 -111 -186.5 -170t-241.5 -59q-150 0 -307 61l41 189q55 -24 135.5 -39.5t130.5 -15.5q97 0 164 55l-580 1071l152 76l557 -1035q72 102 72 281v823h174v-888q0 -175 54 -279t159 -104h53v-195zM446 -208l-272 -49v72l59 10
q-78 33 -78 109q0 58 37 92.5t98 34.5q122 0 146 -109l-72 -6q-13 37 -72 37q-65 0 -65 -49q0 -37 38.5 -60.5t96.5 -23.5l84 14v-72z" />
    <glyph glyph-name="uniFEFB" unicode="&#xfefb;" horiz-adv-x="1128" arabic-form="isolated" 
d="M971 902q0 -702 -664 -702q-68 0 -170 14l39 195q76 -14 131 -14q177 0 289 55l-580 1071l152 76l557 -1035q72 102 72 281v823h174v-764z" />
    <glyph glyph-name="uniFEFC" unicode="&#xfefc;" horiz-adv-x="1235" arabic-form="final" 
d="M1237 200h-49q-107 0 -198 63t-130 166q-74 -111 -186.5 -170t-241.5 -59q-150 0 -307 61l41 189q55 -24 135.5 -39.5t130.5 -15.5q97 0 164 55l-580 1071l152 76l557 -1035q72 102 72 281v823h174v-888q0 -175 54 -279t159 -104h53v-195z" />
    <glyph glyph-name="uniFB66" unicode="&#x679;" horiz-adv-x="1579" arabic-form="isolated" 
d="M1444 702q8 -45 8 -111q0 -212 -192 -352.5t-521 -140.5q-294 0 -453 113.5t-159 320.5q0 119 39 211l164 -41q-29 -77 -29 -168q0 -242 438 -242q236 0 387.5 94.5t151.5 245.5q0 44 -8 70h174zM777 912h-207v72h64v293h67v-227q80 114 166 114q54 0 86.5 -32t32.5 -87
q0 -61 -55 -97t-154 -36zM867 1095q-32 0 -64 -23t-85 -88h59q67 0 104 17t37 44q0 19 -15 34.5t-36 15.5z" />
    <glyph glyph-name="uniFB67" unicode="&#x679;" horiz-adv-x="1614" arabic-form="final" 
d="M1616 200h-4q-195 0 -273 150q-175 -252 -600 -252q-294 0 -453 113.5t-159 320.5q0 119 39 211l164 -41q-29 -77 -29 -168q0 -242 438 -242q236 0 387.5 94.5t151.5 245.5q0 43 -6 70h174q6 -48 6 -111q0 -196 152 -196h12v-195zM807 912h-207v72h64v293h67v-227
q80 114 166 114q54 0 86.5 -32t32.5 -87q0 -61 -55 -97t-154 -36zM897 1095q-32 0 -64 -23t-85 -88h59q67 0 104 17t37 44q0 19 -15 34.5t-36 15.5z" />
    <glyph glyph-name="uniFB68" unicode="&#x679;" horiz-adv-x="565" arabic-form="initial" 
d="M397 595q0 -215 -82 -305t-252 -90h-65v195h74q151 0 151 204v183h174v-187zM297 912h-207v72h64v293h67v-227q80 114 166 114q54 0 86.5 -32t32.5 -87q0 -61 -55 -97t-154 -36zM387 1095q-32 0 -64 -23t-85 -88h59q67 0 104 17t37 44q0 19 -15 34.5t-36 15.5z" />
    <glyph glyph-name="uniFB69" unicode="&#x679;" horiz-adv-x="498" arabic-form="medial" 
d="M500 200h-4q-170 0 -248 84q-78 -84 -246 -84h-4v195h12q152 0 152 204v183h174v-183q0 -204 151 -204h13v-195zM237 912h-207v72h64v293h67v-227q80 114 166 114q54 0 86.5 -32t32.5 -87q0 -61 -55 -97t-154 -36zM327 1095q-32 0 -64 -23t-85 -88h59q67 0 104 17t37 44
q0 19 -15 34.5t-36 15.5z" />
    <glyph glyph-name="uniFB88" unicode="&#x688;" horiz-adv-x="881" arabic-form="isolated" 
d="M461 1095q293 -364 293 -502q0 -185 -158.5 -289t-456.5 -104h-61v195h57q445 0 445 198q0 128 -330 502h211zM327 1242h-207v72h64v293h67v-227q80 114 166 114q54 0 86.5 -32t32.5 -87q0 -61 -55 -97t-154 -36zM417 1425q-32 0 -64 -23t-85 -88h59q67 0 104 17t37 44
q0 19 -15 34.5t-36 15.5z" />
    <glyph glyph-name="uniFB89" unicode="&#x688;" horiz-adv-x="938" arabic-form="final" 
d="M940 200h-4q-215 0 -287 147q-155 -147 -510 -147h-61v195h57q445 0 445 198q0 65 -39.5 169.5t-169.5 330.5h209q132 -280 174 -469q28 -132 68.5 -180.5t105.5 -48.5h12v-195zM447 1242h-207v72h64v293h67v-227q80 114 166 114q54 0 86.5 -32t32.5 -87q0 -61 -55 -97
t-154 -36zM537 1425q-32 0 -64 -23t-85 -88h59q67 0 104 17t37 44q0 19 -15 34.5t-36 15.5z" />
    <glyph glyph-name="uniFB8C" unicode="&#x691;" horiz-adv-x="862" arabic-form="isolated" 
d="M666 794q65 -177 65 -375q0 -310 -184.5 -479.5t-501.5 -169.5q-71 0 -197 14l37 176q90 -16 162 -16q510 0 510 475q0 168 -102 375h211zM462 999h-207v72h64v293h67v-227q80 114 166 114q54 0 86.5 -32t32.5 -87q0 -61 -55 -97t-154 -36zM552 1182q-32 0 -64 -23
t-85 -88h59q67 0 104 17t37 44q0 19 -15 34.5t-36 15.5z" />
    <glyph glyph-name="uniFB8D" unicode="&#x691;" horiz-adv-x="893" arabic-form="final" 
d="M895 200h-4q-121 0 -178 49q-44 -230 -222.5 -354.5t-445.5 -124.5q-71 0 -197 14l37 176q90 -16 162 -16q510 0 510 475q0 118 -53 270h192q23 -93 31 -172q12 -122 156 -122h12v-195zM394 942h-207v72h64v293h67v-227q80 114 166 114q54 0 86.5 -32t32.5 -87
q0 -61 -55 -97t-154 -36zM484 1125q-32 0 -64 -23t-85 -88h59q67 0 104 17t37 44q0 19 -15 34.5t-36 15.5z" />
    <glyph glyph-name="uniFB9E" unicode="&#x6ba;" horiz-adv-x="1417" arabic-form="isolated" 
d="M1262 757q28 -174 28 -317q0 -223 -157 -355.5t-426 -132.5q-267 0 -423.5 133t-156.5 355q0 143 29 317l163 -41q-18 -141 -18 -274q0 -142 104.5 -218.5t303.5 -76.5t303 76.5t104 218.5q0 133 -18 274z" />
    <glyph glyph-name="uniFBA4" unicode="&#x6c0;" horiz-adv-x="1053" arabic-form="isolated" 
d="M526 1083q400 -200 400 -504q0 -191 -107 -291t-293 -100q-181 0 -290 104t-109 287q0 150 102.5 281.5t296.5 222.5zM752 579q0 96 -65 187.5t-161 144.5q-96 -57 -160.5 -147.5t-64.5 -184.5q0 -197 225 -197q105 0 165.5 50.5t60.5 146.5zM685 1275l-272 -49v72l59 10
q-78 33 -78 109q0 58 37 92.5t98 34.5q122 0 146 -109l-72 -6q-13 37 -72 37q-65 0 -65 -49q0 -37 38.5 -60.5t96.5 -23.5l84 14v-72z" />
    <glyph glyph-name="uniFBA5" unicode="&#x6c0;" horiz-adv-x="977" arabic-form="final" 
d="M979 200h-4q-145 0 -222.5 63t-105.5 191q-28 -53 -100 -91t-150 -38q-116 0 -193 74t-77 202q0 139 110.5 253t331.5 175l-10 84h174l43 -358q22 -187 31 -224.5t31 -70.5t54 -49t75 -16h12v-195zM586 886q-267 -76 -267 -280q0 -40 31 -64.5t72 -24.5q57 0 122.5 52
t65.5 110q0 13 -24 207zM680 1325l-272 -49v72l59 10q-78 33 -78 109q0 58 37 92.5t98 34.5q122 0 146 -109l-72 -6q-13 37 -72 37q-65 0 -65 -49q0 -37 38.5 -60.5t96.5 -23.5l84 14v-72z" />
    <glyph glyph-name="uniFBA6" unicode="&#x6c1;" horiz-adv-x="1053" arabic-form="isolated" 
d="M526 1083q400 -200 400 -504q0 -191 -107 -291t-293 -100q-181 0 -290 104t-109 287q0 150 102.5 281.5t296.5 222.5zM752 579q0 96 -65 187.5t-161 144.5q-96 -57 -160.5 -147.5t-64.5 -184.5q0 -197 225 -197q105 0 165.5 50.5t60.5 146.5z" />
    <glyph glyph-name="uniFBA7" unicode="&#x6c1;" horiz-adv-x="1063" arabic-form="final" 
d="M76 259l370 404q42 -67 141 -147t188.5 -100.5t238.5 -20.5h49v-195h-123q-350 0 -516 217l-348 -389v231z" />
    <glyph glyph-name="uniFBA9" unicode="&#x6c1;" horiz-adv-x="1262" arabic-form="medial" 
d="M1264 235h-58q-454 0 -454 -295q0 -118 51 -288h-160q-144 52 -224.5 165.5t-80.5 242.5q0 138 68 271q-153 -96 -345 -96h-61v195h57q237 0 356.5 78t174.5 243h188q-54 -151 -155 -292q-119 -164 -119 -347q0 -146 94 -229q-8 59 -8 90q0 194 166.5 325.5t447.5 131.5
h62v-195z" />
    <glyph glyph-name="uniFBAA" unicode="&#x6be;" horiz-adv-x="1405" arabic-form="isolated" 
d="M199 1388q133 26 307 26q334 0 553 -173t219 -441q0 -218 -160 -364t-395 -146q-102 0 -199 23q-246 -113 -514 -113h-12v195h16q151 0 277 22q-144 109 -144 262q0 132 96.5 229t248.5 97q151 0 247.5 -95.5t96.5 -236.5q0 -112 -91 -209q170 6 264.5 97t94.5 235
q0 190 -164 307t-434 117q-102 0 -252 -27zM518 489q144 77 144 184q0 58 -48.5 97.5t-121.5 39.5q-78 0 -124 -38.5t-46 -92.5q0 -131 196 -190z" />
    <glyph glyph-name="uniFBAB" unicode="&#x6be;" horiz-adv-x="1540" arabic-form="final" 
d="M1542 200h-24q-123 0 -217 71.5t-142 207.5q-164 -189 -436 -189q-99 0 -199 23q-243 -113 -514 -113h-12v195h16q145 0 277 22q-144 107 -144 262q0 135 97.5 230.5t247.5 95.5q154 0 249 -97t95 -235q0 -112 -91 -209q170 7 264.5 96.5t94.5 235.5q0 100 -68.5 206
t-205.5 162t-324 56q-107 0 -252 -27l-55 195q127 26 307 26q336 0 554 -174t218 -440q0 -196 59.5 -300.5t175.5 -104.5h29v-195zM518 489q144 76 144 184q0 60 -48.5 98.5t-121.5 38.5q-79 0 -124.5 -39.5t-45.5 -91.5q0 -132 196 -190z" />
    <glyph glyph-name="uniFBAC" unicode="&#x6be;" horiz-adv-x="1405" arabic-form="initial" 
d="M199 1388q133 26 307 26q334 0 553 -173t219 -441q0 -218 -160 -364t-395 -146q-102 0 -199 23q-246 -113 -514 -113h-12v195h16q151 0 277 22q-144 109 -144 262q0 132 96.5 229t248.5 97q151 0 247.5 -95.5t96.5 -236.5q0 -112 -91 -209q170 6 264.5 97t94.5 235
q0 190 -164 307t-434 117q-102 0 -252 -27zM518 489q144 77 144 184q0 58 -48.5 97.5t-121.5 39.5q-78 0 -124 -38.5t-46 -92.5q0 -131 196 -190z" />
    <glyph glyph-name="uniFBAD" unicode="&#x6be;" horiz-adv-x="1540" arabic-form="medial" 
d="M1542 200h-24q-123 0 -217 71.5t-142 207.5q-164 -189 -436 -189q-99 0 -199 23q-243 -113 -514 -113h-12v195h16q145 0 277 22q-144 107 -144 262q0 135 97.5 230.5t247.5 95.5q154 0 249 -97t95 -235q0 -112 -91 -209q170 7 264.5 96.5t94.5 235.5q0 100 -68.5 206
t-205.5 162t-324 56q-107 0 -252 -27l-55 195q127 26 307 26q336 0 554 -174t218 -440q0 -196 59.5 -300.5t175.5 -104.5h29v-195zM518 489q144 76 144 184q0 60 -48.5 98.5t-121.5 38.5q-79 0 -124.5 -39.5t-45.5 -91.5q0 -132 196 -190z" />
    <glyph glyph-name="uniFBAE" unicode="&#x6d2;" horiz-adv-x="1503" arabic-form="isolated" 
d="M819 886v-92q0 -157 -48.5 -243.5t-148.5 -128.5l-315 -132q-92 -38 -92 -94q0 -49 64 -49h1171v-191h-1171q-107 0 -169.5 63t-62.5 161q0 190 186 268l306 126q46 19 83 66.5t37 153.5v92h160z" />
    <glyph glyph-name="uniFBAF" unicode="&#x6d2;" horiz-adv-x="1331" arabic-form="final" 
d="M1450 -348h-1171q-107 0 -170.5 63t-63.5 160q0 94 50 161t145 89l332 74q38 8 83 30t84 50q102 76 160 98.5t111 22.5h325v-193h-313q-84 0 -186 -76q-100 -77 -169 -94l-354 -82q-98 -22 -98 -63q0 -50 64 -50h1171v-190z" />
    <glyph glyph-name="uniFBB0" unicode="&#x6d3;" horiz-adv-x="1503" arabic-form="isolated" 
d="M819 886v-92q0 -157 -48.5 -243.5t-148.5 -128.5l-315 -132q-92 -38 -92 -94q0 -49 64 -49h1171v-191h-1171q-107 0 -169.5 63t-62.5 161q0 190 186 268l306 126q46 19 83 66.5t37 153.5v92h160zM391 773l-272 -49v72l59 10q-78 33 -78 109q0 58 37 92.5t98 34.5
q122 0 146 -109l-72 -6q-13 37 -72 37q-65 0 -65 -49q0 -37 38.5 -60.5t96.5 -23.5l84 14v-72z" />
    <glyph glyph-name="uniFBB1" unicode="&#x6d3;" horiz-adv-x="1331" arabic-form="final" 
d="M1450 -348h-1171q-107 0 -170.5 63t-63.5 160q0 94 50 161t145 89l332 74q38 8 83 30t84 50q102 76 160 98.5t111 22.5h325v-193h-313q-84 0 -186 -76q-100 -77 -169 -94l-354 -82q-98 -22 -98 -63q0 -50 64 -50h1171v-190zM391 513l-272 -49v72l59 10q-78 33 -78 109
q0 58 37 92.5t98 34.5q122 0 146 -109l-72 -6q-13 37 -72 37q-65 0 -65 -49q0 -37 38.5 -60.5t96.5 -23.5l84 14v-72z" />
    <glyph glyph-name="uniFBFE" unicode="&#x6cc;" horiz-adv-x="565" arabic-form="initial" 
d="M397 595q0 -215 -82 -305t-252 -90h-65v195h74q151 0 151 204v183h174v-187zM491 -80h-147v147h147v-147zM223 -80h-148v147h148v-147z" />
    <glyph glyph-name="uniFBFF" unicode="&#x6cc;" horiz-adv-x="498" arabic-form="medial" 
d="M500 200h-4q-170 0 -248 84q-78 -84 -246 -84h-4v195h12q152 0 152 204v183h174v-183q0 -204 151 -204h13v-195zM456 -80h-147v147h147v-147zM188 -80h-148v147h148v-147z" />
    <glyph glyph-name="uniFBA8" unicode="&#x6c1;" horiz-adv-x="565" arabic-form="initial" 
d="M397 630q0 -215 -82 -305t-252 -90h-65v195h74q151 0 151 204v183h174v-187zM439 182q-111 -110 -151.5 -161t-40.5 -100q0 -33 17 -54t81 -21v-194q-139 0 -205.5 50t-66.5 159q0 67 44 139.5t144 181.5h178z" />
    <glyph glyph-name="uniFE83" unicode="&#x623;" horiz-adv-x="498" arabic-form="isolated" 
d="M336 200h-174v1261h174v-1261zM385 1617l-272 -49v72l59 10q-78 33 -78 109q0 58 37 92.5t98 34.5q122 0 146 -109l-72 -6q-13 37 -72 37q-65 0 -65 -49q0 -37 38.5 -60.5t96.5 -23.5l84 14v-72z" />
    <glyph glyph-name="uniFEC5" unicode="&#x638;" horiz-adv-x="1726" arabic-form="isolated" 
d="M561 530q377 563 647 563q168 0 281 -118.5t113 -299.5q0 -221 -195.5 -348t-527.5 -127h-758v195h266v1210h174v-1075zM649 395h230q251 0 399.5 73.5t148.5 202.5q0 92 -65.5 160.5t-153.5 68.5q-201 0 -559 -505zM966 1216h-178v178h178v-178z" />
    <glyph glyph-name=".notdef" horiz-adv-x="1024" 
d="M51 0v1536h922v-1536h-922zM179 128h666v1280h-666v-1280z" />
    <glyph glyph-name="NULL" horiz-adv-x="0" 
 />
    <glyph glyph-name="nonmarkingreturn" unicode="&#xd;" horiz-adv-x="485" 
 />
    <glyph glyph-name="space" unicode=" " horiz-adv-x="485" 
 />
    <glyph glyph-name="exclam" unicode="!" horiz-adv-x="610" 
d="M160 1491h289l-29 -1045h-230zM305 -16q-65 0 -111.5 46.5t-46.5 112.5t46 112t112 46t112 -46t46 -112t-46 -112.5t-112 -46.5z" />
    <glyph glyph-name="quotedbl" unicode="&#x22;" horiz-adv-x="895" 
d="M518 1583h270l-34 -534h-199zM106 1583h271l-35 -534h-199z" />
    <glyph glyph-name="numbersign" unicode="#" horiz-adv-x="1352" 
d="M1272 1059v-160h-246l-43 -313h236v-162h-258l-60 -424h-186l57 424h-280l-60 -424h-186l57 424h-223v162h246l45 313h-238v160h258l62 432h186l-59 -432h280l62 432h186l-59 -432h223zM797 586l43 313h-283l-43 -313h283z" />
    <glyph glyph-name="dollar" unicode="$" horiz-adv-x="995" 
d="M862 1427v-174q-141 33 -258 33q-129 0 -187.5 -41.5t-58.5 -126.5q0 -88 54 -134.5t200 -117.5q192 -92 257 -187.5t65 -223.5q0 -170 -81.5 -271t-244.5 -133v-203h-219v185q-167 3 -309 41v178q173 -47 307 -47q135 0 202.5 48t67.5 144q0 70 -29 115.5t-82.5 78
t-166.5 87.5q-168 81 -232.5 176t-64.5 227q0 146 76.5 236t230.5 125v205h219v-189q139 -3 254 -31zM147 1491z" />
    <glyph glyph-name="percent" unicode="%" horiz-adv-x="1790" 
d="M412 1501q161 0 243 -99.5t82 -332.5q0 -255 -83.5 -354t-245.5 -99t-246 98t-84 355q0 227 84 329.5t250 102.5zM408 741q65 0 92.5 61t27.5 267q0 197 -29 252t-91 55t-91.5 -52.5t-29.5 -254.5q0 -206 27.5 -267t93.5 -61zM1219 1491h196l-844 -1491h-196zM1386 874
q161 0 243.5 -99t82.5 -333q0 -257 -83 -354.5t-245 -97.5t-245.5 97.5t-83.5 354.5q0 229 83.5 330.5t247.5 101.5zM1384 115q66 0 93.5 61t27.5 266q0 197 -29 252.5t-92 55.5q-61 0 -90.5 -53t-29.5 -255q0 -205 27.5 -266t92.5 -61z" />
    <glyph glyph-name="ampersand" unicode="&#x26;" horiz-adv-x="1364" 
d="M1024 0l-84 109q-156 -125 -379 -125q-229 0 -351 104.5t-122 294.5q0 141 70 244.5t231 195.5q-160 209 -160 355q0 161 105 247t293 86q175 0 273.5 -79t98.5 -215q0 -111 -65 -203.5t-234 -206.5l299 -387q68 110 111 301l199 -45q-59 -258 -191 -412l205 -264h-299z
M592 948q176 118 176 271q0 57 -38 94t-101 37q-75 0 -112.5 -38t-37.5 -114q0 -60 24 -112.5t89 -137.5zM838 240l-340 444q-138 -110 -138 -274q0 -123 73.5 -188.5t172.5 -65.5q131 0 232 84z" />
    <glyph glyph-name="quotesingle" unicode="'" horiz-adv-x="483" 
d="M106 1583h271l-35 -534h-199z" />
    <glyph glyph-name="parenleft" unicode="(" horiz-adv-x="688" 
d="M635 -340q-302 0 -416.5 219.5t-114.5 751.5q0 357 48.5 564t160.5 305.5t322 98.5v-172q-160 0 -208 -166t-48 -630q0 -470 49.5 -634.5t206.5 -164.5v-172z" />
    <glyph glyph-name="parenright" unicode=")" horiz-adv-x="688" 
d="M53 1427v172q306 0 419.5 -221.5t113.5 -746.5q0 -531 -115 -751t-418 -220v172q159 0 207.5 164t48.5 635q0 464 -48 630t-208 166z" />
    <glyph glyph-name="asterisk" unicode="*" horiz-adv-x="1004" 
d="M651 1055l305 -158l-90 -158l-291 189l19 -346h-184l18 346l-291 -189l-90 158l305 158l-305 157l90 158l291 -186l-18 344h184l-19 -344l291 186l90 -158z" />
    <glyph glyph-name="plus" unicode="+" horiz-adv-x="1143" 
d="M1035 618h-353v-353h-221v353h-353v222h353v353h221v-353h353v-222z" />
    <glyph glyph-name="comma" unicode="," horiz-adv-x="479" 
d="M236 -12q-72 2 -114 44t-42 107q0 67 46 112.5t114 45.5q74 0 115.5 -56t41.5 -145q0 -240 -235 -387l-78 88q126 83 152 191z" />
    <glyph glyph-name="hyphen" unicode="-" horiz-adv-x="690" 
d="M606 750v-238h-520v238h520z" />
    <glyph glyph-name="hyphen" unicode="&#x2010;" horiz-adv-x="690" 
d="M606 750v-238h-520v238h520z" />
    <glyph glyph-name="period" unicode="." horiz-adv-x="479" 
d="M240 -16q-66 0 -113 47t-47 112q0 66 46.5 112t113.5 46q66 0 112.5 -46t46.5 -112t-46.5 -112.5t-112.5 -46.5z" />
    <glyph glyph-name="slash" unicode="/" horiz-adv-x="774" 
d="M541 1583h217l-525 -1917h-217z" />
    <glyph glyph-name="zero" unicode="0" horiz-adv-x="1143" 
d="M578 1507q231 0 349 -164t118 -579q0 -455 -119.5 -617.5t-352.5 -162.5q-204 0 -308 108t-135.5 273t-31.5 399q0 407 121 575t359 168zM571 150q102 0 149.5 114.5t47.5 499.5q0 370 -49 473.5t-148 103.5q-90 0 -132.5 -72t-53 -188t-10.5 -317q0 -396 47 -505
t149 -109z" />
    <glyph glyph-name="one" unicode="1" horiz-adv-x="1143" 
d="M1030 160v-160h-883v160h314v1116l-314 -72v160l441 139h145v-1343h297z" />
    <glyph glyph-name="two" unicode="2" horiz-adv-x="1143" 
d="M1001 174v-174h-892v109q0 156 54 277t133 206.5t200 187.5q145 122 183 189t38 133q0 116 -61.5 174.5t-184.5 58.5q-130 0 -315 -67h-2v178q194 61 378 61q227 0 345 -99.5t118 -293.5q0 -109 -53 -214.5t-250 -270.5q-110 -93 -172 -155t-104.5 -136.5t-46.5 -163.5
h632z" />
    <glyph glyph-name="three" unicode="3" horiz-adv-x="1143" 
d="M244 872q294 0 367 60t73 184q0 109 -58.5 164t-174.5 55q-102 0 -287 -51h-2v176q188 47 340 47q229 0 344 -92t115 -276q0 -127 -69 -218.5t-198 -129.5q140 -25 214.5 -117.5t74.5 -231.5q0 -229 -133.5 -343.5t-400.5 -114.5q-160 0 -328 47v174h2q196 -49 309 -49
q136 0 204.5 68.5t68.5 205.5q0 147 -82 211t-379 64v167z" />
    <glyph glyph-name="four" unicode="4" horiz-adv-x="1143" 
d="M1065 500v-172h-154v-328h-270v328h-600v164l469 767l147 240h254v-999h154zM250 500h391v657z" />
    <glyph glyph-name="five" unicode="5" horiz-adv-x="1143" 
d="M438 1319v-371q27 2 97 2q223 0 342.5 -118t119.5 -343q0 -256 -130.5 -380.5t-399.5 -124.5q-153 0 -328 45v176h2q185 -49 285 -49q150 0 221.5 77.5t71.5 245.5q0 148 -79 222.5t-237 74.5q-109 0 -219 -10v725h770v-172h-516z" />
    <glyph glyph-name="six" unicode="6" horiz-adv-x="1143" 
d="M942 1489v-174q-91 20 -197 20q-157 0 -245.5 -110.5t-108.5 -331.5q97 94 268 94q192 0 292 -122t100 -349q0 -251 -122.5 -391.5t-353.5 -140.5t-348.5 164t-117.5 544q0 374 157 594.5t453 220.5q120 0 223 -18zM575 150q101 0 151 77.5t50 282.5q0 154 -47 231.5
t-141 77.5q-98 0 -149.5 -74t-51.5 -204q0 -156 21 -235.5t62.5 -117.5t104.5 -38z" />
    <glyph glyph-name="seven" unicode="7" horiz-adv-x="1143" 
d="M1022 1491v-137q-396 -658 -412 -1354h-284q14 657 411 1313h-628v178h913z" />
    <glyph glyph-name="eight" unicode="8" horiz-adv-x="1143" 
d="M809 778q125 -39 187.5 -132t62.5 -240q0 -201 -129 -311.5t-361 -110.5q-227 0 -356 111t-129 311q0 139 64 238t186 134q-111 42 -166 128t-55 216q0 182 123.5 283.5t336.5 101.5q212 0 335.5 -101.5t123.5 -283.5q0 -130 -56 -216t-167 -128zM569 854q95 0 146 64.5
t51 179.5q0 121 -49.5 182t-147.5 61q-94 0 -143 -63t-49 -180q0 -114 50 -179t142 -65zM569 150q107 0 161 69.5t54 208.5q0 117 -55 189.5t-160 72.5q-106 0 -158.5 -65.5t-52.5 -196.5q0 -134 54 -206t157 -72z" />
    <glyph glyph-name="nine" unicode="9" horiz-adv-x="1143" 
d="M197 8v172q93 -24 206 -24q166 0 250 103.5t99 338.5q-103 -94 -263 -94q-192 0 -292.5 124t-100.5 351q0 250 119.5 389t345.5 139q235 0 355 -164.5t120 -558.5q0 -387 -151 -593.5t-447 -206.5q-107 0 -241 24zM555 672q98 0 150.5 72.5t52.5 205.5q0 195 -49 293
t-146 98q-95 0 -144.5 -73t-49.5 -289q0 -164 46.5 -235.5t139.5 -71.5z" />
    <glyph glyph-name="colon" unicode=":" horiz-adv-x="551" 
d="M276 -16q-65 0 -112 47t-47 112q0 66 46.5 112t112.5 46t112 -46t46 -112t-46 -112.5t-112 -46.5zM276 725q-65 0 -112 48t-47 114q0 65 46.5 110t112.5 45q67 0 112.5 -45t45.5 -110q0 -67 -46 -114.5t-112 -47.5z" />
    <glyph glyph-name="semicolon" unicode=";" horiz-adv-x="551" 
d="M270 -12q-68 0 -111.5 42.5t-43.5 108.5q0 67 46.5 112.5t112.5 45.5q76 0 117 -55.5t41 -145.5q0 -244 -237 -387l-78 88q127 81 153 191zM276 725q-65 0 -112 48t-47 114q0 65 46.5 110t112.5 45q67 0 112.5 -45t45.5 -110q0 -67 -46 -114.5t-112 -47.5z" />
    <glyph glyph-name="less" unicode="&#x3c;" horiz-adv-x="1143" 
d="M1035 453v-224l-927 392v217l927 391v-223l-725 -277z" />
    <glyph glyph-name="equal" unicode="=" horiz-adv-x="1143" 
d="M1035 1073v-221h-927v221h927zM1035 606v-221h-927v221h927z" />
    <glyph glyph-name="greater" unicode="&#x3e;" horiz-adv-x="1143" 
d="M1035 838v-217l-927 -392v224l722 276l-722 277v223z" />
    <glyph glyph-name="question" unicode="?" horiz-adv-x="903" 
d="M338 -16q-66 0 -112 46.5t-46 112.5t46 112t112 46t112 -46t46 -112t-46.5 -112.5t-111.5 -46.5zM49 1288v172q173 47 309 47q226 0 345.5 -91t119.5 -269q0 -75 -34.5 -153.5t-164.5 -208.5q-95 -94 -127 -140.5t-32 -107.5v-91h-254v105q0 101 45 175t139 163
q99 96 122.5 146t23.5 98q0 100 -57 150t-171 50q-111 0 -264 -45z" />
    <glyph glyph-name="at" unicode="@" horiz-adv-x="1821" 
d="M1034 1128h264q-69 -428 -69 -591q0 -101 19 -152t93 -51q87 0 140 98.5t53 269.5q0 309 -149 477.5t-424 168.5q-290 0 -471 -177.5t-181 -492.5q0 -352 167.5 -527.5t502.5 -175.5q193 0 401 74v-160q-79 -31 -198.5 -53t-212.5 -22q-394 0 -626 221.5t-232 632.5
q0 258 107 447.5t303 290.5t435 101q366 0 564 -208.5t198 -585.5q0 -248 -110.5 -385.5t-296.5 -137.5q-89 0 -154 53t-86 148q-94 -201 -268 -201q-124 0 -203.5 97.5t-79.5 269.5q0 268 140 419.5t374 151.5zM1034 678l37 303h-67q-121 0 -201 -108.5t-80 -299.5
q0 -131 32.5 -185t102.5 -54q134 0 176 344z" />
    <glyph glyph-name="A" unicode="A" horiz-adv-x="1186" 
d="M756 496l-183 741l-188 -741h371zM883 0l-86 328h-451l-88 -328h-250l430 1491h324l412 -1491h-291z" />
    <glyph glyph-name="B" unicode="B" horiz-adv-x="1180" 
d="M610 0h-463v1491h498q214 0 321 -90.5t107 -270.5q0 -256 -248 -344q285 -65 285 -366q0 -210 -125 -315t-375 -105zM422 858h135q123 0 180.5 59t57.5 187q0 109 -52.5 164t-156.5 55h-164v-465zM422 168h151q133 0 192.5 61.5t59.5 202.5q0 132 -61.5 195t-192.5 63
h-149v-522z" />
    <glyph glyph-name="C" unicode="C" horiz-adv-x="961" 
d="M668 -16q-285 0 -428.5 181.5t-143.5 596.5q0 372 144.5 558.5t433.5 186.5q118 0 237 -32v-175q-118 35 -211 35q-159 0 -238 -141.5t-79 -423.5q0 -328 81.5 -471t244.5 -143q95 0 202 30v-170q-119 -32 -243 -32z" />
    <glyph glyph-name="D" unicode="D" horiz-adv-x="1245" 
d="M422 1321v-1149h125q156 0 237.5 125.5t81.5 462.5q0 299 -80 430t-243 131h-121zM147 1491h424q292 0 436 -173t144 -546q0 -408 -151.5 -590t-458.5 -182h-394v1491z" />
    <glyph glyph-name="E" unicode="E" horiz-adv-x="969" 
d="M147 0v1491h766v-172h-491v-426h397v-174h-397v-547h500v-172h-775z" />
    <glyph glyph-name="F" unicode="F" horiz-adv-x="946" 
d="M147 0v1491h766v-172h-491v-471h383v-174h-383v-674h-275z" />
    <glyph glyph-name="G" unicode="G" horiz-adv-x="1190" 
d="M600 -16q-250 0 -377 180.5t-127 599.5q0 362 157.5 552.5t465.5 190.5q158 0 297 -39v-170q-124 37 -277 37q-175 0 -265.5 -148.5t-90.5 -416.5q0 -353 66 -484.5t192 -131.5q80 0 127 56.5t47 149.5v279h-197v168h467v-807h-155l-41 133q-42 -70 -121 -109.5
t-168 -39.5z" />
    <glyph glyph-name="H" unicode="H" horiz-adv-x="1272" 
d="M1124 1491v-1491h-276v725h-426v-725h-275v1491h275v-596h426v596h276z" />
    <glyph glyph-name="I" unicode="I" horiz-adv-x="664" 
d="M70 0v172h123v1147h-123v172h522v-172h-123v-1147h123v-172h-522z" />
    <glyph glyph-name="J" unicode="J" horiz-adv-x="655" 
d="M592 1491v-172h-125v-1303q0 -168 -89 -256t-259 -88q-68 0 -205 23v174q105 -19 139 -19q74 0 107 38t33 126v1305h-123v172h522z" />
    <glyph glyph-name="K" unicode="K" horiz-adv-x="1157" 
d="M690 817l459 -817h-320l-407 762v-762h-275v1491h275v-690l432 690h281z" />
    <glyph glyph-name="L" unicode="L" horiz-adv-x="938" 
d="M147 0v1491h275v-1319h483v-172h-758z" />
    <glyph glyph-name="M" unicode="M" horiz-adv-x="1518" 
d="M1370 1491v-1491h-272v1032l-281 -536h-115l-282 536v-1032h-273v1491h230l383 -729l383 729h227z" />
    <glyph glyph-name="N" unicode="N" horiz-adv-x="1341" 
d="M977 0l-563 1047v-1047h-267v1491h234l547 -1014v1014h266v-1491h-217z" />
    <glyph glyph-name="O" unicode="O" horiz-adv-x="1278" 
d="M638 156q125 0 190.5 130.5t65.5 479.5q0 316 -65 442.5t-191 126.5q-125 0 -190.5 -120.5t-65.5 -448.5q0 -323 65 -466.5t191 -143.5zM638 -16q-270 0 -406.5 189t-136.5 593q0 380 136.5 560.5t406.5 180.5q272 0 408.5 -185.5t136.5 -555.5q0 -403 -137 -592.5
t-408 -189.5z" />
    <glyph glyph-name="P" unicode="P" horiz-adv-x="1126" 
d="M422 1323v-627h102q133 0 192.5 73t59.5 251q0 170 -54.5 236.5t-176.5 66.5h-123zM147 1491h441q243 0 356 -111t113 -352q0 -245 -130 -373.5t-380 -128.5h-125v-526h-275v1491z" />
    <glyph glyph-name="Q" unicode="Q" horiz-adv-x="1278" 
d="M639 156q125 0 190.5 130.5t65.5 479.5q0 316 -65 442.5t-191 126.5q-125 0 -190.5 -122.5t-65.5 -446.5q0 -305 64 -457.5t192 -152.5zM492 0q-196 50 -296 233.5t-100 532.5q0 380 136.5 560.5t406.5 180.5q271 0 408 -181t137 -560q0 -350 -105.5 -543t-316.5 -229
q18 -84 57 -127t162 -43v-158h-66q-185 0 -281 74.5t-142 259.5z" />
    <glyph glyph-name="R" unicode="R" horiz-adv-x="1176" 
d="M817 676l340 -676h-315l-289 633h-131v-633h-275v1491h484q230 0 340 -101.5t110 -312.5q0 -153 -66 -253t-198 -148zM422 801h147q118 0 175 66t57 210q0 123 -53 184.5t-158 61.5h-168v-522z" />
    <glyph glyph-name="S" unicode="S" horiz-adv-x="987" 
d="M399 -16q-163 0 -321 41v178q173 -47 307 -47q127 0 198.5 57t71.5 162q0 99 -59 155.5t-219 147.5q-175 98 -236 197.5t-61 226.5q0 202 135.5 303.5t353.5 101.5q158 0 291 -30v-174q-141 32 -262 32q-110 0 -176 -52t-66 -144q0 -89 57.5 -142.5t196.5 -130.5
q192 -107 257 -207t65 -225q0 -225 -133.5 -337.5t-399.5 -112.5z" />
    <glyph glyph-name="T" unicode="T" horiz-adv-x="1071" 
d="M398 0v1313h-365v178h1005v-178h-365v-1313h-275z" />
    <glyph glyph-name="U" unicode="U" horiz-adv-x="1264" 
d="M635 -16q-252 0 -372 115.5t-120 355.5v1036h275v-1053q0 -151 51 -217.5t164 -66.5t163 65.5t50 218.5v1053h274v-1042q0 -229 -124 -347t-361 -118z" />
    <glyph glyph-name="V" unicode="V" horiz-adv-x="1135" 
d="M406 0l-396 1491h287l289 -1202l297 1202h245l-413 -1491h-309z" />
    <glyph glyph-name="W" unicode="W" horiz-adv-x="1874" 
d="M344 0l-321 1491h290l217 -1172l287 1172h291l264 -1172l240 1172h241l-356 -1491h-299l-258 1137l-287 -1137h-309z" />
    <glyph glyph-name="X" unicode="X" horiz-adv-x="1137" 
d="M10 0l410 758l-391 733h313l246 -492l243 492h256l-378 -698l421 -793h-313l-274 551l-277 -551h-256z" />
    <glyph glyph-name="Y" unicode="Y" horiz-adv-x="1049" 
d="M377 0v522l-369 969h293l238 -707l256 707h245l-389 -967v-524h-274z" />
    <glyph glyph-name="Z" unicode="Z" horiz-adv-x="975" 
d="M39 0v129l565 1190h-528v172h848v-129l-566 -1190h557v-172h-876z" />
    <glyph glyph-name="bracketleft" unicode="[" horiz-adv-x="686" 
d="M633 -176v-158h-486v1917h486v-158h-215v-1601h215z" />
    <glyph glyph-name="backslash" unicode="\" horiz-adv-x="774" 
d="M236 1583l522 -1917h-217l-525 1917h220z" />
    <glyph glyph-name="bracketright" unicode="]" horiz-adv-x="686" 
d="M541 1583v-1917h-488v158h217v1601h-217v158h488z" />
    <glyph glyph-name="asciicircum" unicode="^" horiz-adv-x="1143" 
d="M694 1491l338 -768h-233l-226 549l-229 -549h-233l340 768h243z" />
    <glyph glyph-name="underscore" unicode="_" horiz-adv-x="762" 
d="M768 -141v-152h-772v152h772z" />
    <glyph glyph-name="grave" unicode="`" horiz-adv-x="682" 
d="M322 1608l213 -332h-199l-258 332h244z" />
    <glyph glyph-name="a" unicode="a" horiz-adv-x="1100" 
d="M696 559h-96q-131 0 -196.5 -57t-65.5 -170q0 -90 39 -135t117 -45q98 0 150 62.5t52 176.5v168zM766 168q-120 -184 -346 -184q-166 0 -258 90.5t-92 253.5q0 128 57.5 210.5t183.5 123.5t385 43v114q0 99 -54.5 149t-162.5 50q-125 0 -307 -57v174q190 51 371 51
q208 0 317 -95.5t109 -281.5v-809h-158z" />
    <glyph glyph-name="b" unicode="b" horiz-adv-x="1182" 
d="M408 598v-436q53 -8 143 -8q134 0 199 104t65 354q0 203 -50 304.5t-149 101.5q-101 0 -154.5 -80t-53.5 -340zM408 1069q111 117 288 117q199 0 298.5 -144.5t99.5 -433.5q0 -293 -140 -456.5t-397 -163.5q-218 0 -420 26v1569h271v-514z" />
    <glyph glyph-name="c" unicode="c" horiz-adv-x="883" 
d="M588 -16q-250 0 -375 153.5t-125 460.5q0 285 135 436.5t395 151.5q103 0 211 -25v-166q-76 25 -190 25q-135 0 -202.5 -106t-67.5 -318q0 -223 67.5 -334.5t202.5 -111.5q120 0 201 22v-158q-113 -30 -252 -30z" />
    <glyph glyph-name="d" unicode="d" horiz-adv-x="1186" 
d="M783 530q0 178 -9 267t-53 158t-141 69q-106 0 -159.5 -100t-53.5 -324t52.5 -336t158.5 -112q99 0 152 74.5t53 303.5zM846 150q-106 -166 -326 -166q-216 0 -324 152t-108 456q0 269 114.5 431.5t329.5 162.5q163 0 246 -86v483h271v-1583h-156z" />
    <glyph glyph-name="e" unicode="e" horiz-adv-x="1092" 
d="M371 674h370q0 206 -44 284t-128 78q-94 0 -143 -84t-55 -278zM612 -16q-262 0 -393 151t-131 453q0 267 128.5 432.5t358.5 165.5q212 0 322.5 -140.5t110.5 -519.5h-637q0 -188 72 -282t216 -94q120 0 302 51v-166q-168 -51 -349 -51z" />
    <glyph glyph-name="f" unicode="f" horiz-adv-x="664" 
d="M735 1575v-164q-80 27 -149 27q-95 0 -120.5 -57t-25.5 -212h201v-159h-201v-1010h-272v1010h-135v159h135q0 174 37 263t114 128t201 39q115 0 215 -24z" />
    <glyph glyph-name="g" unicode="g" horiz-adv-x="1176" 
d="M772 635q0 212 -48 299.5t-144 87.5q-104 0 -158.5 -82.5t-54.5 -304.5q0 -202 50.5 -303t151.5 -101q100 0 151.5 75.5t51.5 328.5zM768 186q-88 -120 -276 -120q-202 0 -303 138t-101 414q0 263 114.5 415.5t329.5 152.5q201 0 302 -166l47 149h157v-1097
q0 -210 -127.5 -311t-339.5 -101q-182 0 -407 53v168q206 -51 352 -51q116 0 170 39t68 110t14 207z" />
    <glyph glyph-name="h" unicode="h" horiz-adv-x="1192" 
d="M408 1067q111 119 284 119q184 0 276.5 -96t92.5 -287v-803h-273v788q0 124 -39.5 177t-121.5 53q-106 0 -162.5 -83.5t-56.5 -223.5v-711h-271v1583h271v-516z" />
    <glyph glyph-name="i" unicode="i" horiz-adv-x="584" 
d="M168 0v1010h-129v159h399v-1169h-270zM303 1315q-66 0 -107.5 37t-41.5 98t41.5 98t107.5 37q64 0 107 -38t43 -97q0 -62 -42 -98.5t-108 -36.5z" />
    <glyph glyph-name="j" unicode="j" horiz-adv-x="584" 
d="M168 -4v1014h-129v159h399v-1171q0 -164 -88.5 -251t-257.5 -87q-97 0 -205 21v169q88 -18 148 -18q133 0 133 164zM303 1315q-66 0 -107.5 37t-41.5 98t41.5 98t107.5 37q64 0 107 -38t43 -97q0 -62 -42 -98.5t-108 -36.5z" />
    <glyph glyph-name="k" unicode="k" horiz-adv-x="1090" 
d="M682 672l410 -672h-314l-370 629v-629h-271v1583h271v-940l370 526h279z" />
    <glyph glyph-name="l" unicode="l" horiz-adv-x="545" 
d="M137 0v1583h271v-1583h-271z" />
    <glyph glyph-name="m" unicode="m" horiz-adv-x="1808" 
d="M295 1169l47 -174q118 191 340 191q233 0 311 -166q115 166 326 166q179 0 268.5 -95t89.5 -284v-807h-272v795q0 122 -38 172.5t-116 50.5q-101 0 -155 -83.5t-54 -223.5v-711h-270v795q0 111 -39.5 167t-118.5 56q-100 0 -153 -84t-53 -223v-711h-271v1169h158z" />
    <glyph glyph-name="n" unicode="n" horiz-adv-x="1192" 
d="M342 995q121 191 350 191q184 0 276.5 -95t92.5 -284v-807h-273v774q0 133 -39.5 188.5t-121.5 55.5q-106 0 -162.5 -83.5t-56.5 -223.5v-711h-271v1169h158z" />
    <glyph glyph-name="o" unicode="o" horiz-adv-x="1182" 
d="M592 141q110 0 166.5 103t56.5 364q0 125 -25.5 222t-75.5 147.5t-122 50.5q-112 0 -167.5 -105t-55.5 -315q0 -234 55.5 -350.5t167.5 -116.5zM592 -16q-250 0 -377 157.5t-127 460.5q0 269 132 426.5t372 157.5q242 0 372 -156t130 -434q0 -284 -123.5 -448
t-378.5 -164z" />
    <glyph glyph-name="p" unicode="p" horiz-adv-x="1180" 
d="M408 641v-465q62 -22 141 -22q132 0 198 99t66 357q0 204 -49 306t-146 102q-104 0 -157 -84t-53 -293zM342 999q67 97 147.5 142t204.5 45q199 0 298.5 -145.5t99.5 -436.5q0 -280 -134 -448t-407 -168q-59 0 -143 18v-340h-271v1503h158z" />
    <glyph glyph-name="q" unicode="q" horiz-adv-x="1186" 
d="M782 596q0 261 -52.5 343.5t-149.5 82.5q-108 0 -160.5 -102.5t-52.5 -325.5q0 -221 53.5 -331.5t161.5 -110.5q91 0 134.5 55.5t54.5 145.5t11 243zM778 82q-90 -98 -258 -98q-216 0 -324 151t-108 453q0 277 115 437.5t334 160.5q207 0 309 -166l47 149h156v-1503h-271
v416z" />
    <glyph glyph-name="r" unicode="r" horiz-adv-x="772" 
d="M137 0v1169h158l53 -194q49 102 135 153.5t209 51.5q32 0 47 -2v-224q-56 4 -82 4q-135 0 -192 -59.5t-57 -196.5v-702h-271z" />
    <glyph glyph-name="s" unicode="s" horiz-adv-x="889" 
d="M389 -16q-150 0 -323 41v174q171 -52 282 -52q103 0 155 40.5t52 121.5q0 48 -29 89.5t-164 109.5q-91 47 -145.5 86.5t-90.5 102.5t-36 157q0 156 115 244t295 88q156 0 284 -39v-166q-125 43 -239 43q-93 0 -139 -38t-46 -114q0 -40 27.5 -75t157.5 -99
q182 -89 231 -174t49 -188q0 -174 -112 -263t-324 -89z" />
    <glyph glyph-name="t" unicode="t" horiz-adv-x="750" 
d="M457 -16q-146 0 -215.5 67t-69.5 207v752h-147v94l323 330h96v-265h271v-159h-271v-713q0 -93 29 -120t88 -27q65 0 172 28v-155q-141 -39 -276 -39z" />
    <glyph glyph-name="u" unicode="u" horiz-adv-x="1192" 
d="M852 174q-121 -190 -352 -190q-184 0 -275.5 94.5t-91.5 283.5v807h270v-774q0 -130 40.5 -186.5t123.5 -56.5q106 0 161.5 82.5t55.5 224.5v710h273v-1169h-160z" />
    <glyph glyph-name="v" unicode="v" horiz-adv-x="1020" 
d="M350 0l-336 1169h279l231 -921l244 921h240l-351 -1169h-307z" />
    <glyph glyph-name="w" unicode="w" horiz-adv-x="1712" 
d="M324 0l-308 1169h277l207 -931l233 931h287l219 -933l221 933h238l-322 -1169h-305l-215 881l-227 -881h-305z" />
    <glyph glyph-name="x" unicode="x" horiz-adv-x="1042" 
d="M4 0l383 596l-352 573h297l209 -368l215 368h252l-349 -546l379 -623h-297l-237 416l-246 -416h-254z" />
    <glyph glyph-name="y" unicode="y" horiz-adv-x="1020" 
d="M326 49l-314 1120h281l231 -913l244 913h240l-353 -1206q-46 -157 -133.5 -230t-230.5 -73q-94 0 -203 23v172q98 -23 174 -23t119.5 43t85.5 174h-141z" />
    <glyph glyph-name="z" unicode="z" horiz-adv-x="952" 
d="M43 0v154l532 843h-497v172h815v-151l-535 -846h547v-172h-862z" />
    <glyph glyph-name="braceleft" unicode="{" horiz-adv-x="729" 
d="M676 -176v-158h-162q-136 0 -216.5 79.5t-80.5 217.5v410q0 157 -158 172v160q158 14 158 172v409q0 140 79.5 218.5t217.5 78.5h162v-158h-70q-65 0 -97 -36.5t-32 -108.5v-420q0 -187 -151 -235q151 -48 151 -236v-420q0 -72 32 -108.5t97 -36.5h70z" />
    <glyph glyph-name="bar" unicode="|" horiz-adv-x="774" 
d="M492 1583v-1917h-209v1917h209z" />
    <glyph glyph-name="braceright" unicode="}" horiz-adv-x="729" 
d="M670 705v-160q-156 -14 -156 -172v-410q0 -138 -80 -217.5t-217 -79.5h-164v158h72q63 0 95 36.5t32 108.5v420q0 188 151 236q-151 48 -151 235v420q0 72 -32 108.5t-95 36.5h-72v158h164q138 0 217.5 -78.5t79.5 -218.5v-409q0 -158 156 -172z" />
    <glyph glyph-name="asciitilde" unicode="~" horiz-adv-x="1143" 
d="M61 731q121 223 295 223q56 0 105 -25t133 -89q78 -61 123.5 -85t87.5 -24q122 0 229 197l47 -211q-121 -213 -282 -213q-53 0 -106 26.5t-129 86.5q-90 70 -133.5 89t-80.5 19q-53 0 -110 -36.5t-134 -168.5z" />
    <glyph glyph-name="Adieresis" unicode="&#xc4;" horiz-adv-x="1186" 
d="M756 496l-183 741l-188 -741h371zM883 0l-86 328h-451l-88 -328h-250l430 1491h324l412 -1491h-291zM803 1835q53 0 91 -39t38 -92q0 -54 -38 -93.5t-91 -39.5q-54 0 -93.5 39.5t-39.5 93.5q0 53 39.5 92t93.5 39zM387 1835q54 0 92.5 -39t38.5 -92q0 -54 -38.5 -93.5
t-92.5 -39.5q-53 0 -92 39.5t-39 93.5q0 53 39 92t92 39z" />
    <glyph glyph-name="Aring" unicode="&#xc5;" horiz-adv-x="1186" 
d="M756 496l-183 741l-188 -741h371zM883 0l-86 328h-451l-88 -328h-250l429 1491q-48 56 -48 136q0 89 58.5 148t150.5 59q93 0 150 -59.5t57 -147.5q0 -81 -43 -136l412 -1491h-291zM598 1514q48 2 76 32.5t28 80.5q0 49 -28 79t-76 30t-77 -30t-29 -79q0 -50 28 -81
t78 -32z" />
    <glyph glyph-name="Ccedilla" unicode="&#xc7;" horiz-adv-x="961" 
d="M479 8q-188 51 -285.5 227.5t-97.5 526.5q0 372 144.5 558.5t433.5 186.5q118 0 237 -32v-175q-118 35 -211 35q-159 0 -238 -141.5t-79 -423.5q0 -328 81.5 -471t244.5 -143q95 0 202 30v-170q-119 -32 -243 -32q-27 0 -70 4v-19q72 0 113 -36t41 -97q0 -180 -336 -184
v115q95 3 132.5 19.5t37.5 53.5q0 65 -111 68z" />
    <glyph glyph-name="Eacute" unicode="&#xc9;" horiz-adv-x="969" 
d="M147 0v1491h766v-172h-491v-426h397v-174h-397v-547h500v-172h-775zM565 1886h244l-256 -332h-201z" />
    <glyph glyph-name="Ntilde" unicode="&#xd1;" horiz-adv-x="1341" 
d="M977 0l-563 1047v-1047h-267v1491h234l547 -1014v1014h266v-1491h-217zM324 1561v60q0 104 56.5 162.5t152.5 58.5q77 0 156 -59q77 -60 117 -60q80 0 80 88v21h122v-41q0 -95 -55 -161.5t-145 -66.5q-91 0 -168 60q-74 57 -111 57q-82 0 -82 -94v-25h-123z" />
    <glyph glyph-name="Odieresis" unicode="&#xd6;" horiz-adv-x="1278" 
d="M638 156q125 0 190.5 130.5t65.5 479.5q0 316 -65 442.5t-191 126.5q-125 0 -190.5 -120.5t-65.5 -448.5q0 -323 65 -466.5t191 -143.5zM638 -16q-270 0 -406.5 189t-136.5 593q0 380 136.5 560.5t406.5 180.5q272 0 408.5 -185.5t136.5 -555.5q0 -403 -137 -592.5
t-408 -189.5zM838 1835q53 0 91 -39t38 -92q0 -54 -38 -93.5t-91 -39.5q-54 0 -93.5 39.5t-39.5 93.5q0 53 39.5 92t93.5 39zM422 1835q54 0 92.5 -39t38.5 -92q0 -54 -38.5 -93.5t-92.5 -39.5q-53 0 -92 39.5t-39 93.5q0 53 39 92t92 39z" />
    <glyph glyph-name="Udieresis" unicode="&#xdc;" horiz-adv-x="1264" 
d="M635 -16q-252 0 -372 115.5t-120 355.5v1036h275v-1053q0 -151 51 -217.5t164 -66.5t163 65.5t50 218.5v1053h274v-1042q0 -229 -124 -347t-361 -118zM832 1835q53 0 91 -39t38 -92q0 -54 -38 -93.5t-91 -39.5q-54 0 -93.5 39.5t-39.5 93.5q0 53 39.5 92t93.5 39z
M416 1835q54 0 92.5 -39t38.5 -92q0 -54 -38.5 -93.5t-92.5 -39.5q-53 0 -92 39.5t-39 93.5q0 53 39 92t92 39z" />
    <glyph glyph-name="aacute" unicode="&#xe1;" horiz-adv-x="1100" 
d="M696 559h-96q-131 0 -196.5 -57t-65.5 -170q0 -90 39 -135t117 -45q98 0 150 62.5t52 176.5v168zM766 168q-120 -184 -346 -184q-166 0 -258 90.5t-92 253.5q0 128 57.5 210.5t183.5 123.5t385 43v114q0 99 -54.5 149t-162.5 50q-125 0 -307 -57v174q190 51 371 51
q208 0 317 -95.5t109 -281.5v-809h-158zM565 1608h244l-256 -332h-201z" />
    <glyph glyph-name="agrave" unicode="&#xe0;" horiz-adv-x="1100" 
d="M696 559h-96q-131 0 -196.5 -57t-65.5 -170q0 -90 39 -135t117 -45q98 0 150 62.5t52 176.5v168zM766 168q-120 -184 -346 -184q-166 0 -258 90.5t-92 253.5q0 128 57.5 210.5t183.5 123.5t385 43v114q0 99 -54.5 149t-162.5 50q-125 0 -307 -57v174q190 51 371 51
q208 0 317 -95.5t109 -281.5v-809h-158zM490 1608l213 -332h-199l-258 332h244z" />
    <glyph glyph-name="acircumflex" unicode="&#xe2;" horiz-adv-x="1100" 
d="M696 559h-96q-131 0 -196.5 -57t-65.5 -170q0 -90 39 -135t117 -45q98 0 150 62.5t52 176.5v168zM766 168q-120 -184 -346 -184q-166 0 -258 90.5t-92 253.5q0 128 57.5 210.5t183.5 123.5t385 43v114q0 99 -54.5 149t-162.5 50q-125 0 -307 -57v174q190 51 371 51
q208 0 317 -95.5t109 -281.5v-809h-158zM660 1597l219 -321h-178l-162 197l-162 -197h-178l219 321h242z" />
    <glyph glyph-name="adieresis" unicode="&#xe4;" horiz-adv-x="1100" 
d="M696 559h-96q-131 0 -196.5 -57t-65.5 -170q0 -90 39 -135t117 -45q98 0 150 62.5t52 176.5v168zM766 168q-120 -184 -346 -184q-166 0 -258 90.5t-92 253.5q0 128 57.5 210.5t183.5 123.5t385 43v114q0 99 -54.5 149t-162.5 50q-125 0 -307 -57v174q190 51 371 51
q208 0 317 -95.5t109 -281.5v-809h-158zM756 1569q53 0 91 -39t38 -92q0 -54 -38 -93.5t-91 -39.5q-54 0 -93.5 39.5t-39.5 93.5q0 53 39.5 92t93.5 39zM340 1569q54 0 92.5 -39t38.5 -92q0 -54 -38.5 -93.5t-92.5 -39.5q-53 0 -92 39.5t-39 93.5q0 53 39 92t92 39z" />
    <glyph glyph-name="atilde" unicode="&#xe3;" horiz-adv-x="1100" 
d="M696 559h-96q-131 0 -196.5 -57t-65.5 -170q0 -90 39 -135t117 -45q98 0 150 62.5t52 176.5v168zM766 168q-120 -184 -346 -184q-166 0 -258 90.5t-92 253.5q0 128 57.5 210.5t183.5 123.5t385 43v114q0 99 -54.5 149t-162.5 50q-125 0 -307 -57v174q190 51 371 51
q208 0 317 -95.5t109 -281.5v-809h-158zM195 1296v60q0 104 56.5 162.5t152.5 58.5q77 0 156 -59q77 -60 117 -60q80 0 80 88v21h122v-41q0 -95 -55 -161.5t-145 -66.5q-91 0 -168 60q-74 57 -111 57q-82 0 -82 -94v-25h-123z" />
    <glyph glyph-name="aring" unicode="&#xe5;" horiz-adv-x="1100" 
d="M696 559h-96q-131 0 -196.5 -57t-65.5 -170q0 -90 39 -135t117 -45q98 0 150 62.5t52 176.5v168zM766 168q-120 -184 -346 -184q-166 0 -258 90.5t-92 253.5q0 128 57.5 210.5t183.5 123.5t385 43v114q0 99 -54.5 149t-162.5 50q-125 0 -307 -57v174q190 51 371 51
q208 0 317 -95.5t109 -281.5v-809h-158zM545 1677q93 0 150 -59.5t57 -147.5q0 -92 -57.5 -151t-149.5 -59q-87 0 -148 59t-61 151q0 89 58.5 148t150.5 59zM545 1358q48 0 76 31t28 81q0 49 -28 79t-76 30t-77 -30t-29 -79q0 -50 28 -81t78 -31z" />
    <glyph glyph-name="ccedilla" unicode="&#xe7;" horiz-adv-x="883" 
d="M434 0q-173 42 -259.5 191.5t-86.5 406.5q0 285 135 436.5t395 151.5q103 0 211 -25v-166q-76 25 -190 25q-135 0 -202.5 -106t-67.5 -318q0 -223 67.5 -334.5t202.5 -111.5q120 0 201 22v-158q-93 -31 -259 -31l-28 3v-17q72 0 114 -36t42 -97q0 -180 -336 -184v115
q95 3 132.5 19.5t37.5 53.5q0 39 -29 53t-80 15v92z" />
    <glyph glyph-name="eacute" unicode="&#xe9;" horiz-adv-x="1092" 
d="M371 674h370q0 206 -44 284t-128 78q-94 0 -143 -84t-55 -278zM612 -16q-262 0 -393 151t-131 453q0 267 128.5 432.5t358.5 165.5q212 0 322.5 -140.5t110.5 -519.5h-637q0 -188 72 -282t216 -94q120 0 302 51v-166q-168 -51 -349 -51zM592 1608h244l-256 -332h-201z
" />
    <glyph glyph-name="egrave" unicode="&#xe8;" horiz-adv-x="1092" 
d="M371 674h370q0 206 -44 284t-128 78q-94 0 -143 -84t-55 -278zM612 -16q-262 0 -393 151t-131 453q0 267 128.5 432.5t358.5 165.5q212 0 322.5 -140.5t110.5 -519.5h-637q0 -188 72 -282t216 -94q120 0 302 51v-166q-168 -51 -349 -51zM529 1608l213 -332h-199l-258 332
h244z" />
    <glyph glyph-name="ecircumflex" unicode="&#xea;" horiz-adv-x="1092" 
d="M371 674h370q0 206 -44 284t-128 78q-94 0 -143 -84t-55 -278zM612 -16q-262 0 -393 151t-131 453q0 267 128.5 432.5t358.5 165.5q212 0 322.5 -140.5t110.5 -519.5h-637q0 -188 72 -282t216 -94q120 0 302 51v-166q-168 -51 -349 -51zM666 1597l219 -321h-178l-162 197
l-162 -197h-178l219 321h242z" />
    <glyph glyph-name="edieresis" unicode="&#xeb;" horiz-adv-x="1092" 
d="M371 674h370q0 206 -44 284t-128 78q-94 0 -143 -84t-55 -278zM612 -16q-262 0 -393 151t-131 453q0 267 128.5 432.5t358.5 165.5q212 0 322.5 -140.5t110.5 -519.5h-637q0 -188 72 -282t216 -94q120 0 302 51v-166q-168 -51 -349 -51zM756 1569q53 0 91 -39t38 -92
q0 -54 -38 -93.5t-91 -39.5q-54 0 -93.5 39.5t-39.5 93.5q0 53 39.5 92t93.5 39zM340 1569q54 0 92.5 -39t38.5 -92q0 -54 -38.5 -93.5t-92.5 -39.5q-53 0 -92 39.5t-39 93.5q0 53 39 92t92 39z" />
    <glyph glyph-name="iacute" unicode="&#xed;" horiz-adv-x="584" 
d="M168 0v1008h-129v161h399v-1169h-270zM335 1608h244l-256 -332h-201z" />
    <glyph glyph-name="igrave" unicode="&#xec;" horiz-adv-x="584" 
d="M168 0v1008h-129v161h399v-1169h-270zM255 1608l213 -332h-199l-258 332h244z" />
    <glyph glyph-name="icircumflex" unicode="&#xee;" horiz-adv-x="584" 
d="M168 0v1008h-129v161h399v-1169h-270zM415 1597l219 -321h-178l-162 197l-162 -197h-178l219 321h242z" />
    <glyph glyph-name="idieresis" unicode="&#xef;" horiz-adv-x="584" 
d="M168 0v1008h-129v161h399v-1169h-270zM503 1569q53 0 91 -39t38 -92q0 -54 -38 -93.5t-91 -39.5q-54 0 -93.5 39.5t-39.5 93.5q0 53 39.5 92t93.5 39zM87 1569q54 0 92.5 -39t38.5 -92q0 -54 -38.5 -93.5t-92.5 -39.5q-53 0 -92 39.5t-39 93.5q0 53 39 92t92 39z" />
    <glyph glyph-name="ntilde" unicode="&#xf1;" horiz-adv-x="1192" 
d="M342 995q121 191 350 191q184 0 276.5 -95t92.5 -284v-807h-273v774q0 133 -39.5 188.5t-121.5 55.5q-106 0 -162.5 -83.5t-56.5 -223.5v-711h-271v1169h158zM258 1296v60q0 104 56.5 162.5t152.5 58.5q77 0 156 -59q77 -60 117 -60q80 0 80 88v21h122v-41
q0 -95 -55 -161.5t-145 -66.5q-91 0 -168 60q-74 57 -111 57q-82 0 -82 -94v-25h-123z" />
    <glyph glyph-name="oacute" unicode="&#xf3;" horiz-adv-x="1182" 
d="M592 141q110 0 166.5 103t56.5 364q0 125 -25.5 222t-75.5 147.5t-122 50.5q-112 0 -167.5 -105t-55.5 -315q0 -234 55.5 -350.5t167.5 -116.5zM592 -16q-250 0 -377 157.5t-127 460.5q0 269 132 426.5t372 157.5q242 0 372 -156t130 -434q0 -284 -123.5 -448
t-378.5 -164zM631 1608h244l-256 -332h-201z" />
    <glyph glyph-name="ograve" unicode="&#xf2;" horiz-adv-x="1182" 
d="M592 141q110 0 166.5 103t56.5 364q0 125 -25.5 222t-75.5 147.5t-122 50.5q-112 0 -167.5 -105t-55.5 -315q0 -234 55.5 -350.5t167.5 -116.5zM592 -16q-250 0 -377 157.5t-127 460.5q0 269 132 426.5t372 157.5q242 0 372 -156t130 -434q0 -284 -123.5 -448
t-378.5 -164zM547 1608l213 -332h-199l-258 332h244z" />
    <glyph glyph-name="ocircumflex" unicode="&#xf4;" horiz-adv-x="1182" 
d="M592 141q110 0 166.5 103t56.5 364q0 125 -25.5 222t-75.5 147.5t-122 50.5q-112 0 -167.5 -105t-55.5 -315q0 -234 55.5 -350.5t167.5 -116.5zM592 -16q-250 0 -377 157.5t-127 460.5q0 269 132 426.5t372 157.5q242 0 372 -156t130 -434q0 -284 -123.5 -448
t-378.5 -164zM713 1597l219 -321h-178l-162 197l-162 -197h-178l219 321h242z" />
    <glyph glyph-name="odieresis" unicode="&#xf6;" horiz-adv-x="1182" 
d="M592 141q110 0 166.5 103t56.5 364q0 125 -25.5 222t-75.5 147.5t-122 50.5q-112 0 -167.5 -105t-55.5 -315q0 -234 55.5 -350.5t167.5 -116.5zM592 -16q-250 0 -377 157.5t-127 460.5q0 269 132 426.5t372 157.5q242 0 372 -156t130 -434q0 -284 -123.5 -448
t-378.5 -164zM799 1569q53 0 91 -39t38 -92q0 -54 -38 -93.5t-91 -39.5q-54 0 -93.5 39.5t-39.5 93.5q0 53 39.5 92t93.5 39zM383 1569q54 0 92.5 -39t38.5 -92q0 -54 -38.5 -93.5t-92.5 -39.5q-53 0 -92 39.5t-39 93.5q0 53 39 92t92 39z" />
    <glyph glyph-name="otilde" unicode="&#xf5;" horiz-adv-x="1182" 
d="M592 141q110 0 166.5 103t56.5 364q0 125 -25.5 222t-75.5 147.5t-122 50.5q-112 0 -167.5 -105t-55.5 -315q0 -234 55.5 -350.5t167.5 -116.5zM592 -16q-250 0 -377 157.5t-127 460.5q0 269 132 426.5t372 157.5q242 0 372 -156t130 -434q0 -284 -123.5 -448
t-378.5 -164zM248 1296v60q0 104 56.5 162.5t152.5 58.5q77 0 156 -59q77 -60 117 -60q80 0 80 88v21h122v-41q0 -95 -55 -161.5t-145 -66.5q-91 0 -168 60q-74 57 -111 57q-82 0 -82 -94v-25h-123z" />
    <glyph glyph-name="uacute" unicode="&#xfa;" horiz-adv-x="1192" 
d="M852 174q-121 -190 -352 -190q-184 0 -275.5 94.5t-91.5 283.5v807h270v-774q0 -130 40.5 -186.5t123.5 -56.5q106 0 161.5 82.5t55.5 224.5v710h273v-1169h-160zM653 1608h244l-256 -332h-201z" />
    <glyph glyph-name="ugrave" unicode="&#xf9;" horiz-adv-x="1192" 
d="M852 174q-121 -190 -352 -190q-184 0 -275.5 94.5t-91.5 283.5v807h270v-774q0 -130 40.5 -186.5t123.5 -56.5q106 0 161.5 82.5t55.5 224.5v710h273v-1169h-160zM527 1608l213 -332h-199l-258 332h244z" />
    <glyph glyph-name="ucircumflex" unicode="&#xfb;" horiz-adv-x="1192" 
d="M852 174q-121 -190 -352 -190q-184 0 -275.5 94.5t-91.5 283.5v807h270v-774q0 -130 40.5 -186.5t123.5 -56.5q106 0 161.5 82.5t55.5 224.5v710h273v-1169h-160zM709 1597l219 -321h-178l-162 197l-162 -197h-178l219 321h242z" />
    <glyph glyph-name="udieresis" unicode="&#xfc;" horiz-adv-x="1192" 
d="M852 174q-121 -190 -352 -190q-184 0 -275.5 94.5t-91.5 283.5v807h270v-774q0 -130 40.5 -186.5t123.5 -56.5q106 0 161.5 82.5t55.5 224.5v710h273v-1169h-160zM801 1569q53 0 91 -39t38 -92q0 -54 -38 -93.5t-91 -39.5q-54 0 -93.5 39.5t-39.5 93.5q0 53 39.5 92
t93.5 39zM385 1569q54 0 92.5 -39t38.5 -92q0 -54 -38.5 -93.5t-92.5 -39.5q-53 0 -92 39.5t-39 93.5q0 53 39 92t92 39z" />
    <glyph glyph-name="dagger" unicode="&#x2020;" horiz-adv-x="1061" 
d="M428 913l-340 -16v217l340 -16l-25 450h254l-24 -450l340 16v-217l-340 16v-1052h-205v1052z" />
    <glyph glyph-name="degree" unicode="&#xb0;" horiz-adv-x="854" 
d="M422 1507q148 0 244 -93.5t96 -242.5q0 -147 -97 -242t-243 -95q-145 0 -240.5 95.5t-95.5 244.5q0 147 94 240t242 93zM424 975q81 0 135.5 55.5t54.5 140.5t-53.5 141t-136.5 56q-82 0 -136.5 -56.5t-54.5 -140.5q0 -85 55 -140.5t136 -55.5z" />
    <glyph glyph-name="cent" unicode="&#xa2;" horiz-adv-x="885" 
d="M840 221v-158q-80 -22 -176 -28v-187h-213v197q-181 40 -271 178t-90 375q0 210 91.5 344t269.5 176v203h213v-184q81 -3 167 -25v-166q-76 25 -192 25q-135 0 -202.5 -94t-67.5 -281q0 -199 68 -298t204 -99q119 0 199 22z" />
    <glyph glyph-name="sterling" unicode="&#xa3;" horiz-adv-x="1040" 
d="M997 176v-176h-942v158q168 28 168 307v219h-155v170h155v158q0 250 118.5 372.5t365.5 122.5q95 0 223 -26v-174q-119 28 -182 28q-140 0 -199.5 -79t-59.5 -281v-121h353v-170h-353v-180q0 -224 -145 -328h653z" />
    <glyph glyph-name="section" unicode="&#xa7;" horiz-adv-x="1098" 
d="M344 922q-95 47 -142.5 112t-47.5 148q0 154 124.5 239.5t337.5 85.5q183 0 330 -37v-167q-144 43 -289 43q-116 0 -173.5 -35t-57.5 -105q0 -64 48.5 -98.5t191.5 -93.5q202 -84 262.5 -166.5t60.5 -190.5q0 -92 -45 -162.5t-135 -119.5q79 -44 118.5 -107t39.5 -145
q0 -174 -125 -261t-375 -87q-157 0 -369 43v176q216 -53 344 -53q131 0 197 37.5t66 113.5q0 70 -55 110.5t-208 106.5q-202 89 -257.5 167t-55.5 171q0 92 53.5 161t161.5 114zM631 463q59 29 89 71t30 97q0 69 -54.5 116.5t-179.5 94.5q-68 -25 -107.5 -72t-39.5 -102
q0 -70 57 -110.5t205 -94.5z" />
    <glyph glyph-name="bullet" unicode="&#x2022;" horiz-adv-x="1143" 
d="M573 1098q153 0 260 -108.5t107 -260.5t-107.5 -261.5t-259.5 -109.5t-261 109.5t-109 261.5t108.5 260.5t261.5 108.5z" />
    <glyph glyph-name="paragraph" unicode="&#xb6;" horiz-adv-x="1212" 
d="M1165 1491v-172h-143v-1653h-174v1653h-189v-1653h-174v1077q-213 0 -319.5 92t-106.5 277q0 191 107.5 285t333.5 94h665z" />
    <glyph glyph-name="germandbls" unicode="&#xdf;" horiz-adv-x="1331" 
d="M137 0v1130q0 234 128 351.5t384 117.5q209 0 317.5 -80t108.5 -227q0 -82 -35.5 -138.5t-101.5 -121.5q-67 -64 -82.5 -96t-15.5 -62q0 -45 30 -82t152 -96q164 -81 212 -166t48 -192q0 -175 -109 -264.5t-317 -89.5q-134 0 -309 39v174q167 -50 272 -50q102 0 147.5 40
t45.5 124q0 57 -34.5 101t-150.5 100q-154 73 -204 146t-50 165q0 52 23 105t115 141q69 69 88.5 114.5t19.5 90.5q0 75 -48.5 120.5t-129.5 45.5q-117 0 -175 -71t-58 -212v-1157h-271z" />
    <glyph glyph-name="registered" unicode="&#xae;" horiz-adv-x="1765" 
d="M883 1507q343 0 571.5 -228t228.5 -572q0 -345 -228.5 -573t-571.5 -228q-344 0 -572.5 226t-228.5 575q0 348 229 574t572 226zM883 47q278 0 463.5 186.5t185.5 473.5q0 283 -184 471t-465 188q-284 0 -467 -189t-183 -470q0 -285 185 -472.5t465 -187.5zM1280 219
h-223l-201 404h-96v-404h-197v975h338q162 0 243 -68.5t81 -205.5q0 -102 -45.5 -170t-135.5 -101zM760 748h106q84 0 122 39t38 133q0 79 -35.5 114t-111.5 35h-119v-321z" />
    <glyph glyph-name="copyright" unicode="&#xa9;" horiz-adv-x="1765" 
d="M883 1507q343 0 571.5 -228t228.5 -572q0 -345 -228.5 -573t-571.5 -228q-344 0 -572.5 226t-228.5 575q0 348 229 574t572 226zM883 47q278 0 463.5 186.5t185.5 473.5q0 283 -184 471t-465 188q-284 0 -467 -189t-183 -470q0 -285 185 -472.5t465 -187.5zM1128 227
q-79 -22 -186 -22q-218 0 -327 128t-109 384q0 244 110.5 366.5t331.5 122.5q72 0 180 -26v-140q-97 31 -163 31q-127 0 -185.5 -81.5t-58.5 -268.5q0 -208 60.5 -294.5t189.5 -86.5q71 0 157 25v-138z" />
    <glyph glyph-name="trademark" unicode="&#x2122;" horiz-adv-x="1575" 
d="M1475 739h-177v496l-151 -246h-80l-149 242v-492h-179v752h150l219 -338l219 338h148v-752zM651 1354h-209v-615h-186v615h-207v137h602v-137z" />
    <glyph glyph-name="acute" unicode="&#xb4;" horiz-adv-x="682" 
d="M358 1608h244l-256 -332h-201z" />
    <glyph glyph-name="dieresis" unicode="&#xa8;" horiz-adv-x="682" 
d="M549 1569q53 0 91 -39t38 -92q0 -54 -38 -93.5t-91 -39.5q-54 0 -93.5 39.5t-39.5 93.5q0 53 39.5 92t93.5 39zM133 1569q54 0 92.5 -39t38.5 -92q0 -54 -38.5 -93.5t-92.5 -39.5q-53 0 -92 39.5t-39 93.5q0 53 39 92t92 39z" />
    <glyph glyph-name="notequal" unicode="&#x2260;" horiz-adv-x="1143" 
d="M1035 385h-526l-123 -279h-156l121 279h-243v221h327l115 246h-442v221h524l123 277h155l-120 -277h245v-221h-329l-115 -246h444v-221z" />
    <glyph glyph-name="AE" unicode="&#xc6;" horiz-adv-x="1554" 
d="M1507 172v-172h-753v336h-363l-123 -336h-266l582 1491h917v-172h-471v-426h385v-174h-385v-547h477zM453 504h301v811z" />
    <glyph glyph-name="Oslash" unicode="&#xd8;" horiz-adv-x="1278" 
d="M1055 1581h159l-157 -268q127 -179 127 -547q0 -405 -137 -593.5t-408 -188.5q-188 0 -313 96l-101 -172h-162l164 274q-131 194 -131 584q0 380 136.5 560.5t406.5 180.5q190 0 315 -92zM406 479l423 725q-60 131 -190 131q-125 0 -190.5 -120.5t-65.5 -448.5
q0 -177 23 -287zM877 1018l-424 -723q61 -139 186 -139t190.5 130.5t65.5 479.5q0 153 -18 252z" />
    <glyph glyph-name="infinity" unicode="&#x221e;" horiz-adv-x="1460" 
d="M679 862q135 221 324 221q136 0 226.5 -96t90.5 -262q0 -169 -90.5 -265t-226.5 -96q-186 0 -324 222q-61 -82 -139 -124t-148 -42q-102 0 -177 81t-75 224q0 87 29.5 151t87.5 107t135 43q161 0 287 -164zM785 727q89 -139 132 -167t90 -28q68 0 107.5 55t39.5 140
q0 93 -42.5 140.5t-102.5 47.5q-54 0 -103.5 -40t-120.5 -148zM581 729q-93 129 -176 129q-44 0 -73.5 -34t-29.5 -95t27.5 -97t75.5 -36q79 0 176 133z" />
    <glyph glyph-name="plusminus" unicode="&#xb1;" horiz-adv-x="1143" 
d="M1035 1012v-219h-354v-359h-219v359h-354v219h354v358h219v-358h354zM1035 340v-221h-927v221h927z" />
    <glyph glyph-name="lessequal" unicode="&#x2264;" horiz-adv-x="1143" 
d="M1036 389l-927 389v217l927 389v-221l-725 -276l725 -275v-223zM1036 119h-927v221h927v-221z" />
    <glyph glyph-name="greaterequal" unicode="&#x2265;" horiz-adv-x="1143" 
d="M1036 778l-927 -389v223l722 275l-722 276v221l927 -389v-217zM1036 119h-927v221h927v-221z" />
    <glyph glyph-name="yen" unicode="&#xa5;" horiz-adv-x="1081" 
d="M811 1491h248l-295 -729h231v-160h-295l-32 -78v-71h327v-160h-327v-293h-275v293h-315v160h315v69l-31 80h-284v160h223l-276 729h292l238 -717z" />
    <glyph glyph-name="uni00B5" unicode="&#xb5;" horiz-adv-x="1198" 
d="M901 0l-45 174q-111 -192 -324 -192q-68 0 -124 30v-346h-271v1503h271v-792q0 -126 39.5 -174.5t123.5 -48.5q107 0 163.5 82.5t56.5 222.5v710h270v-1169h-160z" />
    <glyph glyph-name="partialdiff" unicode="&#x2202;" horiz-adv-x="1012" 
d="M233 1227q49 135 142 210t217 75q172 0 276.5 -127.5t104.5 -416.5q0 -226 -37 -426t-111 -324.5t-175.5 -182.5t-223.5 -58q-161 0 -265.5 97t-104.5 266q0 239 185 419t525 185q0 205 -43 284t-135 79q-62 0 -107 -36.5t-88 -127.5zM751 745l-43 2q-84 0 -143.5 -15
t-123 -69t-99.5 -128.5t-36 -174.5q0 -172 138 -172q145 0 213.5 160.5t93.5 396.5z" />
    <glyph glyph-name="summation" unicode="&#x2211;" horiz-adv-x="1460" 
d="M139 1491h1237v-164h-988l607 -746l-649 -768h1040v-161h-1264v187l620 734l-603 743v175z" />
    <glyph glyph-name="uniF006" unicode="&#xf006;" horiz-adv-x="1413" 
d="M505 916v-916h-180v916h-280v146h1324v-146h-242v-916h-180v916h-442z" />
    <glyph glyph-name="integral" unicode="&#x222b;" horiz-adv-x="561" 
d="M434 1864q50 0 87.5 -34.5t37.5 -74.5q0 -43 -26 -72.5t-64 -29.5q-34 0 -78 35q-27 20 -39 20q-41 0 -41 -63q0 -33 11 -146q36 -412 36 -665q0 -27 -8.5 -334.5t-15.5 -384t-26 -147t-48 -111t-63.5 -58.5t-77.5 -18q-53 0 -86 32.5t-33 88.5q0 46 25 70.5t65 24.5
t70 -33q27 -27 49 -27q39 0 39 61q0 33 -10 119q-40 338 -40 662q0 87 10.5 416.5t17.5 378.5q14 97 44.5 163.5t76 96.5t87.5 30z" />
    <glyph glyph-name="ordfeminine" unicode="&#xaa;" horiz-adv-x="840" 
d="M725 713h-127l-25 102q-93 -115 -237 -115q-123 0 -190.5 62t-67.5 174q0 124 92.5 190t357.5 66v68q0 62 -33.5 89t-111.5 27q-92 0 -238 -41v135q157 37 277 37q151 0 227 -66t76 -198v-530zM528 981v98h-73q-92 0 -137.5 -35.5t-45.5 -105.5q0 -56 27 -83.5t82 -27.5
q69 0 108 41.5t39 112.5zM743 455h-655v147h655v-147z" />
    <glyph glyph-name="ordmasculine" unicode="&#xba;" horiz-adv-x="911" 
d="M457 1507q176 0 269 -105t93 -290q0 -206 -90.5 -309t-271.5 -103t-273 107t-92 309q0 181 94.5 286t270.5 105zM457 825q80 0 117.5 64t37.5 231q0 132 -39 198t-116 66q-79 0 -118.5 -66t-39.5 -198q0 -148 39.5 -221.5t118.5 -73.5zM811 455h-709v147h709v-147z" />
    <glyph glyph-name="uni2126" unicode="&#x2126;" horiz-adv-x="1573" 
d="M496 160q-108 67 -165 130q-87 96 -134 225.5t-47 286.5q0 196 79.5 360.5t231 252.5t347.5 88q336 0 516 -254q131 -186 131 -448q0 -168 -54 -297.5t-141 -222.5q-53 -58 -149 -121l364 6v-166h-575v177q80 40 124 78q72 61 122 145t75.5 179t25.5 198
q0 138 -49.5 277.5t-150 212.5t-243.5 73q-191 0 -296 -120q-146 -169 -146 -440q0 -217 91 -372.5t251 -227.5v-180h-577v168z" />
    <glyph glyph-name="ae" unicode="&#xe6;" horiz-adv-x="1688" 
d="M1604 526h-637q0 -188 72 -282t216 -94q120 0 301 51v-166q-167 -51 -348 -51q-293 0 -422 202q-122 -202 -366 -202q-166 0 -258 90.5t-92 253.5q0 128 57.5 210.5t183.5 123.5t385 43v114q0 99 -54.5 149t-162.5 50q-125 0 -307 -57v174q190 51 371 51q213 0 325 -131
q122 131 303 131q212 0 322.5 -140.5t110.5 -519.5zM1337 674q0 206 -44 284t-128 78q-94 0 -143 -84t-55 -278h370zM696 391v168h-96q-131 0 -196.5 -57t-65.5 -170q0 -90 39 -135t117 -45q98 0 150 62.5t52 176.5z" />
    <glyph glyph-name="oslash" unicode="&#xf8;" horiz-adv-x="1182" 
d="M1118 1274l-157 -240q133 -159 133 -438q0 -297 -128 -454.5t-374 -157.5q-166 0 -277 69l-96 -145h-156l152 233q-127 159 -127 461q0 269 132 426.5t372 157.5q157 0 270 -68l101 156h155zM743 940q-54 88 -151 88q-112 0 -167.5 -105t-55.5 -315q0 -131 18 -213z
M434 236q57 -95 158 -95q110 0 166.5 103t56.5 364q0 89 -22 174z" />
    <glyph glyph-name="questiondown" unicode="&#xbf;" horiz-adv-x="903" 
d="M565 1186q66 0 113 -47t47 -113q0 -65 -47 -111.5t-113 -46.5q-65 0 -111 46t-46 112t46 113t111 47zM854 -289q-166 -45 -309 -45q-226 0 -345.5 91.5t-119.5 269.5q0 73 34 150.5t163 205.5q96 96 128.5 143t32.5 109v88h254v-100q0 -102 -45 -175.5t-139 -162.5
q-98 -96 -122 -146.5t-24 -97.5q0 -100 57 -150.5t171 -50.5q117 0 264 43v-172z" />
    <glyph glyph-name="exclamdown" unicode="&#xa1;" horiz-adv-x="610" 
d="M305 1186q66 0 112 -47t46 -113t-46 -112t-112 -46t-112 46t-46 112t46.5 113t111.5 47zM453 -324h-291l28 1047h232z" />
    <glyph glyph-name="logicalnot" unicode="&#xac;" horiz-adv-x="1143" 
d="M1035 1016v-604h-221v383h-706v221h927z" />
    <glyph glyph-name="radical" unicode="&#x221a;" horiz-adv-x="1124" 
d="M1124 1870l-313 -1948l-496 1020l-196 -90l-35 63l301 152l406 -823l260 1626h73z" />
    <glyph glyph-name="florin" unicode="&#x192;" horiz-adv-x="1071" 
d="M418 1169q25 143 45.5 204.5t63.5 114t115 82t177 29.5q115 0 234 -18l-25 -166q-80 21 -154 21q-63 0 -97.5 -29.5t-48 -70t-38.5 -167.5h232l-29 -161h-234l-184 -990q-37 -201 -141.5 -279.5t-317.5 -78.5v160q82 0 121.5 33.5t61.5 148.5l188 1006h-213l27 161h217z
" />
    <glyph glyph-name="approxequal" unicode="&#x2248;" horiz-adv-x="979" 
d="M928 920q-133 -133 -242 -133q-53 0 -103 21t-141 75q-98 60 -150 60q-107 0 -241 -148v207q130 131 251 131q46 0 92.5 -19t140.5 -73q105 -61 158 -61q99 0 235 147v-207zM928 457q-133 -133 -242 -133q-53 0 -103 21t-141 75q-98 60 -150 60q-107 0 -241 -148v207
q130 131 251 131q46 0 92.5 -19t140.5 -73q105 -61 158 -61q99 0 235 147v-207z" />
    <glyph glyph-name="approxequal" unicode="&#x22f2;" horiz-adv-x="979" 
d="M928 920q-133 -133 -242 -133q-53 0 -103 21t-141 75q-98 60 -150 60q-107 0 -241 -148v207q130 131 251 131q46 0 92.5 -19t140.5 -73q105 -61 158 -61q99 0 235 147v-207zM928 457q-133 -133 -242 -133q-53 0 -103 21t-141 75q-98 60 -150 60q-107 0 -241 -148v207
q130 131 251 131q46 0 92.5 -19t140.5 -73q105 -61 158 -61q99 0 235 147v-207z" />
    <glyph glyph-name="uni2206" unicode="&#x2206;" horiz-adv-x="1253" 
d="M1227 0h-1200l626 1456zM989 82l-397 1036l-440 -1036h837z" />
    <glyph glyph-name="guillemotleft" unicode="&#xab;" horiz-adv-x="1057" 
d="M713 598l280 -446h-215l-266 393v106l266 393h215zM281 598l278 -446h-213l-268 393v106l268 393h213z" />
    <glyph glyph-name="guillemotright" unicode="&#xbb;" horiz-adv-x="1057" 
d="M977 651v-106l-266 -393h-215l280 446l-280 446h215zM545 651v-106l-266 -393h-216l281 446l-281 446h216z" />
    <glyph glyph-name="ellipsis" unicode="&#x2026;" horiz-adv-x="1554" 
d="M274 -16q-65 0 -111 46.5t-46 112.5t46 112t111 46q66 0 112 -46t46 -112t-46 -112.5t-112 -46.5zM795 -16q-66 0 -112 46.5t-46 112.5t46 112t112 46q65 0 111 -46t46 -112t-46 -112.5t-111 -46.5zM1315 -16q-66 0 -112 46.5t-46 112.5t46 112t112 46t112 -46t46 -112
t-46.5 -112.5t-111.5 -46.5z" />
    <glyph glyph-name="uni00A0" unicode="&#xa0;" horiz-adv-x="485" 
 />
    <glyph glyph-name="Agrave" unicode="&#xc0;" horiz-adv-x="1186" 
d="M756 496l-183 741l-188 -741h371zM883 0l-86 328h-451l-88 -328h-250l430 1491h324l412 -1491h-291zM549 1886l213 -332h-199l-258 332h244z" />
    <glyph glyph-name="Atilde" unicode="&#xc3;" horiz-adv-x="1186" 
d="M756 496l-183 741l-188 -741h371zM883 0l-86 328h-451l-88 -328h-250l430 1491h324l412 -1491h-291zM262 1561v60q0 104 56.5 162.5t152.5 58.5q77 0 156 -59q77 -60 117 -60q80 0 80 88v21h122v-41q0 -95 -55 -161.5t-145 -66.5q-91 0 -168 60q-74 57 -111 57
q-82 0 -82 -94v-25h-123z" />
    <glyph glyph-name="Otilde" unicode="&#xd5;" horiz-adv-x="1278" 
d="M638 156q125 0 190.5 130.5t65.5 479.5q0 316 -65 442.5t-191 126.5q-125 0 -190.5 -120.5t-65.5 -448.5q0 -323 65 -466.5t191 -143.5zM638 -16q-270 0 -406.5 189t-136.5 593q0 380 136.5 560.5t406.5 180.5q272 0 408.5 -185.5t136.5 -555.5q0 -403 -137 -592.5
t-408 -189.5zM301 1561v60q0 104 56.5 162.5t152.5 58.5q77 0 156 -59q77 -60 117 -60q80 0 80 88v21h122v-41q0 -95 -55 -161.5t-145 -66.5q-91 0 -168 60q-74 57 -111 57q-82 0 -82 -94v-25h-123z" />
    <glyph glyph-name="OE" unicode="&#x152;" horiz-adv-x="1675" 
d="M881 1405v86h741v-172h-473v-426h385v-174h-385v-547h479v-172h-747v88q-104 -102 -258 -102q-262 0 -394.5 190t-132.5 590q0 369 130.5 554t391.5 185q160 0 263 -100zM629 158q122 0 183.5 119t61.5 489q0 345 -61.5 456t-183.5 111t-184 -118.5t-62 -448.5
q0 -332 62 -470t184 -138z" />
    <glyph glyph-name="oe" unicode="&#x153;" horiz-adv-x="1808" 
d="M592 141q110 0 166.5 103t56.5 364q0 125 -25.5 222t-75.5 147.5t-122 50.5q-112 0 -167.5 -105t-55.5 -315q0 -234 55.5 -350.5t167.5 -116.5zM592 -16q-250 0 -377 157.5t-127 460.5q0 269 132 426.5t372 157.5q239 0 360 -176q115 176 340 176q212 0 322 -140.5
t110 -519.5h-637q0 -188 72 -282t217 -94q120 0 301 51v-166q-167 -51 -348 -51q-263 0 -381 172q-118 -172 -356 -172zM1087 674h371q0 206 -44 284t-128 78q-95 0 -144 -84t-55 -278z" />
    <glyph glyph-name="endash" unicode="&#x2013;" horiz-adv-x="1024" 
d="M956 719v-176h-888v176h888z" />
    <glyph glyph-name="emdash" unicode="&#x2014;" horiz-adv-x="2048" 
d="M1982 719v-176h-1912v176h1912z" />
    <glyph glyph-name="emdash" unicode="&#x2015;" horiz-adv-x="2048" 
d="M1982 719v-176h-1912v176h1912z" />
    <glyph glyph-name="quotedblleft" unicode="&#x201c;" horiz-adv-x="920" 
d="M684 1333q71 -2 113.5 -44t42.5 -107q0 -67 -46 -112.5t-114 -45.5q-75 0 -116.5 56t-41.5 145q0 239 238 387l76 -88q-126 -83 -152 -191zM244 1333q71 -2 113 -44t42 -107q0 -67 -46 -112.5t-113 -45.5q-75 0 -116.5 56t-41.5 145q0 239 237 387l76 -88
q-126 -83 -151 -191z" />
    <glyph glyph-name="quotedblright" unicode="&#x201d;" horiz-adv-x="920" 
d="M676 1290q-70 3 -112 45.5t-42 108.5q0 67 46 112.5t114 45.5q74 0 115 -56.5t41 -146.5q0 -241 -236 -387l-78 90q127 82 152 188zM236 1290q-71 3 -113.5 46t-42.5 108q0 67 46 112.5t114 45.5q74 0 115.5 -57t41.5 -146q0 -241 -235 -387l-78 90q127 82 152 188z" />
    <glyph glyph-name="quoteleft" unicode="&#x2018;" horiz-adv-x="479" 
d="M244 1331q71 -2 113 -44t42 -107q0 -67 -46 -112.5t-113 -45.5q-75 0 -116.5 56t-41.5 145q0 239 237 387l76 -88q-126 -83 -151 -191z" />
    <glyph glyph-name="quoteright" unicode="&#x2019;" horiz-adv-x="479" 
d="M236 1290q-71 3 -113.5 46t-42.5 108q0 67 46 112.5t114 45.5q74 0 115.5 -57t41.5 -146q0 -241 -235 -387l-78 90q127 82 152 188z" />
    <glyph glyph-name="divide" unicode="&#xf7;" horiz-adv-x="1143" 
d="M571 1245q60 0 103 -43t43 -102q0 -60 -43 -103t-103 -43q-59 0 -102 43t-43 103q0 59 42.5 102t102.5 43zM1035 618h-927v220h927v-220zM571 502q60 0 103 -42t43 -102t-43 -103.5t-103 -43.5q-59 0 -102 44t-43 103q0 60 42.5 102t102.5 42z" />
    <glyph glyph-name="lozenge" unicode="&#x25ca;" horiz-adv-x="1012" 
d="M962 763l-397 -763h-122l-397 763l397 763h122zM839 763l-335 652l-335 -652l335 -652z" />
    <glyph glyph-name="ydieresis" unicode="&#xff;" horiz-adv-x="1020" 
d="M326 49l-314 1120h281l231 -913l244 913h240l-353 -1206q-46 -157 -133.5 -230t-230.5 -73q-94 0 -203 23v172q98 -23 174 -23t119.5 43t85.5 174h-141zM721 1569q53 0 91 -39t38 -92q0 -54 -38 -93.5t-91 -39.5q-54 0 -93.5 39.5t-39.5 93.5q0 53 39.5 92t93.5 39z
M305 1569q54 0 92.5 -39t38.5 -92q0 -54 -38.5 -93.5t-92.5 -39.5q-53 0 -92 39.5t-39 93.5q0 53 39 92t92 39z" />
    <glyph glyph-name="Ydieresis" unicode="&#x178;" horiz-adv-x="1049" 
d="M377 0v522l-369 969h293l238 -707l256 707h245l-389 -967v-524h-274zM743 1835q53 0 91 -39t38 -92q0 -54 -38 -93.5t-91 -39.5q-54 0 -93.5 39.5t-39.5 93.5q0 53 39.5 92t93.5 39zM327 1835q54 0 92.5 -39t38.5 -92q0 -54 -38.5 -93.5t-92.5 -39.5q-53 0 -92 39.5
t-39 93.5q0 53 39 92t92 39z" />
    <glyph glyph-name="fraction" unicode="&#x2215;" horiz-adv-x="162" 
d="M406 1491h194l-844 -1491h-194z" />
    <glyph glyph-name="Euro" unicode="&#x20ac;" horiz-adv-x="1118" 
d="M1038 16q-119 -32 -243 -32q-248 0 -387 137t-170 411h-209l34 152h164l-2 78l2 67h-145l35 152h125q40 263 179.5 394.5t379.5 131.5q118 0 237 -32v-175q-118 35 -211 35q-127 0 -203.5 -88.5t-103.5 -265.5h510l-33 -152h-487l-2 -59q0 -59 2 -86h465l-33 -152h-422
q26 -188 105 -282t211 -94q93 0 202 30v-170z" />
    <glyph glyph-name="guilsinglleft" unicode="&#x2039;" horiz-adv-x="629" 
d="M287 598l278 -446h-219l-268 393v106l268 393h219z" />
    <glyph glyph-name="guilsinglright" unicode="&#x203a;" horiz-adv-x="629" 
d="M551 651v-106l-266 -393h-222l281 446l-281 446h222z" />
    <glyph glyph-name="fi" unicode="&#xfb01;" horiz-adv-x="1223" 
d="M735 1411q-80 27 -149 27q-95 0 -120.5 -57t-25.5 -212h199v-159h-199v-1010h-272v1010h-135v159h135q0 174 37 263t114 128t201 39q115 0 215 -24v-164zM942 1583q64 0 107 -38t43 -97q0 -61 -42 -99t-108 -38t-107.5 38t-41.5 99t41.5 98t107.5 37zM1077 0h-270v1010
h-127v159h397v-1169z" />
    <glyph glyph-name="fl" unicode="&#xfb02;" horiz-adv-x="1206" 
d="M735 1411q-80 27 -149 27q-95 0 -120.5 -57t-25.5 -212h201v-159h-201v-1010h-272v1010h-135v159h135q0 174 37 263t114 128t201 39q115 0 215 -24v-164zM1069 0h-270v1583h270v-1583z" />
    <glyph glyph-name="daggerdbl" unicode="&#x2021;" horiz-adv-x="1061" 
d="M428 918l-340 -17v215l340 -16l-25 448h254l-24 -448l340 16v-215l-340 17v-426l340 16v-215l-340 16l24 -448h-254l25 448l-340 -16v215l340 -16v426z" />
    <glyph glyph-name="periodcentered" unicode="&#x2219;" horiz-adv-x="524" 
d="M383 580h-242v276h242v-276z" />
    <glyph glyph-name="quotesinglbase" unicode="&#x201a;" horiz-adv-x="479" 
d="M238 -12q-71 2 -113.5 44t-42.5 107q0 67 46 112.5t114 45.5q74 0 115.5 -56t41.5 -145q0 -239 -237 -387l-76 88q126 83 152 191z" />
    <glyph glyph-name="quotedblbase" unicode="&#x201e;" horiz-adv-x="920" 
d="M678 -12q-71 2 -113.5 44t-42.5 107q0 67 46 112.5t114 45.5q74 0 116 -56t42 -145q0 -240 -236 -387l-78 88q126 83 152 191zM162 -291l-76 88q126 83 152 191q-71 2 -113.5 44t-42.5 107q0 67 46 112.5t114 45.5q74 0 115.5 -56t41.5 -145q0 -239 -237 -387z" />
    <glyph glyph-name="perthousand" unicode="&#x2030;" horiz-adv-x="2570" 
d="M412 1501q161 0 243 -99.5t82 -332.5q0 -255 -83.5 -354t-245.5 -99t-246 98t-84 355q0 227 84 329.5t250 102.5zM408 741q65 0 92.5 61t27.5 267q0 197 -29 252t-91 55t-91.5 -52.5t-29.5 -254.5q0 -206 27.5 -267t93.5 -61zM1415 1491l-844 -1491h-196l844 1491h196z
M2167 874q161 0 243 -99t82 -333q0 -257 -83 -354.5t-244 -97.5q-164 0 -248 99t-84 353q0 227 84 329.5t250 102.5zM2165 115q65 0 93 61t28 266q0 197 -29.5 252.5t-91.5 55.5q-64 0 -93.5 -55t-29.5 -253q0 -201 28 -264t95 -63zM1386 874q161 0 243.5 -99t82.5 -333
q0 -257 -83 -354.5t-245 -97.5t-245.5 97.5t-83.5 354.5q0 229 83.5 330.5t247.5 101.5zM1384 115q66 0 93.5 61t27.5 266q0 197 -29 252.5t-92 55.5q-61 0 -90.5 -53t-29.5 -255q0 -205 27.5 -266t92.5 -61z" />
    <glyph glyph-name="Acircumflex" unicode="&#xc2;" horiz-adv-x="1186" 
d="M756 496l-183 741l-188 -741h371zM883 0l-86 328h-451l-88 -328h-250l430 1491h324l412 -1491h-291zM715 1880l219 -321h-178l-162 197l-162 -197h-178l219 321h242z" />
    <glyph glyph-name="Ecircumflex" unicode="&#xca;" horiz-adv-x="969" 
d="M147 0v1491h766v-172h-491v-426h397v-174h-397v-547h500v-172h-775zM641 1880l219 -321h-178l-162 197l-162 -197h-178l219 321h242z" />
    <glyph glyph-name="Aacute" unicode="&#xc1;" horiz-adv-x="1186" 
d="M756 496l-183 741l-188 -741h371zM883 0l-86 328h-451l-88 -328h-250l430 1491h324l412 -1491h-291zM647 1886h244l-256 -332h-201z" />
    <glyph glyph-name="Edieresis" unicode="&#xcb;" horiz-adv-x="969" 
d="M147 0v1491h766v-172h-491v-426h397v-174h-397v-547h500v-172h-775zM721 1835q53 0 91 -39t38 -92q0 -54 -38 -93.5t-91 -39.5q-54 0 -93.5 39.5t-39.5 93.5q0 53 39.5 92t93.5 39zM305 1835q54 0 92.5 -39t38.5 -92q0 -54 -38.5 -93.5t-92.5 -39.5q-53 0 -92 39.5
t-39 93.5q0 53 39 92t92 39z" />
    <glyph glyph-name="Egrave" unicode="&#xc8;" horiz-adv-x="969" 
d="M147 0v1491h766v-172h-491v-426h397v-174h-397v-547h500v-172h-775zM471 1886l213 -332h-199l-258 332h244z" />
    <glyph glyph-name="Iacute" unicode="&#xcd;" horiz-adv-x="664" 
d="M70 0v172h123v1147h-123v172h522v-172h-123v-1147h123v-172h-522zM395 1886h244l-256 -332h-201z" />
    <glyph glyph-name="Icircumflex" unicode="&#xce;" horiz-adv-x="664" 
d="M70 0v172h123v1147h-123v172h522v-172h-123v-1147h123v-172h-522zM454 1880l219 -321h-178l-162 197l-162 -197h-178l219 321h242z" />
    <glyph glyph-name="Idieresis" unicode="&#xcf;" horiz-adv-x="664" 
d="M70 0v172h123v1147h-123v172h522v-172h-123v-1147h123v-172h-522zM542 1835q53 0 91 -39t38 -92q0 -54 -38 -93.5t-91 -39.5q-54 0 -93.5 39.5t-39.5 93.5q0 53 39.5 92t93.5 39zM126 1835q54 0 92.5 -39t38.5 -92q0 -54 -38.5 -93.5t-92.5 -39.5q-53 0 -92 39.5
t-39 93.5q0 53 39 92t92 39z" />
    <glyph glyph-name="Igrave" unicode="&#xcc;" horiz-adv-x="664" 
d="M70 0v172h123v1147h-123v172h522v-172h-123v-1147h123v-172h-522zM272 1886l213 -332h-199l-258 332h244z" />
    <glyph glyph-name="Oacute" unicode="&#xd3;" horiz-adv-x="1278" 
d="M638 156q125 0 190.5 130.5t65.5 479.5q0 316 -65 442.5t-191 126.5q-125 0 -190.5 -120.5t-65.5 -448.5q0 -323 65 -466.5t191 -143.5zM638 -16q-270 0 -406.5 189t-136.5 593q0 380 136.5 560.5t406.5 180.5q272 0 408.5 -185.5t136.5 -555.5q0 -403 -137 -592.5
t-408 -189.5zM682 1886h244l-256 -332h-201z" />
    <glyph glyph-name="Ocircumflex" unicode="&#xd4;" horiz-adv-x="1278" 
d="M638 156q125 0 190.5 130.5t65.5 479.5q0 316 -65 442.5t-191 126.5q-125 0 -190.5 -120.5t-65.5 -448.5q0 -323 65 -466.5t191 -143.5zM638 -16q-270 0 -406.5 189t-136.5 593q0 380 136.5 560.5t406.5 180.5q272 0 408.5 -185.5t136.5 -555.5q0 -403 -137 -592.5
t-408 -189.5zM756 1880l219 -321h-178l-162 197l-162 -197h-178l219 321h242z" />
    <glyph glyph-name="Ograve" unicode="&#xd2;" horiz-adv-x="1278" 
d="M638 156q125 0 190.5 130.5t65.5 479.5q0 316 -65 442.5t-191 126.5q-125 0 -190.5 -120.5t-65.5 -448.5q0 -323 65 -466.5t191 -143.5zM638 -16q-270 0 -406.5 189t-136.5 593q0 380 136.5 560.5t406.5 180.5q272 0 408.5 -185.5t136.5 -555.5q0 -403 -137 -592.5
t-408 -189.5zM588 1886l213 -332h-199l-258 332h244z" />
    <glyph glyph-name="Uacute" unicode="&#xda;" horiz-adv-x="1264" 
d="M635 -16q-252 0 -372 115.5t-120 355.5v1036h275v-1053q0 -151 51 -217.5t164 -66.5t163 65.5t50 218.5v1053h274v-1042q0 -229 -124 -347t-361 -118zM680 1886h244l-256 -332h-201z" />
    <glyph glyph-name="Ucircumflex" unicode="&#xdb;" horiz-adv-x="1264" 
d="M635 -16q-252 0 -372 115.5t-120 355.5v1036h275v-1053q0 -151 51 -217.5t164 -66.5t163 65.5t50 218.5v1053h274v-1042q0 -229 -124 -347t-361 -118zM748 1880l219 -321h-178l-162 197l-162 -197h-178l219 321h242z" />
    <glyph glyph-name="Ugrave" unicode="&#xd9;" horiz-adv-x="1264" 
d="M635 -16q-252 0 -372 115.5t-120 355.5v1036h275v-1053q0 -151 51 -217.5t164 -66.5t163 65.5t50 218.5v1053h274v-1042q0 -229 -124 -347t-361 -118zM563 1886l213 -332h-199l-258 332h244z" />
    <glyph glyph-name="dotlessi" unicode="&#x131;" horiz-adv-x="584" 
d="M168 0v1008h-129v161h399v-1169h-270z" />
    <glyph glyph-name="circumflex" unicode="&#x2c6;" horiz-adv-x="682" 
d="M463 1597l219 -321h-178l-162 197l-162 -197h-178l219 321h242z" />
    <glyph glyph-name="tilde" unicode="&#x2dc;" horiz-adv-x="717" 
d="M16 1296v60q0 104 56.5 162.5t152.5 58.5q77 0 156 -59q77 -60 117 -60q80 0 80 88v21h122v-41q0 -95 -55 -161.5t-145 -66.5q-91 0 -168 60q-74 57 -111 57q-82 0 -82 -94v-25h-123z" />
    <glyph glyph-name="macron" unicode="&#x2c9;" horiz-adv-x="682" 
d="M633 1513v-163h-584v163h584z" />
    <glyph glyph-name="breve" unicode="&#x2d8;" horiz-adv-x="682" 
d="M524 1593h156q-39 -159 -123.5 -238t-214.5 -79q-132 0 -216.5 79t-121.5 238h156q19 -81 64.5 -121t117.5 -40t117.5 40t64.5 121z" />
    <glyph glyph-name="dotaccent" unicode="&#x2d9;" horiz-adv-x="682" 
d="M342 1585q64 0 107 -38t43 -97q0 -62 -42 -98.5t-108 -36.5t-107.5 37t-41.5 98q0 62 41.5 98.5t107.5 36.5z" />
    <glyph glyph-name="ring" unicode="&#x2da;" horiz-adv-x="682" 
d="M342 1677q93 0 150 -59.5t57 -147.5q0 -92 -57.5 -151t-149.5 -59q-87 0 -148 59t-61 151q0 89 58.5 148t150.5 59zM342 1358q48 0 76 31t28 81q0 49 -28 79t-76 30t-77 -30t-29 -79q0 -50 28 -81t78 -31z" />
    <glyph glyph-name="cedilla" unicode="&#xb8;" horiz-adv-x="682" 
d="M354 27v-58q72 0 113 -36t41 -97q0 -90 -83.5 -136t-250.5 -48v115q95 3 132.5 19.5t37.5 53.5q0 65 -113 68l7 119h116z" />
    <glyph glyph-name="hungarumlaut" unicode="&#x2dd;" horiz-adv-x="682" 
d="M569 1608h217l-245 -332h-191zM207 1608h217l-246 -332h-190z" />
    <glyph glyph-name="ogonek" unicode="&#x2db;" horiz-adv-x="682" 
d="M444 0q-79 -57 -79 -137q0 -42 19 -63t58 -21q35 0 64 8v-121q-48 -10 -131 -10q-88 0 -143.5 44t-55.5 120q0 110 111 180h157z" />
    <glyph glyph-name="caron" unicode="&#x2c7;" horiz-adv-x="682" 
d="M504 1597h178l-219 -321h-242l-219 321h178l162 -198z" />
    <glyph glyph-name="Lslash" unicode="&#x141;" horiz-adv-x="965" 
d="M172 0v602l-152 -104v180l152 100v713h275v-547l227 154v-183l-227 -147v-596h485v-172h-760z" />
    <glyph glyph-name="lslash" unicode="&#x142;" horiz-adv-x="596" 
d="M162 0v623l-144 -101v176l144 99v786h272v-618l144 100v-178l-144 -96v-791h-272z" />
    <glyph glyph-name="Scaron" unicode="&#x160;" horiz-adv-x="987" 
d="M399 -16q-163 0 -321 41v178q173 -47 307 -47q127 0 198.5 57t71.5 162q0 99 -59 155.5t-219 147.5q-175 98 -236 197.5t-61 226.5q0 202 135.5 303.5t353.5 101.5q158 0 291 -30v-174q-141 32 -262 32q-110 0 -176 -52t-66 -144q0 -89 57.5 -142.5t196.5 -130.5
q192 -107 257 -207t65 -225q0 -225 -133.5 -337.5t-399.5 -112.5zM656 1880h178l-219 -321h-242l-219 321h178l162 -198z" />
    <glyph glyph-name="scaron" unicode="&#x161;" horiz-adv-x="889" 
d="M389 -16q-150 0 -323 41v174q171 -52 282 -52q103 0 155 40.5t52 121.5q0 48 -29 89.5t-164 109.5q-91 47 -145.5 86.5t-90.5 102.5t-36 157q0 156 115 244t295 88q156 0 284 -39v-166q-125 43 -239 43q-93 0 -139 -38t-46 -114q0 -40 27.5 -75t157.5 -99
q182 -89 231 -174t49 -188q0 -174 -112 -263t-324 -89zM604 1597h178l-219 -321h-242l-219 321h178l162 -198z" />
    <glyph glyph-name="Zcaron" unicode="&#x17d;" horiz-adv-x="975" 
d="M39 0v129l565 1190h-528v172h848v-129l-566 -1190h557v-172h-876zM649 1880h178l-219 -321h-242l-219 321h178l162 -198z" />
    <glyph glyph-name="zcaron" unicode="&#x17e;" horiz-adv-x="952" 
d="M43 0v154l532 843h-497v172h815v-151l-535 -846h547v-172h-862zM633 1597h178l-219 -321h-242l-219 321h178l162 -198z" />
    <glyph glyph-name="brokenbar" unicode="&#xa6;" horiz-adv-x="774" 
d="M492 1583v-790h-209v790h209zM492 457v-791h-209v791h209z" />
    <glyph glyph-name="Eth" unicode="&#xd0;" horiz-adv-x="1296" 
d="M473 1321v-453h256v-174h-256v-522h125q154 0 235.5 126t81.5 474q0 299 -80 424t-243 125h-119zM197 1491h426q290 0 433.5 -172.5t143.5 -546.5q0 -399 -148.5 -585.5t-447.5 -186.5h-407v694h-142v174h142v623zM51 0z" />
    <glyph glyph-name="eth" unicode="&#xf0;" horiz-adv-x="1182" 
d="M592 141q111 0 167 100.5t56 331.5q0 181 -57 291.5t-166 110.5q-112 0 -167.5 -100.5t-55.5 -301.5q0 -216 55.5 -324t167.5 -108zM592 -16q-242 0 -373 151t-131 434q0 264 129 414t334 150q117 0 197 -62q-63 128 -177 234l-176 -117l-76 108l148 95q-76 58 -143 88
l94 127q103 -45 209 -115l170 113l75 -107l-135 -88q357 -306 357 -823q0 -292 -131.5 -447t-370.5 -155z" />
    <glyph glyph-name="Yacute" unicode="&#xdd;" horiz-adv-x="1049" 
d="M377 0v522l-369 969h293l238 -707l256 707h245l-389 -967v-524h-274zM619 1886h244l-256 -332h-201z" />
    <glyph glyph-name="yacute" unicode="&#xfd;" horiz-adv-x="1020" 
d="M326 49l-314 1120h281l231 -913l244 913h240l-353 -1206q-46 -157 -133.5 -230t-230.5 -73q-94 0 -203 23v172q98 -23 174 -23t119.5 43t85.5 174h-141zM565 1608h244l-256 -332h-201z" />
    <glyph glyph-name="Thorn" unicode="&#xde;" horiz-adv-x="1126" 
d="M422 1124v-628h102q133 0 192.5 73.5t59.5 251.5q0 171 -54.5 237t-176.5 66h-123zM422 1292h168q241 0 354 -111.5t113 -353.5q0 -243 -128.5 -371t-381.5 -128h-125v-328h-275v1491h275v-199z" />
    <glyph glyph-name="thorn" unicode="&#xfe;" horiz-adv-x="1180" 
d="M408 598v-436q55 -8 145 -8q133 0 197.5 106.5t64.5 351.5q0 203 -50 304.5t-149 101.5q-101 0 -154.5 -80t-53.5 -340zM408 1069q55 58 126 87.5t158 29.5q201 0 301.5 -144.5t100.5 -433.5q0 -292 -140 -455t-389 -163q-69 0 -157 4v-328h-271v1917h271v-514z" />
    <glyph glyph-name="minus" unicode="&#x2212;" horiz-adv-x="1143" 
d="M1026 840v-222h-909v222h909z" />
    <glyph glyph-name="multiply" unicode="&#xd7;" horiz-adv-x="1143" 
d="M1004 453l-156 -156l-277 276l-274 -276l-158 156l277 276l-277 277l158 155l276 -276l275 276l156 -155l-277 -277z" />
    <glyph glyph-name="onesuperior" unicode="&#xb9;" horiz-adv-x="815" 
d="M731 745v-120h-614v120h211v594l-211 -43v123l305 82h108v-756h201z" />
    <glyph glyph-name="twosuperior" unicode="&#xb2;" horiz-adv-x="815" 
d="M705 754v-129h-623v73q0 97 53.5 186t208.5 197q99 70 122 104.5t23 67.5q0 59 -38 89t-113 30q-83 0 -223 -43v133q145 39 264 39q156 0 238.5 -60t82.5 -175q0 -67 -37.5 -129.5t-168.5 -155.5q-127 -88 -166.5 -137.5t-44.5 -89.5h422z" />
    <glyph glyph-name="threesuperior" unicode="&#xb3;" horiz-adv-x="815" 
d="M172 1143q199 0 249 27.5t50 95.5q0 58 -35.5 82t-111.5 24q-72 0 -205 -31v132q126 28 237 28q161 0 241.5 -55.5t80.5 -165.5q0 -136 -156 -195q81 -20 124.5 -72.5t43.5 -125.5q0 -136 -92 -204t-276 -68q-108 0 -232 30v129q146 -31 221 -31q87 0 130.5 35.5
t43.5 106.5q0 76 -51.5 106.5t-261.5 30.5v121z" />
    <glyph glyph-name="onehalf" unicode="&#xbd;" horiz-adv-x="1790" 
d="M731 745v-120h-614v120h211v594l-211 -43v123l305 82h108v-756h201zM1219 1491h194l-844 -1491h-194zM1682 130v-129h-623v73q0 97 53.5 186t208.5 197q99 70 122 104.5t23 67.5q0 59 -38 89t-113 30q-83 0 -223 -43v133q145 39 264 39q156 0 238.5 -60t82.5 -175
q0 -67 -37.5 -129.5t-168.5 -155.5q-127 -88 -166.5 -137.5t-44.5 -89.5h422z" />
    <glyph glyph-name="onequarter" unicode="&#xbc;" horiz-adv-x="1790" 
d="M731 745v-120h-614v120h211v594l-211 -43v123l305 82h108v-756h201zM1219 1491h194l-844 -1491h-194zM1726 191h-102v-190h-201v190h-409v111l420 569h190v-555h102v-125zM1423 316v328l-235 -328h235z" />
    <glyph glyph-name="threequarters" unicode="&#xbe;" horiz-adv-x="1790" 
d="M172 1143q199 0 249 27.5t50 95.5q0 58 -35.5 82t-111.5 24q-72 0 -205 -31v132q126 28 237 28q161 0 241.5 -55.5t80.5 -165.5q0 -136 -156 -195q81 -20 124.5 -72.5t43.5 -125.5q0 -136 -92 -204t-276 -68q-108 0 -232 30v129q146 -31 221 -31q87 0 130.5 35.5
t43.5 106.5q0 76 -51.5 106.5t-261.5 30.5v121zM1219 1491h194l-844 -1491h-194zM1726 191h-102v-190h-201v190h-409v111l420 569h190v-555h102v-125zM1423 316v328l-235 -328h235z" />
    <glyph glyph-name="uni00AD" unicode="&#xad;" horiz-adv-x="690" 
d="M606 750v-238h-520v238h520z" />
    <glyph glyph-name="uni00AF" unicode="&#xaf;" horiz-adv-x="762" 
d="M768 1786v-152h-772v152h772z" />
    <glyph glyph-name="uni00B7" unicode="&#xb7;" horiz-adv-x="524" 
d="M383 580h-242v276h242v-276z" />
    <glyph glyph-name="uni2044" unicode="&#x2044;" horiz-adv-x="162" 
d="M406 1491h194l-844 -1491h-194z" />
    <glyph glyph-name="currency" unicode="&#xa4;" horiz-adv-x="1143" 
d="M877 528l118 -118l-104 -105l-119 117q-93 -64 -199 -64q-108 0 -202 64l-117 -117l-107 105l119 118q-63 94 -63 201q0 105 63 199l-119 121l107 104l117 -119q94 64 202 64q105 0 199 -64l119 119l104 -104l-118 -119q63 -94 63 -201q0 -106 -63 -201zM573 532
q81 0 138 58t57 139t-56.5 138t-138.5 57q-81 0 -139.5 -57t-58.5 -138t58.5 -139t139.5 -58z" />
    <glyph glyph-name="foursuperior" unicode="&#x2074;" horiz-adv-x="815" 
d="M751 815h-102v-190h-201v190h-409v111l420 569h190v-555h102v-125zM448 940v328l-235 -328h235z" />
    <glyph glyph-name="uniF001" unicode="&#xf001;" horiz-adv-x="1223" 
d="M735 1411q-80 27 -149 27q-95 0 -120.5 -57t-25.5 -212h199v-159h-199v-1010h-272v1010h-135v159h135q0 174 37 263t114 128t201 39q115 0 215 -24v-164zM942 1583q64 0 107 -38t43 -97q0 -61 -42 -99t-108 -38t-107.5 38t-41.5 99t41.5 98t107.5 37zM1077 0h-270v1010
h-127v159h397v-1169z" />
    <glyph glyph-name="uniF002" unicode="&#xf002;" horiz-adv-x="1206" 
d="M735 1411q-80 27 -149 27q-95 0 -120.5 -57t-25.5 -212h201v-159h-201v-1010h-272v1010h-135v159h135q0 174 37 263t114 128t201 39q115 0 215 -24v-164zM1069 0h-270v1583h270v-1583z" />
    <glyph glyph-name="Amacron" unicode="&#x100;" horiz-adv-x="1186" 
d="M756 496l-183 741l-188 -741h371zM883 0l-86 328h-451l-88 -328h-250l430 1491h324l412 -1491h-291zM885 1780v-163h-584v163h584z" />
    <glyph glyph-name="amacron" unicode="&#x101;" horiz-adv-x="1100" 
d="M696 559h-96q-131 0 -196.5 -57t-65.5 -170q0 -90 39 -135t117 -45q98 0 150 62.5t52 176.5v168zM766 168q-120 -184 -346 -184q-166 0 -258 90.5t-92 253.5q0 128 57.5 210.5t183.5 123.5t385 43v114q0 99 -54.5 149t-162.5 50q-125 0 -307 -57v174q190 51 371 51
q208 0 317 -95.5t109 -281.5v-809h-158zM817 1513v-163h-584v163h584z" />
    <glyph glyph-name="Abreve" unicode="&#x102;" horiz-adv-x="1186" 
d="M756 496l-183 741l-188 -741h371zM883 0l-86 328h-451l-88 -328h-250l430 1491h324l412 -1491h-291zM782 1876h156q-39 -159 -123.5 -238t-214.5 -79q-132 0 -216.5 79t-121.5 238h156q19 -81 64.5 -121t117.5 -40t117.5 40t64.5 121z" />
    <glyph glyph-name="abreve" unicode="&#x103;" horiz-adv-x="1100" 
d="M696 559h-96q-131 0 -196.5 -57t-65.5 -170q0 -90 39 -135t117 -45q98 0 150 62.5t52 176.5v168zM766 168q-120 -184 -346 -184q-166 0 -258 90.5t-92 253.5q0 128 57.5 210.5t183.5 123.5t385 43v114q0 99 -54.5 149t-162.5 50q-125 0 -307 -57v174q190 51 371 51
q208 0 317 -95.5t109 -281.5v-809h-158zM718 1593h156q-39 -159 -123.5 -238t-214.5 -79q-132 0 -216.5 79t-121.5 238h156q19 -81 64.5 -121t117.5 -40t117.5 40t64.5 121z" />
    <glyph glyph-name="Aogonek" unicode="&#x104;" horiz-adv-x="1186" 
d="M756 496l-183 741l-188 -741h371zM883 0l-86 328h-451l-88 -328h-250l430 1491h324l412 -1491q-80 -58 -80 -137q0 -84 77 -84q32 0 64 8v-121q-47 -10 -131 -10q-90 0 -144.5 43.5t-54.5 120.5q0 111 111 180h-133z" />
    <glyph glyph-name="aogonek" unicode="&#x105;" horiz-adv-x="1100" 
d="M696 559h-96q-131 0 -196.5 -57t-65.5 -170q0 -90 39 -135t117 -45q101 0 151.5 59.5t50.5 179.5v168zM766 168q-122 -184 -346 -184q-165 0 -257.5 90t-92.5 254q0 128 57.5 210.5t183.5 123.5t385 41v116q0 99 -54.5 149t-162.5 50q-117 0 -307 -57v174q196 51 371 51
q213 0 319.5 -94.5t106.5 -282.5v-809q-80 -58 -80 -137q0 -84 78 -84q31 0 63 8v-121q-47 -10 -131 -10q-90 0 -144.5 43.5t-54.5 120.5q0 111 111 180z" />
    <glyph glyph-name="Cacute" unicode="&#x106;" horiz-adv-x="961" 
d="M668 -16q-285 0 -428.5 181.5t-143.5 596.5q0 372 144.5 558.5t433.5 186.5q118 0 237 -32v-175q-118 35 -211 35q-159 0 -238 -141.5t-79 -423.5q0 -328 81.5 -471t244.5 -143q95 0 202 30v-170q-119 -32 -243 -32zM627 1886h244l-256 -332h-201z" />
    <glyph glyph-name="cacute" unicode="&#x107;" horiz-adv-x="883" 
d="M588 -16q-250 0 -375 153.5t-125 460.5q0 285 135 436.5t395 151.5q103 0 211 -25v-166q-76 25 -190 25q-135 0 -202.5 -106t-67.5 -318q0 -223 67.5 -334.5t202.5 -111.5q120 0 201 22v-158q-113 -30 -252 -30zM580 1608h244l-256 -332h-201z" />
    <glyph glyph-name="Ccircumflex" unicode="&#x108;" horiz-adv-x="961" 
d="M668 -16q-285 0 -428.5 181.5t-143.5 596.5q0 372 144.5 558.5t433.5 186.5q118 0 237 -32v-175q-118 35 -211 35q-159 0 -238 -141.5t-79 -423.5q0 -328 81.5 -471t244.5 -143q95 0 202 30v-170q-119 -32 -243 -32zM684 1880l219 -321h-178l-162 197l-162 -197h-178
l219 321h242z" />
    <glyph glyph-name="ccircumflex" unicode="&#x109;" horiz-adv-x="883" 
d="M588 -16q-250 0 -375 153.5t-125 460.5q0 285 135 436.5t395 151.5q103 0 211 -25v-166q-76 25 -190 25q-135 0 -202.5 -106t-67.5 -318q0 -223 67.5 -334.5t202.5 -111.5q120 0 201 22v-158q-113 -30 -252 -30zM615 1597l219 -321h-178l-162 197l-162 -197h-178l219 321
h242z" />
    <glyph glyph-name="Cdotaccent" unicode="&#x10a;" horiz-adv-x="961" 
d="M668 -16q-285 0 -428.5 181.5t-143.5 596.5q0 372 144.5 558.5t433.5 186.5q118 0 237 -32v-175q-118 35 -211 35q-159 0 -238 -141.5t-79 -423.5q0 -328 81.5 -471t244.5 -143q95 0 202 30v-170q-119 -32 -243 -32zM593 1841q64 0 107 -38t43 -97q0 -62 -42 -98.5
t-108 -36.5t-107.5 37t-41.5 98q0 62 41.5 98.5t107.5 36.5z" />
    <glyph glyph-name="cdotaccent" unicode="&#x10b;" horiz-adv-x="883" 
d="M588 -16q-250 0 -375 153.5t-125 460.5q0 285 135 436.5t395 151.5q103 0 211 -25v-166q-76 25 -190 25q-135 0 -202.5 -106t-67.5 -318q0 -223 67.5 -334.5t202.5 -111.5q120 0 201 22v-158q-113 -30 -252 -30zM555 1585q64 0 107 -38t43 -97q0 -62 -42 -98.5
t-108 -36.5t-107.5 37t-41.5 98q0 62 41.5 98.5t107.5 36.5z" />
    <glyph glyph-name="Ccaron" unicode="&#x10c;" horiz-adv-x="961" 
d="M668 -16q-285 0 -428.5 181.5t-143.5 596.5q0 372 144.5 558.5t433.5 186.5q118 0 237 -32v-175q-118 35 -211 35q-159 0 -238 -141.5t-79 -423.5q0 -328 81.5 -471t244.5 -143q95 0 202 30v-170q-119 -32 -243 -32zM723 1880h178l-219 -321h-242l-219 321h178l162 -198z
" />
    <glyph glyph-name="ccaron" unicode="&#x10d;" horiz-adv-x="883" 
d="M588 -16q-250 0 -375 153.5t-125 460.5q0 285 135 436.5t395 151.5q103 0 211 -25v-166q-76 25 -190 25q-135 0 -202.5 -106t-67.5 -318q0 -223 67.5 -334.5t202.5 -111.5q120 0 201 22v-158q-113 -30 -252 -30zM651 1597h178l-219 -321h-242l-219 321h178l162 -198z" />
    <glyph glyph-name="Dcaron" unicode="&#x10e;" horiz-adv-x="1245" 
d="M422 1321v-1149h125q156 0 237.5 125.5t81.5 462.5q0 299 -80 430t-243 131h-121zM147 1491h424q292 0 436 -173t144 -546q0 -408 -151.5 -590t-458.5 -182h-394v1491zM756 1880h178l-219 -321h-242l-219 321h178l162 -198z" />
    <glyph glyph-name="dcaron" unicode="&#x10f;" horiz-adv-x="1423" 
d="M783 530q0 178 -9 267t-53 158t-141 69q-106 0 -159.5 -100t-53.5 -324t52.5 -336t158.5 -112q99 0 152 74.5t53 303.5zM846 150q-106 -166 -326 -166q-216 0 -324 152t-108 456q0 269 114.5 431.5t329.5 162.5q163 0 246 -86v483h271v-1583h-156zM1212 1071l-69 82
q114 73 135 170q-61 1 -100 38.5t-39 98.5t41 102.5t102 41.5q66 0 103.5 -51.5t37.5 -133.5q0 -110 -53 -197t-158 -151z" />
    <glyph glyph-name="Dcroat" unicode="&#x110;" horiz-adv-x="1296" 
d="M473 1321v-453h256v-174h-256v-522h125q154 0 235.5 126t81.5 474q0 299 -80 424t-243 125h-119zM197 1491h426q290 0 433.5 -172.5t143.5 -546.5q0 -399 -148.5 -585.5t-447.5 -186.5h-407v694h-142v174h142v623zM51 0z" />
    <glyph glyph-name="dcroat" unicode="&#x111;" horiz-adv-x="1186" 
d="M783 530q0 178 -9 267t-53 158t-141 69q-106 0 -159.5 -100t-53.5 -324t52.5 -336t158.5 -112q99 0 152 74.5t53 303.5zM846 150q-106 -166 -326 -166q-216 0 -324 152t-108 456q0 269 114.5 431.5t329.5 162.5q163 0 246 -86v209h-246v155h246v119h271v-119h137v-155
h-137v-1309h-156z" />
    <glyph glyph-name="Emacron" unicode="&#x112;" horiz-adv-x="969" 
d="M147 0v1491h766v-172h-491v-426h397v-174h-397v-547h500v-172h-775zM825 1780v-163h-584v163h584z" />
    <glyph glyph-name="emacron" unicode="&#x113;" horiz-adv-x="1092" 
d="M371 674h370q0 206 -44 284t-128 78q-94 0 -143 -84t-55 -278zM612 -16q-262 0 -393 151t-131 453q0 267 128.5 432.5t358.5 165.5q212 0 322.5 -140.5t110.5 -519.5h-637q0 -188 72 -282t216 -94q120 0 302 51v-166q-168 -51 -349 -51zM838 1513v-163h-584v163h584z" />
    <glyph glyph-name="Ebreve" unicode="&#x114;" horiz-adv-x="969" 
d="M147 0v1491h766v-172h-491v-426h397v-174h-397v-547h500v-172h-775zM706 1876h156q-39 -159 -123.5 -238t-214.5 -79q-132 0 -216.5 79t-121.5 238h156q19 -81 64.5 -121t117.5 -40t117.5 40t64.5 121z" />
    <glyph glyph-name="ebreve" unicode="&#x115;" horiz-adv-x="1092" 
d="M371 674h370q0 206 -44 284t-128 78q-94 0 -143 -84t-55 -278zM612 -16q-262 0 -393 151t-131 453q0 267 128.5 432.5t358.5 165.5q212 0 322.5 -140.5t110.5 -519.5h-637q0 -188 72 -282t216 -94q120 0 302 51v-166q-168 -51 -349 -51zM729 1593h156
q-39 -159 -123.5 -238t-214.5 -79q-132 0 -216.5 79t-121.5 238h156q19 -81 64.5 -121t117.5 -40t117.5 40t64.5 121z" />
    <glyph glyph-name="Edotaccent" unicode="&#x116;" horiz-adv-x="969" 
d="M147 0v1491h766v-172h-491v-426h397v-174h-397v-547h500v-172h-775zM522 1841q64 0 107 -38t43 -97q0 -62 -42 -98.5t-108 -36.5t-107.5 37t-41.5 98q0 62 41.5 98.5t107.5 36.5z" />
    <glyph glyph-name="edotaccent" unicode="&#x117;" horiz-adv-x="1092" 
d="M371 674h370q0 206 -44 284t-128 78q-94 0 -143 -84t-55 -278zM612 -16q-262 0 -393 151t-131 453q0 267 128.5 432.5t358.5 165.5q212 0 322.5 -140.5t110.5 -519.5h-637q0 -188 72 -282t216 -94q120 0 302 51v-166q-168 -51 -349 -51zM546 1585q64 0 107 -38t43 -97
q0 -62 -42 -98.5t-108 -36.5t-107.5 37t-41.5 98q0 62 41.5 98.5t107.5 36.5z" />
    <glyph glyph-name="Eogonek" unicode="&#x118;" horiz-adv-x="969" 
d="M147 0v1491h766v-172h-491v-426h397v-174h-397v-547h500v-172h-27q-80 -58 -80 -137q0 -84 78 -84q31 0 63 8v-121q-47 -10 -131 -10q-89 0 -143.5 43.5t-54.5 120.5q0 111 110 180h-590z" />
    <glyph glyph-name="eogonek" unicode="&#x119;" horiz-adv-x="1092" 
d="M371 674h370q0 181 -43 271.5t-129 90.5q-91 0 -140.5 -80.5t-57.5 -281.5zM612 -16q-262 0 -393 151t-131 453q0 269 128.5 433.5t358.5 164.5q215 0 324 -140.5t109 -519.5h-637q0 -188 72 -282t216 -94q121 0 302 51v-166q-43 -32 -76 -82t-33 -90q0 -84 78 -84
q31 0 63 8v-121q-47 -10 -131 -10q-90 0 -144 43.5t-54 120.5q0 106 100 174q-83 -10 -152 -10z" />
    <glyph glyph-name="Ecaron" unicode="&#x11a;" horiz-adv-x="969" 
d="M147 0v1491h766v-172h-491v-426h397v-174h-397v-547h500v-172h-775zM682 1880h178l-219 -321h-242l-219 321h178l162 -198z" />
    <glyph glyph-name="ecaron" unicode="&#x11b;" horiz-adv-x="1092" 
d="M371 674h370q0 206 -44 284t-128 78q-94 0 -143 -84t-55 -278zM612 -16q-262 0 -393 151t-131 453q0 267 128.5 432.5t358.5 165.5q212 0 322.5 -140.5t110.5 -519.5h-637q0 -188 72 -282t216 -94q120 0 302 51v-166q-168 -51 -349 -51zM709 1597h178l-219 -321h-242
l-219 321h178l162 -198z" />
    <glyph glyph-name="Gcircumflex" unicode="&#x11c;" horiz-adv-x="1190" 
d="M600 -16q-250 0 -377 180.5t-127 599.5q0 362 157.5 552.5t465.5 190.5q158 0 297 -39v-170q-124 37 -277 37q-175 0 -265.5 -148.5t-90.5 -416.5q0 -353 66 -484.5t192 -131.5q80 0 127 56.5t47 149.5v279h-197v168h467v-807h-155l-41 133q-42 -70 -121 -109.5
t-168 -39.5zM764 1880l219 -321h-178l-162 197l-162 -197h-178l219 321h242z" />
    <glyph glyph-name="gcircumflex" unicode="&#x11d;" horiz-adv-x="1176" 
d="M772 635q0 212 -48 299.5t-144 87.5q-104 0 -158.5 -82.5t-54.5 -304.5q0 -202 50.5 -303t151.5 -101q100 0 151.5 75.5t51.5 328.5zM768 186q-88 -120 -276 -120q-202 0 -303 138t-101 414q0 263 114.5 415.5t329.5 152.5q201 0 302 -166l47 149h157v-1097
q0 -210 -127.5 -311t-339.5 -101q-182 0 -407 53v168q206 -51 352 -51q116 0 170 39t68 110t14 207zM688 1597l219 -321h-178l-162 197l-162 -197h-178l219 321h242z" />
    <glyph glyph-name="Gbreve" unicode="&#x11e;" horiz-adv-x="1190" 
d="M600 -16q-250 0 -377 180.5t-127 599.5q0 362 157.5 552.5t465.5 190.5q158 0 297 -39v-170q-124 37 -277 37q-175 0 -265.5 -148.5t-90.5 -416.5q0 -353 66 -484.5t192 -131.5q80 0 127 56.5t47 149.5v279h-197v168h467v-807h-155l-41 133q-42 -70 -121 -109.5
t-168 -39.5zM807 1876h156q-39 -159 -123.5 -238t-214.5 -79q-132 0 -216.5 79t-121.5 238h156q19 -81 64.5 -121t117.5 -40t117.5 40t64.5 121z" />
    <glyph glyph-name="gbreve" unicode="&#x11f;" horiz-adv-x="1176" 
d="M772 635q0 212 -48 299.5t-144 87.5q-104 0 -158.5 -82.5t-54.5 -304.5q0 -202 50.5 -303t151.5 -101q100 0 151.5 75.5t51.5 328.5zM768 186q-88 -120 -276 -120q-202 0 -303 138t-101 414q0 263 114.5 415.5t329.5 152.5q201 0 302 -166l47 149h157v-1097
q0 -210 -127.5 -311t-339.5 -101q-182 0 -407 53v168q206 -51 352 -51q116 0 170 39t68 110t14 207zM745 1593h156q-39 -159 -123.5 -238t-214.5 -79q-132 0 -216.5 79t-121.5 238h156q19 -81 64.5 -121t117.5 -40t117.5 40t64.5 121z" />
    <glyph glyph-name="Gdotaccent" unicode="&#x120;" horiz-adv-x="1190" 
d="M600 -16q-250 0 -377 180.5t-127 599.5q0 362 157.5 552.5t465.5 190.5q158 0 297 -39v-170q-124 37 -277 37q-175 0 -265.5 -148.5t-90.5 -416.5q0 -353 66 -484.5t192 -131.5q80 0 127 56.5t47 149.5v279h-197v168h467v-807h-155l-41 133q-42 -70 -121 -109.5
t-168 -39.5zM634 1841q64 0 107 -38t43 -97q0 -62 -42 -98.5t-108 -36.5t-107.5 37t-41.5 98q0 62 41.5 98.5t107.5 36.5z" />
    <glyph glyph-name="gdotaccent" unicode="&#x121;" horiz-adv-x="1176" 
d="M772 635q0 212 -48 299.5t-144 87.5q-104 0 -158.5 -82.5t-54.5 -304.5q0 -202 50.5 -303t151.5 -101q100 0 151.5 75.5t51.5 328.5zM768 186q-88 -120 -276 -120q-202 0 -303 138t-101 414q0 263 114.5 415.5t329.5 152.5q201 0 302 -166l47 149h157v-1097
q0 -210 -127.5 -311t-339.5 -101q-182 0 -407 53v168q206 -51 352 -51q116 0 170 39t68 110t14 207zM583 1585q64 0 107 -38t43 -97q0 -62 -42 -98.5t-108 -36.5t-107.5 37t-41.5 98q0 62 41.5 98.5t107.5 36.5z" />
    <glyph glyph-name="Gcommaaccent" unicode="&#x122;" horiz-adv-x="1190" 
d="M600 -16q-250 0 -377 180.5t-127 599.5q0 362 157.5 552.5t465.5 190.5q158 0 297 -39v-170q-124 37 -277 37q-175 0 -265.5 -148.5t-90.5 -416.5q0 -353 66 -484.5t192 -131.5q80 0 127 56.5t47 149.5v279h-197v168h467v-807h-155l-41 133q-42 -70 -121 -109.5
t-168 -39.5zM393 -348v121q44 2 131 16q-33 29 -33 74q0 106 125 106q123 0 123 -131q0 -91 -86.5 -137.5t-259.5 -48.5z" />
    <glyph glyph-name="gcommaaccent" unicode="&#x123;" horiz-adv-x="1176" 
d="M772 635q0 212 -48 299.5t-144 87.5q-104 0 -158.5 -82.5t-54.5 -304.5q0 -202 50.5 -303t151.5 -101q100 0 151.5 75.5t51.5 328.5zM768 186q-88 -120 -276 -120q-202 0 -303 138t-101 414q0 263 114.5 415.5t329.5 152.5q201 0 302 -166l47 149h157v-1097
q0 -210 -127.5 -311t-339.5 -101q-182 0 -407 53v168q206 -51 352 -51q116 0 170 39t68 110t14 207zM624 1686l68 -80q-58 -37 -95 -90q53 1 87 -34t34 -93q0 -54 -41 -94t-92 -40q-71 0 -111 48.5t-40 126.5q0 70 54.5 141t135.5 115z" />
    <glyph glyph-name="Hcircumflex" unicode="&#x124;" horiz-adv-x="1272" 
d="M1124 1491v-1491h-276v725h-426v-725h-275v1491h275v-596h426v596h276zM756 1880l219 -321h-178l-162 197l-162 -197h-178l219 321h242z" />
    <glyph glyph-name="hcircumflex" unicode="&#x125;" horiz-adv-x="1192" 
d="M408 1067q111 119 284 119q184 0 276.5 -96t92.5 -287v-803h-273v788q0 124 -39.5 177t-121.5 53q-106 0 -162.5 -83.5t-56.5 -223.5v-711h-271v1583h271v-516zM723 1886l159 -233h-185l-95 109l-95 -109h-185l159 233h242z" />
    <glyph glyph-name="Hbar" unicode="&#x126;" horiz-adv-x="1272" 
d="M1124 1491v-1491h-276v532h-426v-532h-275v1491h275v-416h426v416h276zM848 905h-426v-203h426v203z" />
    <glyph glyph-name="hbar" unicode="&#x127;" horiz-adv-x="1192" 
d="M408 1067q113 119 284 119q184 0 276.5 -96t92.5 -287v-803h-273v788q0 115 -40.5 172.5t-120.5 57.5q-106 0 -162.5 -83t-56.5 -224v-711h-271v1309h-137v155h137v119h271v-119h368v-155h-368v-242z" />
    <glyph glyph-name="Itilde" unicode="&#x128;" horiz-adv-x="664" 
d="M70 0v172h123v1147h-123v172h522v-172h-123v-1147h123v-172h-522zM-9 1561v60q0 104 56.5 162.5t152.5 58.5q77 0 156 -59q77 -60 117 -60q80 0 80 88v21h122v-41q0 -95 -55 -161.5t-145 -66.5q-91 0 -168 60q-74 57 -111 57q-82 0 -82 -94v-25h-123z" />
    <glyph glyph-name="itilde" unicode="&#x129;" horiz-adv-x="584" 
d="M168 0v1008h-129v161h399v-1169h-270zM-48 1296v60q0 104 56.5 162.5t152.5 58.5q77 0 156 -59q77 -60 117 -60q80 0 80 88v21h122v-41q0 -95 -55 -161.5t-145 -66.5q-91 0 -168 60q-74 57 -111 57q-82 0 -82 -94v-25h-123z" />
    <glyph glyph-name="Imacron" unicode="&#x12a;" horiz-adv-x="664" 
d="M70 0v172h123v1147h-123v172h522v-172h-123v-1147h123v-172h-522zM624 1780v-163h-584v163h584z" />
    <glyph glyph-name="imacron" unicode="&#x12b;" horiz-adv-x="584" 
d="M168 0v1008h-129v161h399v-1169h-270zM585 1513v-163h-584v163h584z" />
    <glyph glyph-name="Ibreve" unicode="&#x12c;" horiz-adv-x="664" 
d="M70 0v172h123v1147h-123v172h522v-172h-123v-1147h123v-172h-522zM515 1876h156q-39 -159 -123.5 -238t-214.5 -79q-132 0 -216.5 79t-121.5 238h156q19 -81 64.5 -121t117.5 -40t117.5 40t64.5 121z" />
    <glyph glyph-name="ibreve" unicode="&#x12d;" horiz-adv-x="584" 
d="M168 0v1008h-129v161h399v-1169h-270zM476 1593h156q-39 -159 -123.5 -238t-214.5 -79q-132 0 -216.5 79t-121.5 238h156q19 -81 64.5 -121t117.5 -40t117.5 40t64.5 121z" />
    <glyph glyph-name="Iogonek" unicode="&#x12e;" horiz-adv-x="664" 
d="M70 0v172h123v1147h-123v172h522v-172h-123v-1147h123v-172q-80 -58 -80 -137q0 -84 78 -84q31 0 63 8v-121q-47 -10 -131 -10q-90 0 -144 43.5t-54 120.5q0 111 110 180h-364z" />
    <glyph glyph-name="iogonek" unicode="&#x12f;" horiz-adv-x="584" 
d="M168 0v1010h-129v159h399v-1169h2q-80 -58 -80 -137q0 -84 78 -84q31 0 64 8v-121q-48 -10 -131 -10q-90 0 -144.5 43.5t-54.5 120.5q0 111 111 180h-115zM303 1315q-65 0 -107 37t-42 98t41.5 98t107.5 37q63 0 106.5 -37.5t43.5 -97.5q0 -61 -42 -98t-108 -37z" />
    <glyph glyph-name="Idotaccent" unicode="&#x130;" horiz-adv-x="664" 
d="M70 0v172h123v1147h-123v172h522v-172h-123v-1147h123v-172h-522zM338 1841q64 0 107 -38t43 -97q0 -62 -42 -98.5t-108 -36.5t-107.5 37t-41.5 98q0 62 41.5 98.5t107.5 36.5z" />
    <glyph glyph-name="IJ" unicode="&#x132;" horiz-adv-x="1315" 
d="M70 0v172h123v1147h-123v172h522v-172h-123v-1147h123v-172h-522zM1253 1491v-172h-125v-1303q0 -168 -89 -256t-259 -88q-68 0 -205 23v174q105 -19 139 -19q74 0 107 38t33 126v1305h-123v172h522z" />
    <glyph glyph-name="ij" unicode="&#x133;" horiz-adv-x="1167" 
d="M168 0v1010h-129v159h399v-1169h-270zM303 1315q-66 0 -107.5 37t-41.5 98t41.5 98t107.5 37q64 0 107 -38t43 -97q0 -62 -42 -98.5t-108 -36.5zM752 -4v1014h-129v159h399v-1171q0 -164 -88.5 -251t-257.5 -87q-97 0 -205 21v169q88 -18 148 -18q133 0 133 164z
M887 1315q-66 0 -107.5 37t-41.5 98t41.5 98t107.5 37q64 0 107 -38t43 -97q0 -62 -42 -98.5t-108 -36.5z" />
    <glyph glyph-name="Jcircumflex" unicode="&#x134;" horiz-adv-x="655" 
d="M592 1491v-172h-125v-1303q0 -168 -89 -256t-259 -88q-68 0 -205 23v174q105 -19 139 -19q74 0 107 38t33 126v1305h-123v172h522zM450 1880l219 -321h-178l-162 197l-162 -197h-178l219 321h242z" />
    <glyph glyph-name="jcircumflex" unicode="&#x135;" horiz-adv-x="584" 
d="M168 -4v1014h-129v159h399v-1171q0 -169 -86.5 -253.5t-259.5 -84.5q-95 0 -205 21v169q90 -18 148 -18q133 0 133 164zM633 1276h-178l-162 197l-162 -197h-178l219 321h242z" />
    <glyph glyph-name="Kcommaaccent" unicode="&#x136;" horiz-adv-x="1157" 
d="M690 817l459 -817h-320l-407 762v-762h-275v1491h275v-690l432 690h281zM393 -348v121q44 2 131 16q-33 29 -33 74q0 106 125 106q123 0 123 -131q0 -91 -86.5 -137.5t-259.5 -48.5z" />
    <glyph glyph-name="kcommaaccent" unicode="&#x137;" horiz-adv-x="1090" 
d="M682 672l410 -672h-314l-370 629v-629h-271v1583h271v-940l370 526h279zM365 -348v121q44 2 131 16q-33 29 -33 74q0 106 125 106q123 0 123 -131q0 -91 -86.5 -137.5t-259.5 -48.5z" />
    <glyph glyph-name="kgreenlandic" unicode="&#x138;" horiz-adv-x="1090" 
d="M682 672l410 -672h-314l-370 629v-629h-271v1169h271v-526l370 526h279z" />
    <glyph glyph-name="Lacute" unicode="&#x139;" horiz-adv-x="938" 
d="M147 0v1491h275v-1319h483v-172h-758zM430 1886h244l-256 -332h-201z" />
    <glyph glyph-name="lacute" unicode="&#x13a;" horiz-adv-x="545" 
d="M263 1886h244l-193 -233h-201zM137 0v1583h271v-1583h-271z" />
    <glyph glyph-name="Lcommaaccent" unicode="&#x13b;" horiz-adv-x="938" 
d="M147 0v1491h275v-1319h483v-172h-758zM289 -348v121q44 2 131 16q-33 29 -33 74q0 106 125 106q123 0 123 -131q0 -91 -86.5 -137.5t-259.5 -48.5z" />
    <glyph glyph-name="lcommaaccent" unicode="&#x13c;" horiz-adv-x="545" 
d="M137 0v1583h271v-1583h-271zM50 -348v121q44 2 131 16q-33 29 -33 74q0 106 125 106q123 0 123 -131q0 -91 -86.5 -137.5t-259.5 -48.5z" />
    <glyph glyph-name="Lcaron" unicode="&#x13d;" horiz-adv-x="938" 
d="M147 0v1491h275v-1319h483v-172h-758zM628 1070l-69 82q114 73 135 170q-61 1 -100 38.5t-39 98.5t41 102.5t102 41.5q66 0 103.5 -51.5t37.5 -133.5q0 -110 -53 -197t-158 -151z" />
    <glyph glyph-name="lcaron" unicode="&#x13e;" horiz-adv-x="782" 
d="M137 0v1583h271v-1583h-271zM571 1071l-69 82q114 73 135 170q-61 1 -100 38.5t-39 98.5t41 102.5t102 41.5q66 0 103.5 -51.5t37.5 -133.5q0 -110 -53 -197t-158 -151z" />
    <glyph glyph-name="Ldot" unicode="&#x13f;" horiz-adv-x="938" 
d="M147 0v1491h275v-1319h483v-172h-758zM696 674q-61 0 -103 42t-42 103q0 62 42 104t103 42q60 0 103 -43t43 -103q0 -61 -42 -103t-104 -42z" />
    <glyph glyph-name="ldot" unicode="&#x140;" horiz-adv-x="795" 
d="M137 0v1583h271v-1583h-271zM641 674q-61 0 -103 42t-42 103q0 62 42 104t103 42q59 0 102 -43t43 -103q0 -61 -42 -103t-103 -42zM795 1491z" />
    <glyph glyph-name="Nacute" unicode="&#x143;" horiz-adv-x="1341" 
d="M977 0l-563 1047v-1047h-267v1491h234l547 -1014v1014h266v-1491h-217zM721 1886h244l-256 -332h-201z" />
    <glyph glyph-name="nacute" unicode="&#x144;" horiz-adv-x="1192" 
d="M342 995q121 191 350 191q184 0 276.5 -95t92.5 -284v-807h-273v774q0 133 -39.5 188.5t-121.5 55.5q-106 0 -162.5 -83.5t-56.5 -223.5v-711h-271v1169h158zM649 1608h244l-256 -332h-201z" />
    <glyph glyph-name="Ncommaaccent" unicode="&#x145;" horiz-adv-x="1341" 
d="M977 0l-563 1047v-1047h-267v1491h234l547 -1014v1014h266v-1491h-217zM479 -348v121q44 2 131 16q-33 29 -33 74q0 106 125 106q123 0 123 -131q0 -91 -86.5 -137.5t-259.5 -48.5z" />
    <glyph glyph-name="ncommaaccent" unicode="&#x146;" horiz-adv-x="1192" 
d="M342 995q121 191 350 191q184 0 276.5 -95t92.5 -284v-807h-273v774q0 133 -39.5 188.5t-121.5 55.5q-106 0 -162.5 -83.5t-56.5 -223.5v-711h-271v1169h158zM406 -348v121q44 2 131 16q-33 29 -33 74q0 106 125 106q123 0 123 -131q0 -91 -86.5 -137.5t-259.5 -48.5z
" />
    <glyph glyph-name="Ncaron" unicode="&#x147;" horiz-adv-x="1341" 
d="M977 0l-563 1047v-1047h-267v1491h234l547 -1014v1014h266v-1491h-217zM832 1880h178l-219 -321h-242l-219 321h178l162 -198z" />
    <glyph glyph-name="ncaron" unicode="&#x148;" horiz-adv-x="1192" 
d="M342 995q121 191 350 191q184 0 276.5 -95t92.5 -284v-807h-273v774q0 133 -39.5 188.5t-121.5 55.5q-106 0 -162.5 -83.5t-56.5 -223.5v-711h-271v1169h158zM758 1597h178l-219 -321h-242l-219 321h178l162 -198z" />
    <glyph glyph-name="napostrophe" unicode="&#x149;" horiz-adv-x="1415" 
d="M565 995q121 191 350 191q184 0 276.5 -95t92.5 -284v-807h-273v774q0 133 -39.5 188.5t-121.5 55.5q-106 0 -162.5 -83.5t-56.5 -223.5v-711h-271v1169h158zM157 1290q-71 3 -113.5 46t-42.5 108q0 67 46 112.5t114 45.5q74 0 115.5 -57t41.5 -146q0 -241 -235 -387
l-78 90q127 82 152 188z" />
    <glyph glyph-name="Eng" unicode="&#x14a;" horiz-adv-x="1341" 
d="M928 92l-514 955v-1047h-267v1491h234l547 -1014v1014h266v-1475q0 -172 -85 -258t-255 -86q-73 0 -205 23v174q100 -19 139 -19q140 0 140 164v78z" />
    <glyph glyph-name="eng" unicode="&#x14b;" horiz-adv-x="1192" 
d="M342 995q122 191 350 191q184 0 276.5 -95t92.5 -284v-807q0 -170 -87 -255t-261 -85q-96 0 -205 21v169q90 -18 147 -18q133 0 133 164v778q0 122 -40.5 183t-120.5 61q-106 0 -162.5 -83t-56.5 -224v-711h-271v1169h158z" />
    <glyph glyph-name="Omacron" unicode="&#x14c;" horiz-adv-x="1278" 
d="M638 156q125 0 190.5 130.5t65.5 479.5q0 316 -65 442.5t-191 126.5q-125 0 -190.5 -120.5t-65.5 -448.5q0 -323 65 -466.5t191 -143.5zM638 -16q-270 0 -406.5 189t-136.5 593q0 380 136.5 560.5t406.5 180.5q272 0 408.5 -185.5t136.5 -555.5q0 -403 -137 -592.5
t-408 -189.5zM932 1780v-163h-584v163h584z" />
    <glyph glyph-name="omacron" unicode="&#x14d;" horiz-adv-x="1182" 
d="M592 141q110 0 166.5 103t56.5 364q0 125 -25.5 222t-75.5 147.5t-122 50.5q-112 0 -167.5 -105t-55.5 -315q0 -234 55.5 -350.5t167.5 -116.5zM592 -16q-250 0 -377 157.5t-127 460.5q0 269 132 426.5t372 157.5q242 0 372 -156t130 -434q0 -284 -123.5 -448
t-378.5 -164zM883 1513v-163h-584v163h584z" />
    <glyph glyph-name="Obreve" unicode="&#x14e;" horiz-adv-x="1278" 
d="M638 156q125 0 190.5 130.5t65.5 479.5q0 316 -65 442.5t-191 126.5q-125 0 -190.5 -120.5t-65.5 -448.5q0 -323 65 -466.5t191 -143.5zM638 -16q-270 0 -406.5 189t-136.5 593q0 380 136.5 560.5t406.5 180.5q272 0 408.5 -185.5t136.5 -555.5q0 -403 -137 -592.5
t-408 -189.5zM821 1876h156q-39 -159 -123.5 -238t-214.5 -79q-132 0 -216.5 79t-121.5 238h156q19 -81 64.5 -121t117.5 -40t117.5 40t64.5 121z" />
    <glyph glyph-name="obreve" unicode="&#x14f;" horiz-adv-x="1182" 
d="M592 141q110 0 166.5 103t56.5 364q0 125 -25.5 222t-75.5 147.5t-122 50.5q-112 0 -167.5 -105t-55.5 -315q0 -234 55.5 -350.5t167.5 -116.5zM592 -16q-250 0 -377 157.5t-127 460.5q0 269 132 426.5t372 157.5q242 0 372 -156t130 -434q0 -284 -123.5 -448
t-378.5 -164zM774 1593h156q-39 -159 -123.5 -238t-214.5 -79q-132 0 -216.5 79t-121.5 238h156q19 -81 64.5 -121t117.5 -40t117.5 40t64.5 121z" />
    <glyph glyph-name="Ohungarumlaut" unicode="&#x150;" horiz-adv-x="1278" 
d="M638 156q125 0 190.5 130.5t65.5 479.5q0 316 -65 442.5t-191 126.5q-125 0 -190.5 -120.5t-65.5 -448.5q0 -323 65 -466.5t191 -143.5zM638 -16q-270 0 -406.5 189t-136.5 593q0 380 136.5 560.5t406.5 180.5q272 0 408.5 -185.5t136.5 -555.5q0 -403 -137 -592.5
t-408 -189.5zM949 1886h217l-245 -332h-191zM587 1886h217l-246 -332h-190z" />
    <glyph glyph-name="ohungarumlaut" unicode="&#x151;" horiz-adv-x="1182" 
d="M592 141q110 0 166.5 103t56.5 364q0 125 -25.5 222t-75.5 147.5t-122 50.5q-112 0 -167.5 -105t-55.5 -315q0 -234 55.5 -350.5t167.5 -116.5zM592 -16q-250 0 -377 157.5t-127 460.5q0 269 132 426.5t372 157.5q242 0 372 -156t130 -434q0 -284 -123.5 -448
t-378.5 -164zM896 1608h217l-245 -332h-191zM534 1608h217l-246 -332h-190z" />
    <glyph glyph-name="Racute" unicode="&#x154;" horiz-adv-x="1176" 
d="M817 676l340 -676h-315l-289 633h-131v-633h-275v1491h484q230 0 340 -101.5t110 -312.5q0 -153 -66 -253t-198 -148zM422 801h147q118 0 175 66t57 210q0 123 -53 184.5t-158 61.5h-168v-522zM639 1886h244l-256 -332h-201z" />
    <glyph glyph-name="racute" unicode="&#x155;" horiz-adv-x="772" 
d="M137 0v1169h158l53 -194q49 102 135 153.5t209 51.5q32 0 47 -2v-224q-56 4 -82 4q-135 0 -192 -59.5t-57 -196.5v-702h-271zM483 1608h244l-256 -332h-201z" />
    <glyph glyph-name="Rcommaaccent" unicode="&#x156;" horiz-adv-x="1176" 
d="M817 676l340 -676h-315l-289 633h-131v-633h-275v1491h484q230 0 340 -101.5t110 -312.5q0 -153 -66 -253t-198 -148zM422 801h147q118 0 175 66t57 210q0 123 -53 184.5t-158 61.5h-168v-522zM414 -348v121q44 2 131 16q-33 29 -33 74q0 106 125 106q123 0 123 -131
q0 -91 -86.5 -137.5t-259.5 -48.5z" />
    <glyph glyph-name="rcommaaccent" unicode="&#x157;" horiz-adv-x="772" 
d="M137 0v1169h158l53 -194q49 102 135 153.5t209 51.5q32 0 47 -2v-224q-56 4 -82 4q-135 0 -192 -59.5t-57 -196.5v-702h-271zM58 -348v121q44 2 131 16q-33 29 -33 74q0 106 125 106q123 0 123 -131q0 -91 -86.5 -137.5t-259.5 -48.5z" />
    <glyph glyph-name="Rcaron" unicode="&#x158;" horiz-adv-x="1176" 
d="M817 676l340 -676h-315l-289 633h-131v-633h-275v1491h484q230 0 340 -101.5t110 -312.5q0 -153 -66 -253t-198 -148zM422 801h147q118 0 175 66t57 210q0 123 -53 184.5t-158 61.5h-168v-522zM750 1880h178l-219 -321h-242l-219 321h178l162 -198z" />
    <glyph glyph-name="rcaron" unicode="&#x159;" horiz-adv-x="772" 
d="M137 0v1169h158l53 -194q49 102 135 153.5t209 51.5q32 0 47 -2v-224q-56 4 -82 4q-135 0 -192 -59.5t-57 -196.5v-702h-271zM578 1597h178l-219 -321h-242l-219 321h178l162 -198z" />
    <glyph glyph-name="Sacute" unicode="&#x15a;" horiz-adv-x="987" 
d="M399 -16q-163 0 -321 41v178q173 -47 307 -47q127 0 198.5 57t71.5 162q0 99 -59 155.5t-219 147.5q-175 98 -236 197.5t-61 226.5q0 202 135.5 303.5t353.5 101.5q158 0 291 -30v-174q-141 32 -262 32q-110 0 -176 -52t-66 -144q0 -89 57.5 -142.5t196.5 -130.5
q192 -107 257 -207t65 -225q0 -225 -133.5 -337.5t-399.5 -112.5zM543 1886h244l-256 -332h-201z" />
    <glyph glyph-name="sacute" unicode="&#x15b;" horiz-adv-x="889" 
d="M389 -16q-150 0 -323 41v174q171 -52 282 -52q103 0 155 40.5t52 121.5q0 48 -29 89.5t-164 109.5q-91 47 -145.5 86.5t-90.5 102.5t-36 157q0 156 115 244t295 88q156 0 284 -39v-166q-125 43 -239 43q-93 0 -139 -38t-46 -114q0 -40 27.5 -75t157.5 -99
q182 -89 231 -174t49 -188q0 -174 -112 -263t-324 -89zM498 1608h244l-256 -332h-201z" />
    <glyph glyph-name="Scircumflex" unicode="&#x15c;" horiz-adv-x="987" 
d="M399 -16q-163 0 -321 41v178q173 -47 307 -47q127 0 198.5 57t71.5 162q0 99 -59 155.5t-219 147.5q-175 98 -236 197.5t-61 226.5q0 202 135.5 303.5t353.5 101.5q158 0 291 -30v-174q-141 32 -262 32q-110 0 -176 -52t-66 -144q0 -89 57.5 -142.5t196.5 -130.5
q192 -107 257 -207t65 -225q0 -225 -133.5 -337.5t-399.5 -112.5zM629 1880l219 -321h-178l-162 197l-162 -197h-178l219 321h242z" />
    <glyph glyph-name="scircumflex" unicode="&#x15d;" horiz-adv-x="889" 
d="M389 -16q-150 0 -323 41v174q171 -52 282 -52q103 0 155 40.5t52 121.5q0 48 -29 89.5t-164 109.5q-91 47 -145.5 86.5t-90.5 102.5t-36 157q0 156 115 244t295 88q156 0 284 -39v-166q-125 43 -239 43q-93 0 -139 -38t-46 -114q0 -40 27.5 -75t157.5 -99
q182 -89 231 -174t49 -188q0 -174 -112 -263t-324 -89zM545 1597l219 -321h-178l-162 197l-162 -197h-178l219 321h242z" />
    <glyph glyph-name="Scedilla" unicode="&#x15e;" horiz-adv-x="987" 
d="M399 -16q-163 0 -321 41v178q173 -47 307 -47q127 0 198.5 57t71.5 162q0 99 -59 155.5t-219 147.5q-175 98 -236 197.5t-61 226.5q0 202 135.5 303.5t353.5 101.5q158 0 291 -30v-174q-141 32 -262 32q-110 0 -176 -52t-66 -144q0 -89 57.5 -142.5t196.5 -130.5
q192 -107 257 -207t65 -225q0 -225 -133.5 -337.5t-399.5 -112.5zM299 -348v121q44 2 131 16q-33 29 -33 74q0 106 125 106q123 0 123 -131q0 -91 -86.5 -137.5t-259.5 -48.5z" />
    <glyph glyph-name="scedilla" unicode="&#x15f;" horiz-adv-x="889" 
d="M389 -16q-150 0 -323 41v174q171 -52 282 -52q103 0 155 40.5t52 121.5q0 48 -29 89.5t-164 109.5q-91 47 -145.5 86.5t-90.5 102.5t-36 157q0 156 115 244t295 88q156 0 284 -39v-166q-125 43 -239 43q-93 0 -139 -38t-46 -114q0 -40 27.5 -75t157.5 -99
q182 -89 231 -174t49 -188q0 -174 -112 -263t-324 -89zM252 -348v121q44 2 131 16q-33 29 -33 74q0 106 125 106q123 0 123 -131q0 -91 -86.5 -137.5t-259.5 -48.5z" />
    <glyph glyph-name="Tcommaaccent" unicode="&#x162;" horiz-adv-x="1071" 
d="M398 0v1313h-365v178h1005v-178h-365v-1313h-275zM332 -348v121q44 2 131 16q-33 29 -33 74q0 106 125 106q123 0 123 -131q0 -91 -86.5 -137.5t-259.5 -48.5z" />
    <glyph glyph-name="tcommaaccent" unicode="&#x163;" horiz-adv-x="750" 
d="M457 -16q-146 0 -215.5 67t-69.5 207v752h-147v94l323 330h96v-265h271v-159h-271v-713q0 -93 29 -120t88 -27q65 0 172 28v-155q-141 -39 -276 -39zM248 -348v121q44 2 131 16q-33 29 -33 74q0 106 125 106q123 0 123 -131q0 -91 -86.5 -137.5t-259.5 -48.5z" />
    <glyph glyph-name="Tcaron" unicode="&#x164;" horiz-adv-x="1071" 
d="M398 0v1313h-365v178h1005v-178h-365v-1313h-275zM699 1880h178l-219 -321h-242l-219 321h178l162 -198z" />
    <glyph glyph-name="tcaron" unicode="&#x165;" horiz-adv-x="924" 
d="M457 -16q-143 0 -214 68.5t-71 205.5v752h-147v94l323 330h96v-265h271v-159h-271v-713q0 -89 28 -118t89 -29q63 0 172 28v-155q-144 -39 -276 -39zM752 1167l-82 70q30 25 92 106q-75 19 -99 46.5t-24 78.5q0 60 41 98t102 38q64 0 103 -55.5t39 -121.5
q0 -61 -48 -135.5t-124 -124.5zM750 0z" />
    <glyph glyph-name="Tbar" unicode="&#x166;" horiz-adv-x="1071" 
d="M399 881v432h-366v178h1005v-178h-364v-432h270v-174h-270v-707h-275v707h-270v174h270z" />
    <glyph glyph-name="tbar" unicode="&#x167;" horiz-adv-x="782" 
d="M190 590h-147v155h147v265h-147v94l324 330h96v-265h270v-159h-270v-265h270v-155h-270v-293q0 -96 31 -121.5t86 -25.5q63 0 172 28v-155q-144 -39 -277 -39q-143 0 -214 68.5t-71 205.5v332z" />
    <glyph glyph-name="Utilde" unicode="&#x168;" horiz-adv-x="1264" 
d="M635 -16q-252 0 -372 115.5t-120 355.5v1036h275v-1053q0 -151 51 -217.5t164 -66.5t163 65.5t50 218.5v1053h274v-1042q0 -229 -124 -347t-361 -118zM289 1561v60q0 104 56.5 162.5t152.5 58.5q77 0 156 -59q77 -60 117 -60q80 0 80 88v21h122v-41q0 -95 -55 -161.5
t-145 -66.5q-91 0 -168 60q-74 57 -111 57q-82 0 -82 -94v-25h-123z" />
    <glyph glyph-name="utilde" unicode="&#x169;" horiz-adv-x="1192" 
d="M852 174q-121 -190 -352 -190q-184 0 -275.5 94.5t-91.5 283.5v807h270v-774q0 -130 40.5 -186.5t123.5 -56.5q106 0 161.5 82.5t55.5 224.5v710h273v-1169h-160zM254 1296v60q0 104 56.5 162.5t152.5 58.5q77 0 156 -59q77 -60 117 -60q80 0 80 88v21h122v-41
q0 -95 -55 -161.5t-145 -66.5q-91 0 -168 60q-74 57 -111 57q-82 0 -82 -94v-25h-123z" />
    <glyph glyph-name="Umacron" unicode="&#x16a;" horiz-adv-x="1264" 
d="M635 -16q-252 0 -372 115.5t-120 355.5v1036h275v-1053q0 -151 51 -217.5t164 -66.5t163 65.5t50 218.5v1053h274v-1042q0 -229 -124 -347t-361 -118zM924 1780v-163h-584v163h584z" />
    <glyph glyph-name="umacron" unicode="&#x16b;" horiz-adv-x="1192" 
d="M852 174q-121 -190 -352 -190q-184 0 -275.5 94.5t-91.5 283.5v807h270v-774q0 -130 40.5 -186.5t123.5 -56.5q106 0 161.5 82.5t55.5 224.5v710h273v-1169h-160zM889 1513v-163h-584v163h584z" />
    <glyph glyph-name="Ubreve" unicode="&#x16c;" horiz-adv-x="1264" 
d="M635 -16q-252 0 -372 115.5t-120 355.5v1036h275v-1053q0 -151 51 -217.5t164 -66.5t163 65.5t50 218.5v1053h274v-1042q0 -229 -124 -347t-361 -118zM813 1876h156q-39 -159 -123.5 -238t-214.5 -79q-132 0 -216.5 79t-121.5 238h156q19 -81 64.5 -121t117.5 -40
t117.5 40t64.5 121z" />
    <glyph glyph-name="ubreve" unicode="&#x16d;" horiz-adv-x="1192" 
d="M852 174q-121 -190 -352 -190q-184 0 -275.5 94.5t-91.5 283.5v807h270v-774q0 -130 40.5 -186.5t123.5 -56.5q106 0 161.5 82.5t55.5 224.5v710h273v-1169h-160zM778 1593h156q-39 -159 -123.5 -238t-214.5 -79q-132 0 -216.5 79t-121.5 238h156q19 -81 64.5 -121
t117.5 -40t117.5 40t64.5 121z" />
    <glyph glyph-name="Uring" unicode="&#x16e;" horiz-adv-x="1264" 
d="M635 -16q-252 0 -372 115.5t-120 355.5v1036h275v-1053q0 -151 51 -217.5t164 -66.5t163 65.5t50 218.5v1053h274v-1042q0 -229 -124 -347t-361 -118zM633 1886q93 0 150 -59.5t57 -147.5q0 -92 -57.5 -151t-149.5 -59q-87 0 -148 59t-61 151q0 89 58.5 148t150.5 59z
M633 1567q48 0 76 31t28 81q0 49 -28 79t-76 30t-77 -30t-29 -79q0 -50 28 -81t78 -31z" />
    <glyph glyph-name="uring" unicode="&#x16f;" horiz-adv-x="1192" 
d="M852 174q-121 -190 -352 -190q-184 0 -275.5 94.5t-91.5 283.5v807h270v-774q0 -130 40.5 -186.5t123.5 -56.5q106 0 161.5 82.5t55.5 224.5v710h273v-1169h-160zM598 1677q93 0 150 -59.5t57 -147.5q0 -92 -57.5 -151t-149.5 -59q-87 0 -148 59t-61 151q0 89 58.5 148
t150.5 59zM598 1358q48 0 76 31t28 81q0 49 -28 79t-76 30t-77 -30t-29 -79q0 -50 28 -81t78 -31z" />
    <glyph glyph-name="Uhungarumlaut" unicode="&#x170;" horiz-adv-x="1264" 
d="M635 -16q-252 0 -372 115.5t-120 355.5v1036h275v-1053q0 -151 51 -217.5t164 -66.5t163 65.5t50 218.5v1053h274v-1042q0 -229 -124 -347t-361 -118zM935 1886h217l-245 -332h-191zM573 1886h217l-246 -332h-190z" />
    <glyph glyph-name="uhungarumlaut" unicode="&#x171;" horiz-adv-x="1192" 
d="M852 174q-121 -190 -352 -190q-184 0 -275.5 94.5t-91.5 283.5v807h270v-774q0 -130 40.5 -186.5t123.5 -56.5q106 0 161.5 82.5t55.5 224.5v710h273v-1169h-160zM882 1608h217l-245 -332h-191zM520 1608h217l-246 -332h-190z" />
    <glyph glyph-name="Uogonek" unicode="&#x172;" horiz-adv-x="1264" 
d="M635 -16q-246 0 -369 117.5t-123 353.5v1036h275v-1053q0 -151 51.5 -217.5t163.5 -66.5q113 0 163 65t50 219v1053h274v-1042q0 -245 -151 -371q-42 -35 -79.5 -98.5t-37.5 -102.5q0 -98 78 -98q31 0 63 8v-121q-47 -10 -131 -10q-90 0 -144 43.5t-54 120.5
q0 107 100 174q-60 -10 -129 -10z" />
    <glyph glyph-name="uogonek" unicode="&#x173;" horiz-adv-x="1192" 
d="M852 174q-122 -190 -352 -190q-184 0 -275.5 94.5t-91.5 283.5v807h270v-774q0 -122 41 -182.5t123 -60.5q105 0 161 81t56 226v710h273v-1169q-80 -58 -80 -137q0 -84 78 -84q31 0 63 8v-121q-47 -10 -131 -10q-90 0 -144.5 44t-54.5 120q0 112 109 180z" />
    <glyph glyph-name="Wcircumflex" unicode="&#x174;" horiz-adv-x="1874" 
d="M344 0l-321 1491h290l217 -1172l287 1172h291l264 -1172l240 1172h241l-356 -1491h-299l-258 1137l-287 -1137h-309zM1077 1880l219 -321h-178l-162 197l-162 -197h-178l219 321h242z" />
    <glyph glyph-name="wcircumflex" unicode="&#x175;" horiz-adv-x="1712" 
d="M324 0l-308 1169h277l207 -931l233 931h287l219 -933l221 933h238l-322 -1169h-305l-215 881l-227 -881h-305zM991 1597l219 -321h-178l-162 197l-162 -197h-178l219 321h242z" />
    <glyph glyph-name="Ycircumflex" unicode="&#x176;" horiz-adv-x="1049" 
d="M377 0v522l-369 969h293l238 -707l256 707h245l-389 -967v-524h-274zM662 1880l219 -321h-178l-162 197l-162 -197h-178l219 321h242z" />
    <glyph glyph-name="ycircumflex" unicode="&#x177;" horiz-adv-x="1020" 
d="M326 49l-314 1120h281l231 -913l244 913h240l-353 -1206q-46 -157 -133.5 -230t-230.5 -73q-94 0 -203 23v172q98 -23 174 -23t119.5 43t85.5 174h-141zM660 1597l219 -321h-178l-162 197l-162 -197h-178l219 321h242z" />
    <glyph glyph-name="Zacute" unicode="&#x179;" horiz-adv-x="975" 
d="M39 0v129l565 1190h-528v172h848v-129l-566 -1190h557v-172h-876zM526 1886h244l-256 -332h-201z" />
    <glyph glyph-name="zacute" unicode="&#x17a;" horiz-adv-x="952" 
d="M43 0v154l532 843h-497v172h815v-151l-535 -846h547v-172h-862zM524 1608h244l-256 -332h-201z" />
    <glyph glyph-name="Zdotaccent" unicode="&#x17b;" horiz-adv-x="975" 
d="M39 0v129l565 1190h-528v172h848v-129l-566 -1190h557v-172h-876zM487 1841q64 0 107 -38t43 -97q0 -62 -42 -98.5t-108 -36.5t-107.5 37t-41.5 98q0 62 41.5 98.5t107.5 36.5z" />
    <glyph glyph-name="zdotaccent" unicode="&#x17c;" horiz-adv-x="952" 
d="M43 0v154l532 843h-497v172h815v-151l-535 -846h547v-172h-862zM475 1585q64 0 107 -38t43 -97q0 -62 -42 -98.5t-108 -36.5t-107.5 37t-41.5 98q0 62 41.5 98.5t107.5 36.5z" />
    <glyph glyph-name="longs" unicode="&#x17f;" horiz-adv-x="543" 
d="M705 1411q-85 27 -150 27q-68 0 -106.5 -37t-38.5 -232v-1169h-273v1169q0 248 84 339t268 91q111 0 216 -24v-164z" />
    <glyph glyph-name="Aringacute" unicode="&#x1fa;" horiz-adv-x="1186" 
d="M746 496l-173 631l-177 -631h350zM883 0l-91 329h-442l-92 -329h-250l426 1365q-41 54 -41 129q0 88 58.5 147t150.5 59q93 0 150 -58.5t57 -147.5q0 -76 -41 -131l406 -1363h-291zM602 1381q50 0 77.5 29t27.5 84q0 52 -27.5 80t-77.5 28t-78 -28t-28 -80
q0 -55 27.5 -84t78.5 -29zM817 1886l-182 -143h-201l139 143h244zM602 1491z" />
    <glyph glyph-name="aringacute" unicode="&#x1fb;" horiz-adv-x="1100" 
d="M696 559h-96q-131 0 -196.5 -57t-65.5 -170q0 -90 39 -135t117 -45q98 0 150 62.5t52 176.5v168zM766 168q-120 -184 -346 -184q-166 0 -258 90.5t-92 253.5q0 128 57.5 210.5t183.5 123.5t385 43v114q0 99 -54.5 149t-162.5 50q-125 0 -307 -57v174q190 51 371 51
q208 0 317 -95.5t109 -281.5v-809h-158zM545 1644q93 0 150 -59.5t57 -147.5q0 -92 -57.5 -151t-149.5 -59q-87 0 -148 59t-61 151q0 89 58.5 148t150.5 59zM545 1325q48 0 76 31t28 81q0 49 -28 79t-76 30t-77 -30t-29 -79q0 -50 28 -81t78 -31zM514 1886h244l-171 -200
h-201z" />
    <glyph glyph-name="AEacute" unicode="&#x1fc;" horiz-adv-x="1554" 
d="M1507 172v-172h-753v336h-363l-123 -336h-266l582 1491h917v-172h-471v-426h385v-174h-385v-547h477zM453 504h301v811zM975 1886h244l-256 -332h-201z" />
    <glyph glyph-name="aeacute" unicode="&#x1fd;" horiz-adv-x="1688" 
d="M1604 526h-637q0 -188 72 -282t216 -94q120 0 301 51v-166q-167 -51 -348 -51q-293 0 -422 202q-122 -202 -366 -202q-166 0 -258 90.5t-92 253.5q0 128 57.5 210.5t183.5 123.5t385 43v114q0 99 -54.5 149t-162.5 50q-125 0 -307 -57v174q190 51 371 51q213 0 325 -131
q122 131 303 131q212 0 322.5 -140.5t110.5 -519.5zM1337 674q0 206 -44 284t-128 78q-94 0 -143 -84t-55 -278h370zM696 391v168h-96q-131 0 -196.5 -57t-65.5 -170q0 -90 39 -135t117 -45q98 0 150 62.5t52 176.5zM942 1608h244l-256 -332h-201z" />
    <glyph glyph-name="Oslashacute" unicode="&#x1fe;" horiz-adv-x="1278" 
d="M1055 1581h159l-157 -268q127 -179 127 -547q0 -405 -137 -593.5t-408 -188.5q-188 0 -313 96l-101 -172h-162l164 274q-131 194 -131 584q0 380 136.5 560.5t406.5 180.5q190 0 315 -92zM406 479l423 725q-60 131 -190 131q-125 0 -190.5 -120.5t-65.5 -448.5
q0 -177 23 -287zM877 1018l-424 -723q61 -139 186 -139t190.5 130.5t65.5 479.5q0 153 -18 252zM682 1886h244l-256 -332h-201z" />
    <glyph glyph-name="oslashacute" unicode="&#x1ff;" horiz-adv-x="1182" 
d="M1118 1274l-157 -240q133 -159 133 -438q0 -297 -128 -454.5t-374 -157.5q-166 0 -277 69l-96 -145h-156l152 233q-127 159 -127 461q0 269 132 426.5t372 157.5q157 0 270 -68l101 156h155zM743 940q-54 88 -151 88q-112 0 -167.5 -105t-55.5 -315q0 -131 18 -213z
M434 236q57 -95 158 -95q110 0 166.5 103t56.5 364q0 89 -22 174zM631 1608h244l-256 -332h-201z" />
    <glyph glyph-name="uni037E" unicode="&#x37e;" horiz-adv-x="551" 
d="M270 -12q-68 0 -111.5 42.5t-43.5 108.5q0 67 46.5 112.5t112.5 45.5q76 0 117 -55.5t41 -145.5q0 -244 -237 -387l-78 88q127 81 153 191zM276 725q-65 0 -112 48t-47 114q0 65 46.5 110t112.5 45q67 0 112.5 -45t45.5 -110q0 -67 -46 -114.5t-112 -47.5z" />
    <glyph glyph-name="tonos" unicode="&#x384;" horiz-adv-x="682" 
d="M299 1638h240l-193 -368h-188z" />
    <glyph glyph-name="dieresistonos" unicode="&#x385;" horiz-adv-x="682" 
d="M559 1638l-194 -368h-179l144 368h229zM616 1303q-45 0 -77.5 32.5t-32.5 77.5t32.5 77t77.5 32t77 -32t32 -77t-32 -77.5t-77 -32.5zM76 1303q-45 0 -78 32.5t-33 77.5t33 77t78 32t76.5 -32t31.5 -77t-31.5 -77.5t-76.5 -32.5z" />
    <glyph glyph-name="Alphatonos" unicode="&#x386;" horiz-adv-x="1186" 
d="M756 496l-183 741l-188 -741h371zM883 0l-86 328h-451l-88 -328h-250l430 1491h324l412 -1491h-291zM74 1508h240l-193 -368h-188z" />
    <glyph glyph-name="anoteleia" unicode="&#x387;" horiz-adv-x="479" 
d="M240 573q-66 0 -113 46.5t-47 111.5q0 66 47 113t113 47q65 0 112 -47t47 -113q0 -65 -46.5 -111.5t-112.5 -46.5z" />
    <glyph glyph-name="Epsilontonos" unicode="&#x388;" horiz-adv-x="1120" 
d="M301 0v1491h766v-172h-491v-426h397v-174h-397v-547h500v-172h-775zM9 1508h240l-193 -368h-188z" />
    <glyph glyph-name="Etatonos" unicode="&#x389;" horiz-adv-x="1423" 
d="M1278 1491v-1491h-276v725h-426v-725h-275v1491h275v-596h426v596h276zM9 1508h240l-193 -368h-188z" />
    <glyph glyph-name="Iotatonos" unicode="&#x38a;" horiz-adv-x="872" 
d="M281 0v172h123v1147h-123v172h522v-172h-123v-1147h123v-172h-522zM9 1508h240l-193 -368h-188z" />
    <glyph glyph-name="Omicrontonos" unicode="&#x38c;" horiz-adv-x="1358" 
d="M718 156q125 0 190.5 130.5t65.5 479.5q0 316 -65 442.5t-191 126.5q-125 0 -190.5 -120.5t-65.5 -448.5q0 -323 65 -466.5t191 -143.5zM718 -16q-270 0 -406.5 189t-136.5 593q0 380 136.5 560.5t406.5 180.5q272 0 408.5 -185.5t136.5 -555.5q0 -403 -137 -592.5
t-408 -189.5zM9 1508h240l-193 -368h-188z" />
    <glyph glyph-name="Upsilontonos" unicode="&#x38e;" horiz-adv-x="1296" 
d="M627 0v522l-369 969h293l238 -707l256 707h245l-389 -967v-524h-274zM9 1508h240l-193 -368h-188z" />
    <glyph glyph-name="Omegatonos" unicode="&#x38f;" horiz-adv-x="1372" 
d="M1299 0h-492v238q180 268 180 630q0 232 -65 348.5t-195 116.5q-132 0 -198 -116.5t-66 -348.5q0 -356 182 -630v-238h-493v205h280v8q-256 284 -256 676q0 274 145.5 446t413.5 172q259 0 399 -173t140 -447q0 -388 -256 -674v-8h281v-205zM9 1508h240l-193 -368h-188z
" />
    <glyph glyph-name="iotadieresistonos" unicode="&#x390;" horiz-adv-x="653" 
d="M629 0q-82 -14 -180 -14q-132 0 -197.5 71.5t-65.5 214.5v738h-145v159h416v-897q0 -61 24 -91.5t72 -30.5q35 0 76 8v-158zM537 1638l-194 -368h-179l144 368h229zM594 1303q-45 0 -77.5 32.5t-32.5 77.5t32.5 77t77.5 32t77 -32t32 -77t-32 -77.5t-77 -32.5zM54 1303
q-45 0 -78 32.5t-33 77.5t33 77t78 32t76.5 -32t31.5 -77t-31.5 -77.5t-76.5 -32.5z" />
    <glyph glyph-name="Alpha" unicode="&#x391;" horiz-adv-x="1186" 
d="M756 496l-183 741l-188 -741h371zM883 0l-86 328h-451l-88 -328h-250l430 1491h324l412 -1491h-291z" />
    <glyph glyph-name="Beta" unicode="&#x392;" horiz-adv-x="1180" 
d="M610 0h-463v1491h498q214 0 321 -90.5t107 -270.5q0 -256 -248 -344q285 -65 285 -366q0 -210 -125 -315t-375 -105zM422 858h135q123 0 180.5 59t57.5 187q0 109 -52.5 164t-156.5 55h-164v-465zM422 168h151q133 0 192.5 61.5t59.5 202.5q0 132 -61.5 195t-192.5 63
h-149v-522z" />
    <glyph glyph-name="Gamma" unicode="&#x393;" horiz-adv-x="938" 
d="M905 1313h-483v-1313h-275v1491h758v-178z" />
    <glyph glyph-name="Delta" unicode="&#x394;" horiz-adv-x="1186" 
d="M1151 0h-1118v131l405 1360h324l389 -1360v-131zM844 205l-273 1034l-274 -1034h547z" />
    <glyph glyph-name="Epsilon" unicode="&#x395;" horiz-adv-x="969" 
d="M147 0v1491h766v-172h-491v-426h397v-174h-397v-547h500v-172h-775z" />
    <glyph glyph-name="Zeta" unicode="&#x396;" horiz-adv-x="975" 
d="M39 0v129l565 1190h-528v172h848v-129l-566 -1190h557v-172h-876z" />
    <glyph glyph-name="Eta" unicode="&#x397;" horiz-adv-x="1272" 
d="M1124 1491v-1491h-276v725h-426v-725h-275v1491h275v-596h426v596h276z" />
    <glyph glyph-name="Theta" unicode="&#x398;" horiz-adv-x="1278" 
d="M638 156q125 0 190.5 130.5t65.5 479.5q0 316 -65 442.5t-191 126.5q-125 0 -190.5 -120.5t-65.5 -448.5q0 -323 65 -466.5t191 -143.5zM638 -16q-270 0 -406.5 189t-136.5 593q0 380 136.5 560.5t406.5 180.5q272 0 408.5 -185.5t136.5 -555.5q0 -403 -137 -592.5
t-408 -189.5zM805 846v-199h-330v199h330z" />
    <glyph glyph-name="Theta" unicode="&#x472;" horiz-adv-x="1278" 
d="M638 156q125 0 190.5 130.5t65.5 479.5q0 316 -65 442.5t-191 126.5q-125 0 -190.5 -120.5t-65.5 -448.5q0 -323 65 -466.5t191 -143.5zM638 -16q-270 0 -406.5 189t-136.5 593q0 380 136.5 560.5t406.5 180.5q272 0 408.5 -185.5t136.5 -555.5q0 -403 -137 -592.5
t-408 -189.5zM805 846v-199h-330v199h330z" />
    <glyph glyph-name="Iota" unicode="&#x399;" horiz-adv-x="664" 
d="M70 0v172h123v1147h-123v172h522v-172h-123v-1147h123v-172h-522z" />
    <glyph glyph-name="Kappa" unicode="&#x39a;" horiz-adv-x="1157" 
d="M690 817l459 -817h-320l-407 762v-762h-275v1491h275v-690l432 690h281z" />
    <glyph glyph-name="Lambda" unicode="&#x39b;" horiz-adv-x="1135" 
d="M735 1491l389 -1491h-288l-283 1202l-301 -1202h-246l412 1491h317z" />
    <glyph glyph-name="Mu" unicode="&#x39c;" horiz-adv-x="1518" 
d="M1370 1491v-1491h-272v1032l-281 -536h-115l-282 536v-1032h-273v1491h230l383 -729l383 729h227z" />
    <glyph glyph-name="Nu" unicode="&#x39d;" horiz-adv-x="1341" 
d="M977 0l-563 1047v-1047h-267v1491h234l547 -1014v1014h266v-1491h-217z" />
    <glyph glyph-name="Xi" unicode="&#x39e;" horiz-adv-x="958" 
d="M904 1247h-848v244h848v-244zM805 686h-649v219h649v-219zM907 0h-854v244h854v-244z" />
    <glyph glyph-name="Omicron" unicode="&#x39f;" horiz-adv-x="1278" 
d="M638 156q125 0 190.5 130.5t65.5 479.5q0 316 -65 442.5t-191 126.5q-125 0 -190.5 -120.5t-65.5 -448.5q0 -323 65 -466.5t191 -143.5zM638 -16q-270 0 -406.5 189t-136.5 593q0 380 136.5 560.5t406.5 180.5q272 0 408.5 -185.5t136.5 -555.5q0 -403 -137 -592.5
t-408 -189.5z" />
    <glyph glyph-name="Pi" unicode="&#x3a0;" horiz-adv-x="1272" 
d="M1124 0h-276v1317h-426v-1317h-275v1491h977v-1491z" />
    <glyph glyph-name="Rho" unicode="&#x3a1;" horiz-adv-x="1126" 
d="M422 1323v-627h102q133 0 192.5 73t59.5 251q0 170 -54.5 236.5t-176.5 66.5h-123zM147 1491h441q243 0 356 -111t113 -352q0 -245 -130 -373.5t-380 -128.5h-125v-526h-275v1491z" />
    <glyph glyph-name="Sigma" unicode="&#x3a3;" horiz-adv-x="1008" 
d="M965 0h-928v131l452 617l-423 612v131h886v-174h-528l336 -479v-111l-387 -522h592v-205z" />
    <glyph glyph-name="Tau" unicode="&#x3a4;" horiz-adv-x="1071" 
d="M398 0v1313h-365v178h1005v-178h-365v-1313h-275z" />
    <glyph glyph-name="Upsilon" unicode="&#x3a5;" horiz-adv-x="1049" 
d="M377 0v522l-369 969h293l238 -707l256 707h245l-389 -967v-524h-274z" />
    <glyph glyph-name="Phi" unicode="&#x3a6;" horiz-adv-x="1620" 
d="M948 193v-193h-276v193q-299 15 -448.5 154.5t-149.5 404.5q0 256 155 396t443 150v193h276v-193q289 -11 443.5 -149.5t154.5 -392.5q0 -267 -149.5 -408t-448.5 -155zM948 1126v-761q163 14 238.5 104.5t75.5 280.5q0 181 -75.5 272t-238.5 104zM672 365v761
q-156 -13 -234 -105.5t-78 -264.5q0 -193 75.5 -287t236.5 -104z" />
    <glyph glyph-name="Chi" unicode="&#x3a7;" horiz-adv-x="1137" 
d="M10 0l410 758l-391 733h313l246 -492l243 492h256l-378 -698l421 -793h-313l-274 551l-277 -551h-256z" />
    <glyph glyph-name="Psi" unicode="&#x3a8;" horiz-adv-x="1554" 
d="M1456 938q0 -233 -135.5 -354.5t-405.5 -130.5v-453h-274v453q-271 9 -406 130.5t-135 354.5v553h275v-535q0 -162 61 -241.5t205 -87.5v864h274v-864q145 9 205 88t60 241v535h276v-553z" />
    <glyph glyph-name="Psi" unicode="&#x470;" horiz-adv-x="1554" 
d="M1456 938q0 -233 -135.5 -354.5t-405.5 -130.5v-453h-274v453q-271 9 -406 130.5t-135 354.5v553h275v-535q0 -162 61 -241.5t205 -87.5v864h274v-864q145 9 205 88t60 241v535h276v-553z" />
    <glyph glyph-name="Omega" unicode="&#x3a9;" horiz-adv-x="1294" 
d="M1221 0h-492v238q180 268 180 630q0 232 -65 348.5t-195 116.5q-132 0 -198 -116.5t-66 -348.5q0 -356 182 -630v-238h-493v205h280v8q-256 284 -256 676q0 274 145.5 446t413.5 172q259 0 399 -173t140 -447q0 -388 -256 -674v-8h281v-205z" />
    <glyph glyph-name="Iotadieresis" unicode="&#x3aa;" horiz-adv-x="664" 
d="M70 0v172h123v1147h-123v172h522v-172h-123v-1147h123v-172h-522zM543 1835q53 0 91 -39t38 -92q0 -54 -38 -93.5t-91 -39.5q-54 0 -93.5 39.5t-39.5 93.5q0 53 39.5 92t93.5 39zM127 1835q54 0 92.5 -39t38.5 -92q0 -54 -38.5 -93.5t-92.5 -39.5q-53 0 -92 39.5
t-39 93.5q0 53 39 92t92 39z" />
    <glyph glyph-name="Upsilondieresis" unicode="&#x3ab;" horiz-adv-x="1049" 
d="M377 0v522l-369 969h293l238 -707l256 707h245l-389 -967v-524h-274zM744 1835q53 0 91 -39t38 -92q0 -54 -38 -93.5t-91 -39.5q-54 0 -93.5 39.5t-39.5 93.5q0 53 39.5 92t93.5 39zM328 1835q54 0 92.5 -39t38.5 -92q0 -54 -38.5 -93.5t-92.5 -39.5q-53 0 -92 39.5
t-39 93.5q0 53 39 92t92 39z" />
    <glyph glyph-name="alphatonos" unicode="&#x3ac;" horiz-adv-x="1243" 
d="M1194 0h-244q-34 85 -61 197q-82 -128 -167 -170.5t-208 -42.5q-210 0 -318 155.5t-108 446.5q0 277 118 438.5t339 161.5q113 0 194.5 -47t151.5 -160q28 113 59 190h244q-141 -271 -141 -565v-39q0 -290 141 -565zM580 1026q-107 0 -160 -108t-53 -324
q0 -224 53 -335.5t160 -111.5q99 0 150.5 80.5t51.5 366.5q0 268 -53.5 350t-148.5 82zM587 1638h240l-193 -368h-188z" />
    <glyph glyph-name="epsilontonos" unicode="&#x3ad;" horiz-adv-x="944" 
d="M905 51q-188 -67 -387 -67q-215 0 -328.5 85.5t-113.5 245.5q0 101 65 180.5t172 112.5q-97 36 -145.5 103.5t-48.5 165.5q0 146 114.5 227.5t321.5 81.5q160 0 324 -43v-174q-162 53 -269 53q-110 0 -164.5 -40.5t-54.5 -121.5q0 -86 54.5 -129t164.5 -43h181v-162h-187
q-124 0 -186 -47t-62 -141t59 -141t177 -47q142 0 313 73v-172zM499 1638h240l-193 -368h-188z" />
    <glyph glyph-name="etatonos" unicode="&#x3ae;" horiz-adv-x="1192" 
d="M342 995q122 191 350 191q184 0 276.5 -95t92.5 -284v-1141h-273v1108q0 122 -40.5 183t-120.5 61q-106 0 -162.5 -83t-56.5 -224v-711h-271v1169h158zM602 1638h240l-193 -368h-188z" />
    <glyph glyph-name="iotatonos" unicode="&#x3af;" horiz-adv-x="653" 
d="M629 0q-82 -14 -180 -14q-132 0 -197.5 71.5t-65.5 214.5v738h-145v159h416v-897q0 -61 24 -91.5t72 -30.5q35 0 76 8v-158zM321 1638h240l-193 -368h-188z" />
    <glyph glyph-name="upsilondieresistonos" unicode="&#x3b0;" horiz-adv-x="1184" 
d="M129 1169h272v-741q0 -156 40.5 -221.5t138.5 -65.5q130 0 179.5 107t49.5 340q0 290 -129 581h281q118 -263 118 -563q0 -311 -128 -466.5t-384 -155.5q-219 0 -328.5 109t-109.5 327v749zM817 1638l-194 -368h-179l144 368h229zM874 1303q-45 0 -77.5 32.5t-32.5 77.5
t32.5 77t77.5 32t77 -32t32 -77t-32 -77.5t-77 -32.5zM334 1303q-45 0 -78 32.5t-33 77.5t33 77t78 32t76.5 -32t31.5 -77t-31.5 -77.5t-76.5 -32.5z" />
    <glyph glyph-name="alpha" unicode="&#x3b1;" horiz-adv-x="1243" 
d="M1194 0h-244q-34 85 -61 197q-82 -128 -167 -170.5t-208 -42.5q-210 0 -318 155.5t-108 446.5q0 277 118 438.5t339 161.5q113 0 194.5 -47t151.5 -160q28 113 59 190h244q-141 -271 -141 -565v-39q0 -290 141 -565zM580 1026q-107 0 -160 -108t-53 -324
q0 -224 53 -335.5t160 -111.5q99 0 150.5 80.5t51.5 366.5q0 268 -53.5 350t-148.5 82z" />
    <glyph glyph-name="beta" unicode="&#x3b2;" horiz-adv-x="1206" 
d="M408 12v-346h-271v1399q0 260 134.5 397t379.5 137q206 0 326.5 -100.5t120.5 -275.5q0 -255 -250 -379q276 -98 276 -408q0 -223 -121.5 -334.5t-363.5 -111.5q-144 0 -231 22zM541 752v157q140 7 210 78t70 205q0 125 -46.5 187.5t-139.5 62.5q-111 0 -169 -83
t-58 -355v-824q71 -28 180 -28q129 0 193.5 74t64.5 223q0 141 -69.5 216t-235.5 87z" />
    <glyph glyph-name="gamma" unicode="&#x3b3;" horiz-adv-x="1061" 
d="M1024 1169q-70 -508 -389 -1081q4 -47 4 -164v-258h-270v338q0 137 -46 310t-321 855h291q119 -275 270 -794q172 426 209 794h252z" />
    <glyph glyph-name="delta" unicode="&#x3b4;" horiz-adv-x="1182" 
d="M408 1083q-148 128 -148 273q0 110 92 176.5t254 66.5q163 0 344 -65v-182q-185 86 -299 86q-129 0 -129 -82q0 -66 47.5 -112t202.5 -163q162 -122 243 -258t81 -286q0 -269 -132.5 -411t-373.5 -142q-236 0 -369 138t-133 388q0 179 80 322.5t240 250.5zM569 961
q-100 -82 -150 -194.5t-50 -256.5q0 -185 55 -277t166 -92q112 0 168.5 90.5t56.5 272.5q0 129 -61.5 243.5t-184.5 213.5z" />
    <glyph glyph-name="epsilon" unicode="&#x3b5;" horiz-adv-x="944" 
d="M905 51q-188 -67 -387 -67q-215 0 -328.5 85.5t-113.5 245.5q0 101 65 180.5t172 112.5q-97 36 -145.5 103.5t-48.5 165.5q0 146 114.5 227.5t321.5 81.5q160 0 324 -43v-174q-162 53 -269 53q-110 0 -164.5 -40.5t-54.5 -121.5q0 -86 54.5 -129t164.5 -43h181v-162h-187
q-124 0 -186 -47t-62 -141t59 -141t177 -47q142 0 313 73v-172z" />
    <glyph glyph-name="zeta" unicode="&#x3b6;" horiz-adv-x="901" 
d="M807 -334h-219q47 131 47 189q0 73 -33 100t-139 51q-198 45 -287.5 175t-89.5 364q0 249 115.5 466t347.5 402h-397v170h696v-141q-241 -186 -361 -404t-120 -467q0 -182 54 -267.5t191 -115.5q151 -32 204.5 -84t53.5 -167q0 -110 -63 -271z" />
    <glyph glyph-name="eta" unicode="&#x3b7;" horiz-adv-x="1192" 
d="M342 995q122 191 350 191q184 0 276.5 -95t92.5 -284v-1141h-273v1108q0 122 -40.5 183t-120.5 61q-106 0 -162.5 -83t-56.5 -224v-711h-271v1169h158z" />
    <glyph glyph-name="theta" unicode="&#x3b8;" horiz-adv-x="1171" 
d="M582 -16q-253 0 -371.5 194.5t-118.5 609.5q0 405 126 608t378 203q250 0 366.5 -192.5t116.5 -611.5q0 -415 -121 -613t-376 -198zM803 883q-3 279 -56.5 419t-158.5 140q-111 0 -163.5 -130t-53.5 -429h432zM803 719h-432q0 -289 54 -433.5t163 -144.5q110 0 162 133
t53 445z" />
    <glyph glyph-name="theta" unicode="&#x473;" horiz-adv-x="1171" 
d="M582 -16q-253 0 -371.5 194.5t-118.5 609.5q0 405 126 608t378 203q250 0 366.5 -192.5t116.5 -611.5q0 -415 -121 -613t-376 -198zM803 883q-3 279 -56.5 419t-158.5 140q-111 0 -163.5 -130t-53.5 -429h432zM803 719h-432q0 -289 54 -433.5t163 -144.5q110 0 162 133
t53 445z" />
    <glyph glyph-name="iota" unicode="&#x3b9;" horiz-adv-x="653" 
d="M629 0q-82 -14 -180 -14q-132 0 -197.5 71.5t-65.5 214.5v738h-145v159h416v-897q0 -61 24 -91.5t72 -30.5q35 0 76 8v-158z" />
    <glyph glyph-name="kappa" unicode="&#x3ba;" horiz-adv-x="1090" 
d="M686 639l406 -639h-314l-370 598v-598h-271v1169h271v-559l385 559h276z" />
    <glyph glyph-name="lambda" unicode="&#x3bb;" horiz-adv-x="1061" 
d="M666 1298l376 -1298h-286l-213 817l-277 -817h-260l445 1153l-17 66q-35 136 -75 171t-103 35q-74 0 -145 -20v172q109 22 213 22q141 0 215.5 -62.5t126.5 -238.5z" />
    <glyph glyph-name="mu" unicode="&#x3bc;" horiz-adv-x="1196" 
d="M901 0l-45 174q-116 -188 -303 -188q-90 0 -145 45v-365h-271v1503h271v-782q0 -117 41 -175t124 -58q104 0 159.5 81t55.5 226v708h273v-1169h-160z" />
    <glyph glyph-name="nu" unicode="&#x3bd;" horiz-adv-x="1073" 
d="M350 0l-340 1169h285l240 -927q98 196 153 355t55 318q0 143 -32 254h258q28 -89 28 -223q0 -152 -79 -358t-289 -588h-279z" />
    <glyph glyph-name="xi" unicode="&#x3be;" horiz-adv-x="905" 
d="M811 -334h-219q45 122 45 187q0 74 -34 104t-136 49q-202 38 -292.5 138t-90.5 278q0 134 80 239.5t215 155.5q-114 31 -183 121t-69 215q0 190 149 301q-168 41 -204 176h266q23 -90 113 -90q10 0 54 4q43 4 87 4q143 0 278 -39v-172q-127 47 -215 47q-129 0 -193.5 -59
t-64.5 -176q0 -122 73 -183t220 -61h109v-166q-235 0 -338 -72.5t-103 -222.5q0 -109 55.5 -165t204.5 -90q92 -22 149 -47t82 -75.5t25 -127.5q0 -113 -63 -273zM905 1583z" />
    <glyph glyph-name="omicron" unicode="&#x3bf;" horiz-adv-x="1182" 
d="M592 141q110 0 166.5 103t56.5 364q0 125 -25.5 222t-75.5 147.5t-122 50.5q-112 0 -167.5 -105t-55.5 -315q0 -234 55.5 -350.5t167.5 -116.5zM592 -16q-250 0 -377 157.5t-127 460.5q0 269 132 426.5t372 157.5q242 0 372 -156t130 -434q0 -284 -123.5 -448
t-378.5 -164z" />
    <glyph glyph-name="pi" unicode="&#x3c0;" horiz-adv-x="1266" 
d="M1206 0q-79 -14 -164 -14q-132 0 -198 72t-66 216v723h-305v-997h-270v997h-164v172h1180v-172h-170v-721q0 -63 22.5 -94.5t67.5 -31.5q34 0 67 6v-156z" />
    <glyph glyph-name="rho" unicode="&#x3c1;" horiz-adv-x="1182" 
d="M397 12v-346h-270v1002q0 259 122 388.5t367 129.5q239 0 358.5 -147t119.5 -441q0 -287 -135 -448.5t-390 -161.5q-81 0 -172 24zM397 176q59 -26 142 -26q139 0 206.5 99.5t67.5 354.5q0 212 -56 318t-167 106q-97 0 -145 -84t-48 -252v-516z" />
    <glyph glyph-name="sigma1" unicode="&#x3c2;" horiz-adv-x="895" 
d="M801 -334h-219q47 143 47 191q0 69 -31 96t-131 49q-198 43 -289.5 177t-91.5 399q0 296 136 452t399 156q103 0 219 -27v-168q-103 29 -195 29q-139 0 -208.5 -109t-69.5 -327q0 -205 58.5 -286.5t192.5 -111.5q150 -31 198 -85.5t48 -163.5t-63 -271z" />
    <glyph glyph-name="sigma" unicode="&#x3c3;" horiz-adv-x="1262" 
d="M1223 997h-265q144 -177 144 -465q0 -252 -130 -400t-370 -148q-257 0 -385.5 145.5t-128.5 437.5q0 267 167 434.5t476 167.5h492v-172zM684 993q-146 -4 -231.5 -124.5t-85.5 -303.5q0 -212 57.5 -318t173.5 -106q109 0 166 107.5t57 292.5q0 289 -137 452z" />
    <glyph glyph-name="tau" unicode="&#x3c4;" horiz-adv-x="913" 
d="M827 14q-115 -30 -249 -30q-138 0 -206.5 69.5t-68.5 208.5v735h-264v172h835v-172h-301v-696q0 -93 27.5 -122t79.5 -29q71 0 147 20v-156z" />
    <glyph glyph-name="upsilon" unicode="&#x3c5;" horiz-adv-x="1184" 
d="M129 1169h272v-741q0 -156 40.5 -221.5t138.5 -65.5q130 0 179.5 107t49.5 340q0 290 -129 581h281q118 -263 118 -563q0 -311 -128 -466.5t-384 -155.5q-219 0 -328.5 109t-109.5 327v749z" />
    <glyph glyph-name="phi" unicode="&#x3c6;" horiz-adv-x="1579" 
d="M911 -12v-322h-270v322q-278 17 -416.5 165t-138.5 427q0 213 105.5 370t293.5 236l86 -150q-209 -131 -209 -450q0 -199 69.5 -307.5t209.5 -126.5v696q0 159 92.5 248.5t259.5 89.5q235 0 368.5 -150.5t133.5 -423.5q0 -296 -140.5 -451.5t-443.5 -172.5zM911 152
q166 14 236 128t70 338q0 195 -54 300.5t-143 105.5q-109 0 -109 -141v-731z" />
    <glyph glyph-name="chi" unicode="&#x3c7;" horiz-adv-x="1006" 
d="M-16 -334l389 760l-359 743h297l213 -487l209 487h254l-350 -702l381 -801h-297l-236 545l-249 -545h-252z" />
    <glyph glyph-name="psi" unicode="&#x3c8;" horiz-adv-x="1583" 
d="M1460 477q0 -233 -133 -354.5t-399 -130.5v-326h-271v326q-266 9 -399 130.5t-133 354.5v692h270v-682q0 -164 60 -243.5t202 -87.5v1335h271v-1335q143 10 201.5 88t58.5 243v682h272v-692z" />
    <glyph glyph-name="psi" unicode="&#x471;" horiz-adv-x="1583" 
d="M1460 477q0 -233 -133 -354.5t-399 -130.5v-326h-271v326q-266 9 -399 130.5t-133 354.5v692h270v-682q0 -164 60 -243.5t202 -87.5v1335h271v-1335q143 10 201.5 88t58.5 243v682h272v-692z" />
    <glyph glyph-name="omega" unicode="&#x3c9;" horiz-adv-x="1618" 
d="M809 113q-110 -129 -289 -129q-218 0 -327 136t-109 408q0 228 121.5 408.5t316.5 249.5l84 -150q-126 -72 -189 -199.5t-63 -310.5q0 -192 44 -287.5t132 -95.5q81 0 112.5 67t31.5 216v350h272v-350q0 -151 32 -217t112 -66q88 0 132 95.5t44 287.5q0 181 -63 308.5
t-189 201.5l82 150q198 -71 319 -250t121 -408q0 -272 -110 -408t-330 -136q-181 0 -287 129z" />
    <glyph glyph-name="iotadieresis" unicode="&#x3ca;" horiz-adv-x="653" 
d="M629 0q-82 -14 -180 -14q-132 0 -197.5 71.5t-65.5 214.5v738h-145v159h416v-897q0 -61 24 -91.5t72 -30.5q35 0 76 8v-158zM520 1569q53 0 91 -39t38 -92q0 -54 -38 -93.5t-91 -39.5q-54 0 -93.5 39.5t-39.5 93.5q0 53 39.5 92t93.5 39zM104 1569q54 0 92.5 -39
t38.5 -92q0 -54 -38.5 -93.5t-92.5 -39.5q-53 0 -92 39.5t-39 93.5q0 53 39 92t92 39z" />
    <glyph glyph-name="upsilondieresis" unicode="&#x3cb;" horiz-adv-x="1184" 
d="M129 1169h272v-741q0 -156 40.5 -221.5t138.5 -65.5q130 0 179.5 107t49.5 340q0 290 -129 581h281q118 -263 118 -563q0 -311 -128 -466.5t-384 -155.5q-219 0 -328.5 109t-109.5 327v749zM808 1569q53 0 91 -39t38 -92q0 -54 -38 -93.5t-91 -39.5q-54 0 -93.5 39.5
t-39.5 93.5q0 53 39.5 92t93.5 39zM392 1569q54 0 92.5 -39t38.5 -92q0 -54 -38.5 -93.5t-92.5 -39.5q-53 0 -92 39.5t-39 93.5q0 53 39 92t92 39z" />
    <glyph glyph-name="omicrontonos" unicode="&#x3cc;" horiz-adv-x="1182" 
d="M592 141q110 0 166.5 103t56.5 364q0 125 -25.5 222t-75.5 147.5t-122 50.5q-112 0 -167.5 -105t-55.5 -315q0 -234 55.5 -350.5t167.5 -116.5zM592 -16q-250 0 -377 157.5t-127 460.5q0 269 132 426.5t372 157.5q242 0 372 -156t130 -434q0 -284 -123.5 -448
t-378.5 -164zM571 1638h240l-193 -368h-188z" />
    <glyph glyph-name="upsilontonos" unicode="&#x3cd;" horiz-adv-x="1184" 
d="M129 1169h272v-741q0 -156 40.5 -221.5t138.5 -65.5q130 0 179.5 107t49.5 340q0 290 -129 581h281q118 -263 118 -563q0 -311 -128 -466.5t-384 -155.5q-219 0 -328.5 109t-109.5 327v749zM587 1638h240l-193 -368h-188z" />
    <glyph glyph-name="omegatonos" unicode="&#x3ce;" horiz-adv-x="1618" 
d="M809 113q-110 -129 -289 -129q-218 0 -327 136t-109 408q0 228 121.5 408.5t316.5 249.5l84 -150q-126 -72 -189 -199.5t-63 -310.5q0 -192 44 -287.5t132 -95.5q81 0 112.5 67t31.5 216v350h272v-350q0 -151 32 -217t112 -66q88 0 132 95.5t44 287.5q0 181 -63 308.5
t-189 201.5l82 150q198 -71 319 -250t121 -408q0 -272 -110 -408t-330 -136q-181 0 -287 129zM813 1638h240l-193 -368h-188z" />
    <glyph glyph-name="afii10023" unicode="&#x401;" horiz-adv-x="969" 
d="M147 0v1491h766v-172h-491v-426h397v-174h-397v-547h500v-172h-775zM734 1835q53 0 91 -39t38 -92q0 -54 -38 -93.5t-91 -39.5q-54 0 -93.5 39.5t-39.5 93.5q0 53 39.5 92t93.5 39zM318 1835q54 0 92.5 -39t38.5 -92q0 -54 -38.5 -93.5t-92.5 -39.5q-53 0 -92 39.5
t-39 93.5q0 53 39 92t92 39z" />
    <glyph glyph-name="afii10051" unicode="&#x402;" horiz-adv-x="1440" 
d="M674 891q109 108 280 108q184 0 276.5 -94t92.5 -282v-617q0 -160 -89 -248t-257 -88q-86 0 -195 21v172q70 -17 133 -17q136 0 136 160v582q0 120 -40.5 180.5t-121.5 60.5q-108 0 -161.5 -77t-53.5 -230v-522h-275v1313h-366v178h1007v-178h-366v-422z" />
    <glyph glyph-name="afii10052" unicode="&#x403;" horiz-adv-x="938" 
d="M905 1313h-483v-1313h-275v1491h758v-178zM573 1887h244l-256 -332h-201z" />
    <glyph glyph-name="afii10053" unicode="&#x404;" horiz-adv-x="963" 
d="M668 -16q-288 0 -430 183.5t-142 594.5q0 372 144.5 558.5t433.5 186.5q116 0 237 -32v-175q-115 33 -211 33q-146 0 -224.5 -115t-90.5 -344h424v-174h-424q7 -283 86.5 -412.5t237.5 -129.5q90 0 202 30v-172q-124 -32 -243 -32z" />
    <glyph glyph-name="afii10054" unicode="&#x405;" horiz-adv-x="987" 
d="M399 -16q-163 0 -321 41v178q173 -47 307 -47q127 0 198.5 57t71.5 162q0 99 -59 155.5t-219 147.5q-175 98 -236 197.5t-61 226.5q0 202 135.5 303.5t353.5 101.5q158 0 291 -30v-174q-141 32 -262 32q-110 0 -176 -52t-66 -144q0 -89 57.5 -142.5t196.5 -130.5
q192 -107 257 -207t65 -225q0 -225 -133.5 -337.5t-399.5 -112.5z" />
    <glyph glyph-name="afii10055" unicode="&#x406;" horiz-adv-x="664" 
d="M70 0v172h123v1147h-123v172h522v-172h-123v-1147h123v-172h-522z" />
    <glyph glyph-name="afii10056" unicode="&#x407;" horiz-adv-x="664" 
d="M70 0v172h123v1147h-123v172h522v-172h-123v-1147h123v-172h-522zM541 1835q53 0 91 -39t38 -92q0 -54 -38 -93.5t-91 -39.5q-54 0 -93.5 39.5t-39.5 93.5q0 53 39.5 92t93.5 39zM125 1835q54 0 92.5 -39t38.5 -92q0 -54 -38.5 -93.5t-92.5 -39.5q-53 0 -92 39.5
t-39 93.5q0 53 39 92t92 39z" />
    <glyph glyph-name="afii10057" unicode="&#x408;" horiz-adv-x="655" 
d="M592 1491v-172h-125v-1303q0 -168 -89 -256t-259 -88q-68 0 -205 23v174q105 -19 139 -19q74 0 107 38t33 126v1305h-123v172h522z" />
    <glyph glyph-name="afii10058" unicode="&#x409;" horiz-adv-x="1915" 
d="M1157 696v-526h154q132 0 191 62t59 202q0 137 -59.5 199.5t-192.5 62.5h-152zM1157 864h189q267 0 383 -105t116 -329q0 -215 -127 -322.5t-381 -107.5h-456v1319h-267l-14 -195q-20 -280 -64.5 -560.5t-83.5 -385t-102.5 -146.5t-191.5 -42q-73 0 -129 10v207
q43 -8 69 -8q43 0 72.5 18.5t55 91.5t65.5 315.5t63 503.5l21 230l131 133h651v-627z" />
    <glyph glyph-name="afii10059" unicode="&#x40a;" horiz-adv-x="1853" 
d="M1124 696v-526h125q132 0 191 62t59 202q0 137 -60.5 199.5t-193.5 62.5h-121zM1124 864h160q267 0 383.5 -104.5t116.5 -329.5q0 -215 -127.5 -322.5t-382.5 -107.5h-426v696h-426v-696h-275v1491h275v-627h426v627h276v-627z" />
    <glyph glyph-name="afii10060" unicode="&#x40b;" horiz-adv-x="1440" 
d="M674 891q109 108 280 108q184 0 276.5 -94t92.5 -282v-623h-272v588q0 120 -40.5 180.5t-121.5 60.5q-108 0 -161.5 -77t-53.5 -230v-522h-275v1313h-366v178h1007v-178h-366v-422z" />
    <glyph glyph-name="afii10061" unicode="&#x40c;" horiz-adv-x="1214" 
d="M422 1491v-653h76q95 0 141.5 59t73.5 221q40 243 107.5 313t187.5 70q65 0 155 -12v-168q-34 4 -73 4q-53 0 -75.5 -46.5t-51.5 -225.5q-22 -127 -83 -201t-161 -94q114 -17 172.5 -92.5t85.5 -225.5q34 -195 58 -232.5t77 -37.5q47 0 72 4v-170q-77 -10 -158 -10
q-86 0 -146.5 26.5t-99.5 90.5t-71 264q-27 161 -70 229t-137 68h-80v-672h-275v1491h275zM713 1887h244l-256 -332h-201z" />
    <glyph glyph-name="afii10062" unicode="&#x40e;" horiz-adv-x="1090" 
d="M440 420l-426 1071h295l264 -750l267 750h247l-475 -1221q-67 -173 -141.5 -228.5t-202.5 -55.5q-95 0 -170 16v197q66 -17 125 -17q73 0 110 31t66 104zM734 1876h156q-39 -159 -123.5 -238t-214.5 -79q-132 0 -216.5 79t-121.5 238h156q19 -81 64.5 -121t117.5 -40
t117.5 40t64.5 121z" />
    <glyph glyph-name="afii10145" unicode="&#x40f;" horiz-adv-x="1270" 
d="M508 0h-361v1491h275v-1317h426v1317h276v-1491h-360l-27 -279h-202z" />
    <glyph glyph-name="afii10017" unicode="&#x410;" horiz-adv-x="1186" 
d="M756 496l-183 741l-188 -741h371zM883 0l-86 328h-451l-88 -328h-250l430 1491h324l412 -1491h-291z" />
    <glyph glyph-name="afii10018" unicode="&#x411;" horiz-adv-x="1182" 
d="M422 696v-526h153q132 0 191 62t59 202q0 137 -59.5 199.5t-192.5 62.5h-151zM422 864h190q267 0 382.5 -105t115.5 -329q0 -215 -127 -322.5t-381 -107.5h-455v1491h826v-174h-551v-453z" />
    <glyph glyph-name="afii10019" unicode="&#x412;" horiz-adv-x="1180" 
d="M610 0h-463v1491h498q214 0 321 -90.5t107 -270.5q0 -256 -248 -344q285 -65 285 -366q0 -210 -125 -315t-375 -105zM422 858h135q123 0 180.5 59t57.5 187q0 109 -52.5 164t-156.5 55h-164v-465zM422 168h151q133 0 192.5 61.5t59.5 202.5q0 132 -61.5 195t-192.5 63
h-149v-522z" />
    <glyph glyph-name="afii10020" unicode="&#x413;" horiz-adv-x="938" 
d="M905 1313h-483v-1313h-275v1491h758v-178z" />
    <glyph glyph-name="afii10021" unicode="&#x414;" horiz-adv-x="1274" 
d="M1231 174l-29 -453h-207l-22 279h-701l-18 -279h-207l-27 453h91q51 154 101 430.5t73 530.5l20 223l131 133h670v-1317h125zM831 174v1145h-288l-13 -186q-43 -612 -151 -959h452z" />
    <glyph glyph-name="afii10022" unicode="&#x415;" horiz-adv-x="969" 
d="M147 0v1491h766v-172h-491v-426h397v-174h-397v-547h500v-172h-775z" />
    <glyph glyph-name="afii10024" unicode="&#x416;" horiz-adv-x="1835" 
d="M1057 1491v-653h45q91 0 147 56.5t84 223.5q43 256 112.5 319.5t182.5 63.5q76 0 156 -12v-168q-35 4 -74 4q-53 0 -75 -47t-52 -225q-21 -126 -82 -200t-162 -95q111 -16 171 -91.5t87 -226.5q37 -198 60.5 -234t75.5 -36q48 0 71 4v-170q-76 -10 -157 -10
q-94 0 -159 31.5t-99 112t-60 237.5q-28 166 -71 231.5t-136 65.5h-65v-672h-277v672h-61q-97 0 -140.5 -65t-70.5 -232q-22 -138 -53 -222t-97 -121.5t-168 -37.5q-78 0 -157 10v170q23 -4 71 -4q51 0 74 35t60 235q26 144 90.5 223.5t167.5 94.5q-100 20 -160.5 93.5
t-81.5 201.5q-29 173 -50.5 222.5t-76.5 49.5q-37 0 -74 -4v168q82 12 156 12q113 0 182.5 -63.5t112.5 -319.5q27 -162 73.5 -221t141.5 -59h61v653h277z" />
    <glyph glyph-name="afii10025" unicode="&#x417;" horiz-adv-x="961" 
d="M51 20v179q152 -41 262 -41q142 0 213.5 67.5t71.5 202.5q0 148 -83 212.5t-322 64.5h-29v167h39q221 0 299 57.5t78 186.5q0 108 -58.5 162.5t-175.5 54.5q-129 0 -283 -41v176q156 39 343 39q228 0 342 -92.5t114 -277.5q0 -134 -66.5 -220.5t-199.5 -125.5
q140 -25 215.5 -117.5t75.5 -233.5q0 -228 -134 -342t-401 -114q-162 0 -301 36z" />
    </font>
</defs>
</svg>
